# ProBuilder 4.5.2
# https://unity3d.com/unity/features/worldbuilding/probuilder
# 10/11/2021 8:13:44 p.m.

mtllib ./CompassLine.mtl
o CompassLine

g CompassLine
v 0 0.007711887 -0.004132986
v 0.03780127 0.007711887 -0.155493
v 0.002066135 0.007711887 -0.3123603
v -0.03596592 0.007711887 -0.155493
v -0.03596592 0 -0.155493
v 0.002066135 0 -0.3123603
v 0.03780127 0 -0.155493
v 0 0 -0.004132986

vt 0.06893387 0.6622273
vt 0.03113261 0.5108672
vt 0.06686774 0.354
vt 0.1048998 0.5108672
vt 0.03296785 0.5154628
vt 0.07099991 0.3585956
vt 0.106735 0.5154628
vt 0.06893377 0.6668229
vt 0.2387932 0.0321691
vt 0.07738134 0.0321691
vt 0.2387932 0.03988099
vt 0.07738134 0.03988099
vt 0.6855327 0.0321691
vt 0.5246466 0.0321691
vt 0.6855327 0.03988099
vt 0.5246466 0.03988099
vt 0.5414527 0.7031249
vt 0.3854437 0.7031249
vt 0.5414527 0.7108368
vt 0.3854437 0.7108368
vt 0.3774129 0.7031249
vt 0.2218384 0.7031249
vt 0.3774129 0.7108368
vt 0.2218384 0.7108368

vn 0 1 0
vn 0 -1 0
vn -0.971845 0 -0.2356212
vn 0.9750206 0 -0.2221145
vn 0.970201 0 0.2423019
vn -0.9729106 0 0.2311814

usemtl compassLine
f 1/1/1 2/2/1 3/3/1 4/4/1
f 5/5/2 6/6/2 7/7/2 8/8/2
f 4/11/3 3/12/3 6/10/3 5/9/3
f 3/15/4 2/16/4 7/14/4 6/13/4
f 2/19/5 1/20/5 8/18/5 7/17/5
f 1/23/6 4/24/6 5/22/6 8/21/6

