# ProBuilder 4.5.2
# https://unity3d.com/unity/features/worldbuilding/probuilder
# 10/11/2021 8:08:28 p.m.

mtllib ./LilyPad.mtl
o LilyPad

g LilyPad
v -4.768372E-07 0.01043224 -0.1422176
v -0.1326342 0.02 0.4294271
v -0.3750792 0.02 0.7145319
v -0.7426844 0.02 0.9165115
v -1.200936 0.02 1.074531
v -1.84881 0.02 0.9955208
v -2.338665 0.02 0.7426898
v -2.654701 0.02 0.1896224
v -2.842716 0.02 -0.3639297
v -2.857134 0.02 -1.137447
v -2.635404 0.02 -1.894673
v -2.264915 0.02 -2.434712
v -1.749146 0.02 -2.78967
v -1.243579 0.02 -2.944441
v -0.6122952 0.01662064 -3.007597
v 0.005619049 0.007061005 -3.011667
v 0.01121235 0.008148193 -1.431359
v -0.7426844 0 0.9165115
v -1.84881 0 0.9955208
v -1.200936 0 1.074531
v -2.338665 0 0.7426898
v -2.654701 0 0.1896224
v 0 0 -0.1422174
v -0.3750792 0 0.7145319
v -0.1326342 0 0.4294271
v -2.842716 0 -0.3639297
v 0.0112133 4.768372E-07 -1.431358
v 0.005620003 0 -3.011665
v -0.6122952 0 -3.007596
v -1.243579 0 -2.944441
v -1.749146 0 -2.78967
v -2.264915 0 -2.434712
v -2.635404 0 -1.894673
v -2.857134 0 -1.137447
v 0.1326347 0.01999998 0.4294271
v 0.3750801 0.01999998 0.7145317
v 0.7426835 0.01999998 0.9165112
v 1.200936 0.01999998 1.074531
v 1.84881 0.01999998 0.9955206
v 2.338665 0.01999998 0.7426895
v 2.654701 0.01999998 0.189622
v 2.842715 0.01999998 -0.3639294
v 2.857135 0.01999998 -1.137448
v 2.635403 0.01999998 -1.894673
v 2.264915 0.01999998 -2.434712
v 1.749146 0.01999998 -2.78967
v 1.24358 0.01999998 -2.944441
v 0.6122947 0.01662064 -3.007597
v -0.005619526 0.007061005 -3.011667
v -0.01121283 0.008148193 -1.43136
v 0.7426835 0 0.9165112
v 1.84881 0 0.9955206
v 1.200936 0 1.074531
v 2.338665 0 0.7426895
v 2.654701 0 0.189622
v 0.3750801 0 0.7145317
v 0.1326347 0 0.4294271
v 2.842715 0 -0.3639294
v -0.01121283 4.768372E-07 -1.431359
v -0.005619526 0 -3.011665
v 0.6122947 0 -3.007596
v 1.24358 0 -2.944441
v 1.749146 0 -2.78967
v 2.264915 0 -2.434712
v 2.635403 0 -1.894673
v 2.857135 0 -1.137448

vt 2.781276E-05 -0.1422086
vt 0.1326861 0.4294438
vt 0.3751303 0.7145479
vt 0.7427342 0.9165266
vt 1.200985 1.074545
vt 1.848856 0.9955334
vt 2.338709 0.7427014
vt 2.654744 0.1896335
vt 2.842759 -0.3639189
vt 2.857177 -1.137436
vt 2.635447 -1.894661
vt 2.26496 -2.4347
vt 1.749193 -2.789656
vt 1.243628 -2.944426
vt 0.6123366 -3.007584
vt -0.005600527 -3.01166
vt -0.01119096 -1.431352
vt -0.7426844 0.9165115
vt -1.84881 0.9955208
vt -1.200936 1.074531
vt -2.338665 0.7426898
vt -2.654701 0.1896224
vt -0.3750792 0.7145319
vt -0.1326342 0.4294271
vt -2.842716 -0.3639297
vt 0.0112133 -1.431358
vt 0.005620003 -3.011665
vt -0.6122952 -3.007596
vt -1.243579 -2.944441
vt -1.749146 -2.78967
vt -2.264915 -2.434712
vt -2.635404 -1.894673
vt -2.857134 -1.137447
vt -1.714699 0
vt -1.062025 0
vt -1.714699 0.02
vt -1.062025 0.02
vt -1.485622 0
vt -1.00089 0
vt -1.485622 0.02
vt -1.00089 0.02
vt -1.73755 0
vt -1.186295 0
vt -1.73755 0.02
vt -1.186295 0.02
vt -1.152453 0
vt -0.5154582 0
vt -1.152453 0.02
vt -0.5154582 0.02
vt -0.7873112 0
vt -0.4130596 0
vt -0.7873112 0.02
vt -0.4130596 0.02
vt -0.4482926 1.555768E-06
vt 0.1385373 1.555721E-06
vt -0.4482926 0.02000155
vt 0.1385374 0.0104338
vt -1.092247 0
vt -0.6728075 0
vt -1.092247 0.02
vt -0.6728075 0.02
vt -1.258835 0
vt -0.6742244 0
vt -1.258835 0.02
vt -0.6742244 0.02
vt 1.43131 -1.710212E-06
vt 3.011627 -2.187069E-06
vt 1.431311 0.008146007
vt 3.011628 0.007058818
vt -0.02545705 0.0002591948
vt 0.5924715 0.0002591948
vt -0.0254561 0.0073202
vt 0.5924715 0.01687983
vt 0.3098545 0
vt 0.9442899 0
vt 0.3098543 0.01662064
vt 0.9442899 0.02
vt 0.3271996 0
vt 0.8559265 0
vt 0.3271996 0.02
vt 0.8559265 0.02
vt -0.1406448 0
vt 0.4854642 0
vt -0.1406448 0.02
vt 0.4854642 0.02
vt -0.7263858 0
vt -0.07147847 0
vt -0.7263858 0.02
vt -0.07147847 0.02
vt 0.142212 1.458749E-07
vt 0.1422122 0.01043239
vt -1.077721 0
vt -0.2886995 0
vt -1.077721 0.02
vt -0.2886995 0.02
vt -1.190497 0
vt -0.4168447 0
vt -1.190497 0.02
vt -0.4168447 0.02
vt 1.714699 0
vt 1.062026 0
vt 1.714699 0.02
vt 1.062026 0.02
vt 1.485622 0
vt 1.00089 0
vt 1.485622 0.02
vt 1.00089 0.02
vt 1.73755 0
vt 1.186295 0
vt 1.73755 0.02
vt 1.186295 0.02
vt 1.152453 0
vt 0.5154582 0
vt 1.152453 0.02
vt 0.5154582 0.02
vt 0.7873112 0
vt 0.4130596 0
vt 0.7873112 0.02
vt 0.4130596 0.02
vt 0.4482926 0
vt -0.1385373 0
vt 0.4482926 0.02
vt -0.1385373 0.01043225
vt 1.092247 0
vt 0.6728075 0
vt 1.092247 0.02
vt 0.6728075 0.02
vt 1.258835 0
vt 0.6742244 0
vt 1.258835 0.02
vt 0.6742244 0.02
vt -1.43131 -1.423061E-06
vt -3.011627 -1.899898E-06
vt -1.431311 0.008146293
vt -3.011628 0.007059105
vt 0.025453 0.000612787
vt -0.5924755 0.000612787
vt 0.025453 0.007673792
vt -0.5924755 0.01723342
vt -0.3098613 0.0002615144
vt -0.9442968 0.0002615144
vt -0.3098612 0.01688216
vt -0.9442968 0.02026151
vt -0.3271995 0
vt -0.8559265 0
vt -0.3271995 0.02
vt -0.8559265 0.02
vt 0.1406448 0
vt -0.4854642 0
vt 0.1406448 0.02
vt -0.4854642 0.02
vt 0.7263858 0
vt 0.07147849 0
vt 0.7263858 0.02
vt 0.07147849 0.02
vt -0.142212 5.681068E-08
vt -0.142212 0.0104323
vt 1.077721 0
vt 0.2886995 0
vt 1.077721 0.02
vt 0.2886995 0.02
vt 1.190497 0
vt 0.4168447 0
vt 1.190497 0.02
vt 0.4168447 0.02

vn -0.002538433 0.9998813 -0.00670245
vn -0.0270505 0.9993694 -0.02300298
vn -0.01756438 0.9996144 -0.01885276
vn -0.001341518 0.9999576 -0.005459183
vn 0 1 0
vn 0.001542367 0.9999911 -0.002077115
vn 0.003413932 0.9999938 -0.0006185492
vn 0.003204675 0.9999946 0.000413491
vn 0.003939196 0.9999902 0.0006341259
vn 0.003585922 0.9999863 0.003677296
vn 0.002543147 0.9999815 0.005429343
vn 0.003789446 0.9999788 0.004690157
vn 0.0105653 0.9999295 0.001195443
vn 0.01546406 0.9998801 -0.0007426108
vn 0.005832619 0.9999663 0.002377024
vn 0 -1 0
vn -0.1210563 0 0.9926456
vn 0.3259937 0 0.9453719
vn -0.4586464 0 0.8886188
vn -0.8682451 0 0.4961356
vn 0.7617996 0 0.6478128
vn 0.9741231 0 0.2260181
vn 0.4815467 0 0.8764204
vn -0.9468729 0 0.3216079
vn 0.9999937 0.0001166848 -0.003539354
vn -0.006585434 -0.0002034782 -0.9999782
vn -0.09954547 -8.56409E-05 -0.995033
vn -0.2927237 0 -0.9561971
vn -0.5669261 0 -0.8237686
vn -0.8246037 0 -0.5657108
vn 0.9999622 4.584295E-05 0.008697946
vn -0.959702 0 -0.2810197
vn -0.9998264 0 0.01863645
vn 0.00253844 0.9998813 -0.006702456
vn 0.02705046 0.9993694 -0.023003
vn 0.01756439 0.9996144 -0.01885279
vn 0.001341533 0.9999576 -0.005459188
vn -0.001542365 0.9999911 -0.002077111
vn -0.003413926 0.9999938 -0.0006185491
vn -0.003204668 0.9999946 0.0004134889
vn -0.003939189 0.9999902 0.0006341267
vn -0.003585919 0.9999863 0.00367729
vn -0.002543145 0.9999815 0.005429334
vn -0.003789428 0.9999788 0.004690161
vn -0.01056528 0.9999295 0.00119545
vn -0.01546406 0.9998801 -0.0007426113
vn -0.005832611 0.9999662 0.002377023
vn 0.121057 0 0.9926456
vn -0.3259943 0 0.9453717
vn 0.4586468 0 0.8886187
vn 0.8682451 0 0.4961356
vn -0.7617988 0 0.6478137
vn -0.9741229 0 0.226019
vn -0.4815485 0 0.8764194
vn 0.9468733 0 0.3216069
vn -0.9999937 -5.696276E-07 -0.003539355
vn 0.006585058 -0.0002025888 -0.9999782
vn 0.09954575 -7.136741E-05 -0.995033
vn 0.2927235 0 -0.9561971
vn 0.5669269 0 -0.8237681
vn 0.8246034 0 -0.5657112
vn -0.9999622 0 0.008697574
vn 0.9597017 0 -0.2810209
vn 0.9998263 0 0.01863828

usemtl LilyPad-Green
f 1/1/1 10/10/8 9/9/7
f 10/10/8 1/1/1 11/11/9
f 11/11/9 1/1/1 17/17/15
f 12/12/10 11/11/9 17/17/15
f 13/13/11 12/12/10 17/17/15
f 14/14/12 13/13/11 17/17/15
f 15/15/13 14/14/12 17/17/15
f 17/17/15 16/16/14 15/15/13
f 9/9/7 8/8/6 1/1/1
f 4/4/4 1/1/1 8/8/6
f 4/4/4 3/3/3 1/1/1
f 1/1/1 3/3/3 2/2/2
f 8/8/6 6/6/5 4/4/4
f 7/7/5 6/6/5 8/8/6
f 4/4/4 6/6/5 5/5/5
f 20/20/16 19/19/16 18/18/16
f 22/22/16 19/19/16 21/21/16
f 18/18/16 19/19/16 22/22/16
f 25/24/16 24/23/16 23/1/16
f 23/1/16 24/23/16 18/18/16
f 22/22/16 23/1/16 18/18/16
f 23/1/16 22/22/16 26/25/16
f 29/28/16 28/27/16 27/26/16
f 27/26/16 30/29/16 29/28/16
f 27/26/16 31/30/16 30/29/16
f 27/26/16 32/31/16 31/30/16
f 27/26/16 33/32/16 32/31/16
f 27/26/16 23/1/16 33/32/16
f 33/32/16 23/1/16 34/33/16
f 26/25/16 34/33/16 23/1/16
f 38/20/5 39/19/5 37/18/37
f 41/22/38 39/19/5 40/21/5
f 37/18/37 39/19/5 41/22/38
f 35/24/35 36/23/36 1/1/34
f 1/1/34 36/23/36 37/18/37
f 41/22/38 1/1/34 37/18/37
f 1/1/34 41/22/38 42/25/39
f 48/28/45 49/27/46 50/26/47
f 50/26/47 47/29/44 48/28/45
f 50/26/47 46/30/43 47/29/44
f 50/26/47 45/31/42 46/30/43
f 50/26/47 44/32/41 45/31/42
f 50/26/47 1/1/34 44/32/41
f 44/32/41 1/1/34 43/33/40
f 42/25/39 43/33/40 1/1/34
f 23/1/16 66/10/16 58/9/16
f 66/10/16 23/1/16 65/11/16
f 65/11/16 23/1/16 59/17/16
f 64/12/16 65/11/16 59/17/16
f 63/13/16 64/12/16 59/17/16
f 62/14/16 63/13/16 59/17/16
f 61/15/16 62/14/16 59/17/16
f 59/17/16 60/16/16 61/15/16
f 58/9/16 55/8/16 23/1/16
f 51/4/16 23/1/16 55/8/16
f 51/4/16 56/3/16 23/1/16
f 23/1/16 56/3/16 57/2/16
f 55/8/16 52/6/16 51/4/16
f 54/7/16 52/6/16 55/8/16
f 51/4/16 52/6/16 53/5/16
f 20/35/17 5/37/17 6/36/17
f 6/36/17 19/34/17 20/35/17
f 18/39/18 4/41/18 5/40/18
f 5/40/18 20/38/18 18/39/18
f 19/43/19 6/45/19 7/44/19
f 7/44/19 21/42/19 19/43/19
f 21/47/20 7/49/20 8/48/20
f 8/48/20 22/46/20 21/47/20
f 25/51/21 2/53/21 3/52/21
f 3/52/21 24/50/21 25/51/21
f 23/55/22 1/57/22 2/56/22
f 2/56/22 25/54/22 23/55/22
f 24/59/23 3/61/23 4/60/23
f 4/60/23 18/58/23 24/59/23
f 22/63/24 8/65/24 9/64/24
f 9/64/24 26/62/24 22/63/24
f 28/67/25 16/69/25 17/68/25
f 17/68/25 27/66/25 28/67/25
f 29/71/26 15/73/26 16/72/26
f 16/72/26 28/70/26 29/71/26
f 30/75/27 14/77/27 15/76/27
f 15/76/27 29/74/27 30/75/27
f 31/79/28 13/81/28 14/80/28
f 14/80/28 30/78/28 31/79/28
f 32/83/29 12/85/29 13/84/29
f 13/84/29 31/82/29 32/83/29
f 33/87/30 11/89/30 12/88/30
f 12/88/30 32/86/30 33/87/30
f 27/66/31 17/68/31 1/91/31
f 1/91/31 23/90/31 27/66/31
f 34/93/32 10/95/32 11/94/32
f 11/94/32 33/92/32 34/93/32
f 26/97/33 9/99/33 10/98/33
f 10/98/33 34/96/33 26/97/33
f 38/103/48 53/101/48 52/100/48
f 52/100/48 39/102/48 38/103/48
f 37/107/49 51/105/49 53/104/49
f 53/104/49 38/106/49 37/107/49
f 39/111/50 52/109/50 54/108/50
f 54/108/50 40/110/50 39/111/50
f 40/115/51 54/113/51 55/112/51
f 55/112/51 41/114/51 40/115/51
f 35/119/52 57/117/52 56/116/52
f 56/116/52 36/118/52 35/119/52
f 1/123/53 23/121/53 57/120/53
f 57/120/53 35/122/53 1/123/53
f 36/127/54 56/125/54 51/124/54
f 51/124/54 37/126/54 36/127/54
f 41/131/55 55/129/55 58/128/55
f 58/128/55 42/130/55 41/131/55
f 49/135/56 60/133/56 59/132/56
f 59/132/56 50/134/56 49/135/56
f 48/139/57 61/137/57 60/136/57
f 60/136/57 49/138/57 48/139/57
f 47/143/58 62/141/58 61/140/58
f 61/140/58 48/142/58 47/143/58
f 46/147/59 63/145/59 62/144/59
f 62/144/59 47/146/59 46/147/59
f 45/151/60 64/149/60 63/148/60
f 63/148/60 46/150/60 45/151/60
f 44/155/61 65/153/61 64/152/61
f 64/152/61 45/154/61 44/155/61
f 50/134/62 59/132/62 23/156/62
f 23/156/62 1/157/62 50/134/62
f 43/161/63 66/159/63 65/158/63
f 65/158/63 44/160/63 43/161/63
f 42/165/64 58/163/64 66/162/64
f 66/162/64 43/164/64 42/165/64

