# ProBuilder 4.5.2
# https://unity3d.com/unity/features/worldbuilding/probuilder
# 16/11/2021 12:29:41 p.m.

mtllib ./Rock.mtl
o Rock

g Icosphere
v 0 0.2784541 0
v 0.06498394 0.1701302 0.1051462
v -0.1051462 0.2752764 0.1701302
v -0.2102923 0.2734982 0.05036402
v -0.1051462 0.2752764 -0.07981491
v 0.0119164 0.1701302 -0.07383919
v -0.225529 0.1701302 0.1051464
v -0.1051462 0.06498393 0.1466246
v 0 0.03019238 0
v -0.1051462 0.06498393 -0.1343946
v -0.2256362 0.1701302 -0.0859127
v -0.2102923 0.03112912 0

vt 0 0.3402603
vt 0.06498394 0.1701302
vt -0.1051462 0.2752764
vt 0 0
vt 0.1051462 0.1701302
vt 0.2102924 0
vt 0.1051462 -0.1701302
vt 0.1051462 0.2752764
vt -0.06498394 0.1701302
vt -0.1051462 0.1701302
vt -0.2102924 0.3402603
vt -0.2752764 0.1701302
vt -0.1051462 0.06498394
vt 0.1051462 0.06498394
vt 0.2102924 0.3402603
vt 0.2752764 0.1701302
vt -0.2102924 0
vt -0.1051462 -0.1701302

vn 0.5868268 0.71708 0.3760727
vn -0.02240486 0.9997373 0.004826371
vn -0.02515455 0.9996614 -0.006662306
vn 0.5051146 0.5233579 -0.6862622
vn 0.9185065 0.2866755 -0.2723288
vn -0.6860699 0.4170604 0.5961281
vn 0.2969249 -0.1060741 0.948991
vn 0.9340177 -0.2256592 -0.2769277
vn 0.2652068 0.2422229 -0.9332703
vn -0.5728987 0.6827956 -0.4534063
vn -0.6410581 -0.5064745 0.5766524
vn -0.004337206 -0.973669 0.2279251
vn -0.004315926 -0.968892 -0.2474463
vn -0.6434003 -0.4526166 -0.6173931
vn -0.9939999 -0.1093797 0.0005581761
vn -0.4023123 -0.1016978 0.9098365
vn 0.5342044 -0.6521927 0.5378386
vn 0.6740958 -0.3887928 -0.6280407
vn -0.1678272 0.2476555 -0.9542016
vn -0.9892676 0.1461141 0.0005555186

usemtl Rock
f 3/3/1 2/2/1 1/1/1
f 4/6/2 3/5/2 1/4/2
f 5/7/3 4/6/3 1/4/3
f 6/9/4 5/8/4 1/1/4
f 2/10/5 6/5/5 1/1/5
f 7/12/6 3/3/6 4/11/6
f 8/13/7 2/2/7 3/3/7
f 9/4/8 6/5/8 2/10/8
f 10/14/9 5/8/9 6/9/9
f 11/16/10 4/15/10 5/8/10
f 8/13/11 7/12/11 12/17/11
f 9/4/12 8/10/12 12/17/12
f 10/18/13 9/4/13 12/17/13
f 11/16/14 10/14/14 12/6/14
f 7/5/15 11/10/15 12/4/15
f 3/3/16 7/12/16 8/13/16
f 2/2/17 8/13/17 9/4/17
f 6/9/18 9/4/18 10/14/18
f 5/8/19 10/14/19 11/16/19
f 4/1/20 11/10/20 7/5/20

