# ProBuilder 4.5.2
# https://unity3d.com/unity/features/worldbuilding/probuilder
# 10/11/2021 8:29:47 p.m.

mtllib ./scrapmetal2.mtl
o scrapmetal2

g scrapmetal1
v -0.1551771 0.2098502 1.074262
v -0.0752759 0.7695086 1.074262
v -0.1551771 0.2098502 4.790034
v -0.0752759 0.7695086 4.620629
v 0.1167321 0.7135422 1.074262
v 0.04482269 0.2098502 1.074262
v 0.1167321 0.7135422 4.620629
v 0.04482269 0.2098502 4.790034
v 0.1580405 1.28445 1.074262
v 0.1580405 1.28445 4.620629
v 0.3267193 1.17699 1.074262
v 0.3267193 1.17699 4.620629
v 0.6813073 1.503679 1.074262
v 0.6813073 1.503679 4.620629
v 0.8131766 1.353312 1.074262
v 0.8131766 1.353312 4.620629
v 1.025488 1.812616 0.8626282
v 1.154764 1.812616 4.620629
v 1.110013 1.631354 0.8626282
v 1.239288 1.631354 4.620629
v 1.695752 1.976723 0.3730437
v 1.695753 1.976723 5
v 1.726177 1.77905 0.3730437
v 1.726178 1.779051 5
v 2.261052 2.207266 -5.960464E-08
v 2.261052 2.207266 5
v 2.234948 2.008976 -5.960464E-08
v 2.234948 2.008976 5
v 2.805493 2.054998 -5.960464E-08
v 2.805493 2.054998 5
v 2.724943 1.871937 -5.960464E-08
v 2.724943 1.871937 5
v 3.285575 1.756465 -5.960464E-08
v 3.285575 1.756465 4.7486
v 3.157017 1.603256 -5.960464E-08
v 3.157017 1.603256 4.7486

vt 1.074262 0.1858118
vt 1.074262 0.7511451
vt 4.790034 0.1858118
vt 4.620629 0.7511451
vt -1.074262 0.7228779
vt -1.074262 0.2140786
vt -4.620629 0.7228779
vt -4.790034 0.2140786
vt -0.1551771 4.790034
vt 0.04482269 4.790034
vt -0.1551771 1.074262
vt 0.04482269 1.074262
vt 1.074262 0.6698509
vt 1.074262 1.235184
vt 4.620629 0.6698509
vt 4.620629 1.235184
vt -1.074262 1.206916
vt -1.074262 0.6981153
vt -4.620629 1.206916
vt -4.620629 0.6981153
vt -0.6421007 1.074262
vt -1.209436 1.074262
vt -0.6421007 4.620629
vt -1.209436 4.620629
vt 1.225671 1.074262
vt 0.7082447 1.074262
vt 1.225671 4.620629
vt 0.7082447 4.620629
vt -1.51144 1.074262
vt -1.973936 0.8626282
vt -1.51144 4.620629
vt -2.07014 4.620629
vt 1.920002 0.8518372
vt 1.513315 1.063528
vt 2.015412 4.61085
vt 1.513315 4.60894
vt -1.418513 0.8504159
vt -2.108563 0.3608157
vt -1.544252 4.608537
vt -2.108564 4.987624
vt 2.093323 0.3730437
vt 1.459704 0.8626282
vt 2.093323 5
vt 1.585418 4.620629
vt -2.316659 0.3730435
vt -2.927162 -2.090052E-07
vt -2.31666 5
vt -2.927162 5
vt 2.86397 -5.960464E-08
vt 2.305656 0.3730437
vt 2.86397 5
vt 2.305657 5
vt -1.582988 -5.960464E-08
vt -2.14832 -5.960464E-08
vt -1.582988 5
vt -2.14832 5
vt 2.120057 -5.960464E-08
vt 1.611259 -5.960464E-08
vt 2.120057 5
vt 1.611259 5
vt -1.297256 -5.960464E-08
vt -1.862588 -5.960464E-08
vt -1.297256 5
vt -1.862588 4.7486
vt 1.834317 -5.960464E-08
vt 1.325517 -5.960464E-08
vt 1.834317 4.7486
vt 1.325517 5
vt -4.7486 3.257457
vt -4.7486 3.457458
vt 5.960464E-08 3.257457
vt 5.960464E-08 3.457458
vt -0.1551771 -1.186881
vt -0.0752759 -0.6021452
vt 0.04482269 -1.186881
vt 0.1167321 -0.6557114
vt 0.0752759 0.7695086
vt 0.1551771 0.2098502
vt -0.1167321 0.7135422
vt -0.04482269 0.2098502
vt -0.0752759 0.7695086
vt 0.1580405 1.28445
vt 0.1167321 0.7135422
vt 0.3267193 1.17699
vt -0.1580405 1.28445
vt -0.3267193 1.17699
vt 0.6813073 1.503679
vt 0.8131766 1.353312
vt -0.6813073 1.503679
vt -0.8131766 1.353312
vt 1.154764 1.812616
vt 1.239288 1.631354
vt -0.597825 1.563538
vt -0.1978663 1.249333
vt -0.675377 1.379185
vt -0.318858 1.091924
vt 3.402627 2.551165
vt 4.062163 2.720089
vt 3.474646 2.36458
vt 4.088086 2.524279
vt -1.171937 1.855954
vt -0.342036 1.691204
vt -1.196816 1.657507
vt -0.4111537 1.506355
vt 1.695753 1.976723
vt 2.261052 2.207266
vt 1.726178 1.779051
vt 2.234948 2.008976
vt -1.854637 2.29815
vt -1.177567 2.066954
vt -1.833225 2.099299
vt -1.202523 1.871146
vt 2.805493 2.054998
vt 2.724943 1.871937
vt -2.805493 2.054998
vt -2.261052 2.207266
vt -2.724943 1.871937
vt -2.234948 2.008976
vt 0.6933697 2.966049
vt 1.232986 2.663366
vt 0.6188713 2.780443
vt 1.114086 2.504189
vt -3.285575 1.756465
vt -3.157017 1.603256

vn -0.9899619 0.1413347 0
vn 0.9899623 -0.1413316 0
vn 0 -1 0
vn -0.9108641 0.4127065 0
vn 0.9108625 -0.41271 0
vn -0.3864194 0.9223232 0
vn 0.340768 -0.9401474 0
vn -0.6679773 0.7441816 0
vn -0.6071742 0.790757 0.009397588
vn -0.546371 0.8373324 0.01879518
vn 0.6745774 -0.7378393 -0.02320548
vn 0.610521 -0.7876607 -0.01160274
vn 0.5464646 -0.8374822 0
vn -0.232297 0.9726121 0.007991021
vn -0.2612905 0.9647763 0.003995565
vn -0.2902839 0.9569406 1.091406E-07
vn 0.2331003 -0.9724527 -3.941844E-09
vn 0.265333 -0.9635496 -0.005118134
vn 0.2975657 -0.9546465 -0.01023627
vn -0.377627 0.9259578 1.255466E-07
vn 0.4118226 -0.9112641 0
vn 0.2693409 0.9630449 0
vn -0.2693396 -0.9630453 0
vn 0.5280669 0.8492028 0
vn -0.5280681 -0.8492021 0
vn 0.7660442 -0.6427879 0
vn 0 0.2897122 0.9571138
vn 0.04460283 0.2978783 0.9524713
vn 0.08920565 0.3060445 0.9478287
vn 0 0 -1
vn 0 0 1
vn -0.3910394 -0.1823448 -0.90213
vn -0.3691153 -0.2434128 -0.8945596
vn -0.3471912 -0.3044808 -0.8869892
vn -0.5085288 -0.237131 0.8277484
vn -0.5515758 -0.1643262 0.8132636
vn -0.5946227 -0.09152128 0.7987788
vn -0.5733601 -0.08824809 -0.8145369
vn -0.5672754 -0.1749679 -0.799883
vn -0.5611906 -0.2616877 -0.785229
vn -0.5703844 0.07509018 -0.8179384
vn -0.5668432 -0.005804896 -0.8198141
vn -0.5633019 -0.08669998 -0.8216898
vn 0.3750578 -0.165031 0.9121932
vn 0.3585789 -0.2260435 0.9034685
vn 0.3420999 -0.2870561 0.8947438

usemtl rust_metal
f 3/3/1 4/4/1 2/2/1 1/1/1
f 7/7/2 8/8/2 6/6/2 5/5/2
f 1/11/3 6/12/3 8/10/3 3/9/3
f 4/15/4 10/16/4 9/14/4 2/13/4
f 12/19/5 7/20/5 5/18/5 11/17/5
f 10/23/6 14/24/6 13/22/6 9/21/6
f 16/27/7 12/28/7 11/26/7 15/25/7
f 14/31/9 18/32/10 17/30/9 13/29/8
f 20/35/12 16/36/13 15/34/12 19/33/11
f 18/39/15 22/40/16 21/38/15 17/37/14
f 24/43/18 20/44/19 19/42/18 23/41/17
f 22/47/20 26/48/20 25/46/20 21/45/20
f 28/51/21 24/52/21 23/50/21 27/49/21
f 26/55/22 30/56/22 29/54/22 25/53/22
f 32/59/23 28/60/23 27/58/23 31/57/23
f 30/63/24 34/64/24 33/62/24 29/61/24
f 36/67/25 32/68/25 31/66/25 35/65/25
f 35/71/26 33/72/26 34/70/26 36/69/26
f 8/75/28 7/76/29 4/74/28 3/73/27
f 5/79/30 6/80/30 1/78/30 2/77/30
f 7/83/31 12/84/31 10/82/31 4/81/31
f 11/86/30 5/79/30 2/77/30 9/85/30
f 12/84/31 16/88/31 14/87/31 10/82/31
f 15/90/30 11/86/30 9/85/30 13/89/30
f 16/88/31 20/92/31 18/91/31 14/87/31
f 19/95/33 15/96/34 13/94/33 17/93/32
f 20/99/36 24/100/37 22/98/36 18/97/35
f 23/103/39 19/104/40 17/102/39 21/101/38
f 24/107/31 28/108/31 26/106/31 22/105/31
f 27/111/42 23/112/43 21/110/42 25/109/41
f 28/108/31 32/114/31 30/113/31 26/106/31
f 31/117/30 27/118/30 25/116/30 29/115/30
f 32/121/45 36/122/46 34/120/45 30/119/44
f 35/124/30 31/117/30 29/115/30 33/123/30

