# Blender v2.78 (sub 0) OBJ File: ''
# www.blender.org
mtllib Reel.mtl
o Reel
v 0.575000 1.412362 -1.931851
v 0.575000 2.447639 -1.931851
v 0.575000 3.344214 -1.414213
v 0.575000 3.861852 -0.517638
v -0.575000 3.861852 -0.517637
v 0.575000 3.861852 0.517638
v -0.575000 3.861852 0.517638
v 0.575000 3.344213 1.414214
v 0.575000 2.447638 1.931852
v 0.575000 1.412362 1.931852
v 0.575000 0.515787 1.414214
v -0.575000 0.515787 1.414214
v -0.575000 -0.001851 0.517639
v 0.575000 -0.001852 -0.517637
v 0.575000 0.515786 -1.414212
v -0.575000 0.515786 -1.414213
v 0.750000 1.412362 -1.931851
v 0.750000 2.447639 -1.931851
v -0.750000 2.447639 -1.931851
v -0.750000 1.412362 -1.931851
v 0.750000 3.344214 -1.414213
v -0.750000 3.344214 -1.414213
v 0.750000 3.861852 -0.517638
v -0.750000 3.861852 -0.517637
v 0.750000 3.861852 0.517638
v -0.750000 3.861852 0.517638
v 0.750000 3.344213 1.414214
v -0.750000 3.344214 1.414214
v 0.750000 2.447638 1.931852
v -0.750000 2.447639 1.931852
v 0.750000 1.412362 1.931852
v -0.750000 1.412362 1.931852
v 0.750000 0.515787 1.414214
v -0.750000 0.515787 1.414214
v 0.750000 -0.001851 0.517639
v -0.750000 -0.001851 0.517639
v 0.750000 -0.001852 -0.517637
v -0.750000 -0.001852 -0.517637
v 0.750000 0.515786 -1.414212
v -0.750000 0.515786 -1.414213
v -0.575000 2.447639 -1.931851
v -0.575000 1.412362 -1.931851
v -0.575000 3.344214 -1.414213
v -0.575000 3.344214 1.414214
v -0.575000 2.447639 1.931852
v -0.575000 1.412362 1.931852
v -0.575000 -0.001852 -0.517637
v 0.575000 -0.001851 0.517639
v 0.575000 0.930000 0.000000
v -0.575000 0.930000 -0.000000
v 0.575000 1.222893 -0.707107
v -0.575000 1.222893 -0.707107
v 0.575000 1.930000 -1.000000
v -0.575000 1.930000 -1.000000
v 0.575000 2.637107 -0.707107
v -0.575000 2.637107 -0.707107
v 0.575000 2.930000 0.000000
v -0.575000 2.930000 0.000000
v 0.575000 2.637107 0.707107
v -0.575000 2.637107 0.707107
v 0.575000 1.930000 1.000000
v -0.575000 1.930000 1.000000
v 0.575000 1.222893 0.707107
v -0.575000 1.222893 0.707107
vt 0.0745 0.0702
vt 0.0128 0.0299
vt 0.0128 0.0702
vt 0.7037 0.0702
vt 0.8723 0.0299
vt 0.8723 0.0702
vt 0.0621 0.7760
vt 0.4370 0.1267
vt 0.4370 0.9924
vt 0.8698 0.5595
vt 0.0041 0.5595
vt 0.2205 0.9344
vt 0.9340 0.0702
vt 0.8723 0.0299
vt 0.8723 0.0702
vt 0.8723 0.0299
vt 0.7037 0.0702
vt 0.7037 0.0299
vt 0.0128 0.0299
vt 0.0745 0.0702
vt 0.0745 0.0299
vt 0.8723 0.0299
vt 0.9340 0.0702
vt 0.9340 0.0299
vt 0.0745 0.0702
vt 0.2431 0.0299
vt 0.2431 0.0702
vt 0.7037 0.0702
vt 0.4734 0.0299
vt 0.4734 0.0702
vt 0.2431 0.0299
vt 0.0745 0.0702
vt 0.0745 0.0299
vt 0.4734 0.0299
vt 0.7037 0.0702
vt 0.7037 0.0299
vt 0.4734 0.0702
vt 0.7037 0.0299
vt 0.2431 0.0702
vt 0.0745 0.0299
vt 0.9340 0.0299
vt 0.4734 0.0702
vt 0.4734 0.0299
vt 0.2431 0.0702
vt 0.2431 0.0299
vt 0.8723 0.0702
vt 0.0745 0.0299
vt 0.7037 0.0299
vt 0.0128 0.0702
vt 0.8723 0.0702
vt 0.4734 0.0299
vt 0.2431 0.0299
vt 0.2431 0.0702
vt 0.4734 0.0702
vt 0.8118 0.7760
vt 0.6534 0.9344
vt 0.2205 0.9344
vt 0.0041 0.5595
vt 0.0621 0.3431
vt 0.2205 0.1847
vt 0.6534 0.1847
vt 0.8118 0.3431
vt 0.8698 0.5595
vt 0.4370 0.9924
vt 0.6534 0.9344
vt 0.8118 0.7760
vt 0.8118 0.3431
vt 0.6534 0.1847
vt 0.4370 0.1267
vt 0.2205 0.1847
vt 0.0621 0.3431
vt 0.0621 0.7760
vt 0.6641 0.9314
vt 0.8755 0.5538
vt 0.0099 0.5652
vt 0.6541 0.1818
vt 0.8146 0.3381
vt 0.8204 0.7709
vt 0.2313 0.9372
vt 0.4484 0.9923
vt 0.0708 0.7809
vt 0.2213 0.1876
vt 0.0650 0.3481
vt 0.4370 0.1267
vt 0.6534 0.9344
vt 0.0041 0.5595
vt 0.8698 0.5595
vt 0.6534 0.1847
vt 0.8118 0.3431
vt 0.8118 0.7760
vt 0.4370 0.9924
vt 0.2205 0.9344
vt 0.0621 0.7760
vt 0.0621 0.3431
vt 0.2205 0.1847
vt 0.4370 0.1267
vt 0.9898 0.3667
vt 0.9898 0.6997
vt 0.9663 0.6997
vt 0.9663 0.3667
vt 0.9428 0.6997
vt 0.9428 0.3667
vt 0.9193 0.6997
vt 0.9193 0.3667
vt 0.8958 0.6997
vt 0.8958 0.3667
vt 0.9193 0.6997
vt 0.9193 0.3667
vt 0.9428 0.6997
vt 0.9428 0.3667
vt 0.9663 0.6997
vt 0.9663 0.3667
vn -0.6532 -0.1960 0.7313
vn 0.6532 0.1960 0.7313
vn -0.6532 0.1960 0.7313
vn -0.6532 0.5354 -0.5354
vn 0.6532 0.1960 -0.7313
vn -0.6532 0.1960 -0.7313
vn -0.6532 -0.7313 -0.1960
vn -0.6532 -0.1960 -0.7313
vn 0.6532 0.7313 -0.1960
vn 0.6532 -0.7313 0.1960
vn 0.6532 -0.5354 -0.5354
vn -0.6532 -0.5354 -0.5354
vn 0.6532 0.5354 -0.5354
vn 0.6532 -0.1960 0.7313
vn 0.6532 -0.1960 -0.7313
vn -0.6532 0.5354 0.5354
vn 0.6532 0.7313 0.1960
vn -0.6532 0.7313 0.1960
vn -0.6532 -0.7313 0.1960
vn 0.6532 0.5354 0.5354
vn 0.6532 -0.7313 -0.1960
vn -0.6532 0.7313 -0.1960
vn -0.6532 -0.5354 0.5354
vn 0.6532 -0.5354 0.5354
vn 0.0000 -1.0000 0.0000
vn 0.0000 -0.7071 -0.7071
vn 0.0000 0.0000 -1.0000
vn 0.0000 0.7071 -0.7071
vn 0.0000 1.0000 0.0000
vn 0.0000 0.7071 0.7071
vn 0.0000 0.0000 1.0000
vn 0.0000 -0.7071 0.7071
usemtl Reel
s 1
f 10/1/1 29/2/2 9/3/3
f 3/4/4 18/5/5 2/6/6
f 38/7/7 30/8/3 20/9/8
f 23/10/9 35/11/10 39/12/11
f 1/13/8 39/14/11 15/15/12
f 41/16/5 22/17/4 43/18/13
f 45/19/2 32/20/1 46/21/14
f 16/22/11 20/23/8 42/24/15
f 8/25/16 25/26/17 6/27/18
f 14/28/7 35/29/10 48/30/19
f 7/31/17 28/32/16 44/33/20
f 13/34/10 38/35/7 47/36/21
f 4/37/22 21/38/13 3/4/4
f 11/39/23 31/40/14 10/1/1
f 2/6/6 17/41/15 1/13/8
f 43/18/13 24/42/22 5/43/9
f 46/21/14 34/44/23 12/45/24
f 42/24/15 19/46/6 41/16/5
f 9/3/3 27/47/20 8/25/16
f 15/15/12 37/48/21 14/28/7
f 44/33/20 30/49/3 45/19/2
f 47/36/21 40/50/12 16/22/11
f 6/27/18 23/51/9 4/37/22
f 48/30/19 33/52/24 11/39/23
f 5/43/9 26/53/18 7/31/17
f 12/45/24 36/54/19 13/34/10
f 10/1/1 31/40/14 29/2/2
f 3/4/4 21/38/13 18/5/5
f 22/55/4 19/56/6 20/9/8
f 20/9/8 40/57/12 38/7/7
f 38/7/7 36/58/19 34/59/23
f 34/59/23 32/60/1 38/7/7
f 30/8/3 28/61/16 26/62/18
f 26/62/18 24/63/22 30/8/3
f 22/55/4 20/9/8 30/8/3
f 38/7/7 32/60/1 30/8/3
f 30/8/3 24/63/22 22/55/4
f 39/12/11 17/64/15 23/10/9
f 18/65/5 21/66/13 23/10/9
f 23/10/9 25/67/17 27/68/20
f 27/68/20 29/69/2 23/10/9
f 31/70/14 33/71/24 35/11/10
f 35/11/10 37/72/21 39/12/11
f 17/64/15 18/65/5 23/10/9
f 23/10/9 29/69/2 31/70/14
f 31/70/14 35/11/10 23/10/9
f 1/13/8 17/41/15 39/14/11
f 41/16/5 19/46/6 22/17/4
f 45/19/2 30/49/3 32/20/1
f 16/22/11 40/50/12 20/23/8
f 8/25/16 27/47/20 25/26/17
f 14/28/7 37/48/21 35/29/10
f 7/31/17 26/53/18 28/32/16
f 13/34/10 36/54/19 38/35/7
f 4/37/22 23/51/9 21/38/13
f 11/39/23 33/52/24 31/40/14
f 2/6/6 18/5/5 17/41/15
f 43/18/13 22/17/4 24/42/22
f 46/21/14 32/20/1 34/44/23
f 42/24/15 20/23/8 19/46/6
f 9/3/3 29/2/2 27/47/20
f 15/15/12 39/14/11 37/48/21
f 44/33/20 28/32/16 30/49/3
f 47/36/21 38/35/7 40/50/12
f 6/27/18 25/26/17 23/51/9
f 48/30/19 35/29/10 33/52/24
f 5/43/9 24/42/22 26/53/18
f 12/45/24 34/44/23 36/54/19
f 47/73/21 42/74/15 45/75/2
f 43/76/13 42/74/15 41/77/5
f 42/74/15 47/73/21 16/78/11
f 47/73/21 12/79/24 13/80/10
f 12/79/24 47/73/21 46/81/14
f 45/75/2 7/82/17 44/83/20
f 7/82/17 45/75/2 5/84/9
f 43/76/13 45/75/2 42/74/15
f 47/73/21 45/75/2 46/81/14
f 45/75/2 43/76/13 5/84/9
f 14/85/7 9/86/3 1/87/8
f 3/88/4 2/89/6 1/87/8
f 1/87/8 15/90/12 14/85/7
f 14/85/7 48/91/19 11/92/23
f 11/92/23 10/93/1 14/85/7
f 9/86/3 8/94/16 6/95/18
f 6/95/18 4/96/22 9/86/3
f 3/88/4 1/87/8 9/86/3
f 14/85/7 10/93/1 9/86/3
f 9/86/3 4/96/22 3/88/4
f 49/97/25 50/98/25 52/99/26 51/100/26
f 51/100/26 52/99/26 54/101/27 53/102/27
f 53/102/27 54/101/27 56/103/28 55/104/28
f 55/104/28 56/103/28 58/105/29 57/106/29
f 57/106/29 58/105/29 60/107/30 59/108/30
f 59/108/30 60/107/30 62/109/31 61/110/31
f 61/110/31 62/109/31 64/111/32 63/112/32
f 63/112/32 64/111/32 50/98/25 49/97/25
