# Blender v2.78 (sub 0) OBJ File: ''
# www.blender.org
mtllib Locker.mtl
o Locker1
v 2.000000 0.200000 3.599999
v 2.000000 8.200000 6.800000
v 2.000000 8.200000 5.100000
v 2.000000 8.200000 5.300000
v 2.000000 0.000000 7.000000
v 2.000000 0.000000 -0.000001
v 0.000000 0.000000 7.000000
v 2.000000 0.200000 6.800000
v 2.000000 0.200000 5.100000
v 2.000000 0.200000 5.300000
v 2.000000 0.200000 3.400000
v 0.000000 0.000000 -0.000001
v 2.000000 8.200000 7.000000
v 2.000000 8.200000 3.599999
v 2.000000 8.200000 0.199999
v 2.000000 8.200000 1.899999
v 2.000000 8.200000 1.700000
v 2.000000 8.200000 -0.000001
v 2.000000 8.400000 7.000000
v 0.000000 9.400000 7.000000
v 0.000000 9.400000 -0.000001
v 2.000000 8.400000 -0.000001
v 2.000000 8.200000 3.400000
v 2.000000 0.200000 0.199999
v 2.000000 0.200000 1.899999
v 2.000000 0.200000 1.700000
v 2.000000 0.200000 7.000000
v 2.000000 0.200000 -0.000001
vt 0.4372 0.0311
vt 0.2367 0.8534
vt 0.2367 0.0511
vt 0.4372 0.9737
vt 0.1856 0.0511
vt 0.0285 0.8891
vt 0.0285 0.0511
vt 0.1856 0.0511
vt 0.0285 0.8891
vt 0.0285 0.0511
vt 0.2367 0.0311
vt 0.4372 0.0311
vt 0.2367 0.0311
vt 0.2367 0.0511
vt 0.2367 0.8534
vt 0.2367 0.0511
vt 0.2166 0.8551
vt 0.2166 0.0511
vt 0.2367 0.0511
vt 0.2166 0.8551
vt 0.2367 0.8551
vt 0.2367 0.8551
vt 0.2166 0.0511
vt 0.2367 0.0511
vt 0.6984 0.4482
vt 0.9547 0.0410
vt 0.6984 0.0410
vt 0.6170 0.0513
vt 0.6431 0.9627
vt 0.6170 0.9627
vt 0.6170 0.0513
vt 0.6431 0.0513
vt 0.6431 0.9627
vt 0.6170 0.9627
vt 0.2367 0.8735
vt 0.1856 0.0511
vt 0.1856 0.8891
vt 0.0285 0.8891
vt 0.2367 0.8551
vt 0.2166 0.0511
vt 0.2166 0.8551
vt 0.9547 0.4482
vt 0.6431 0.0513
vt 0.1856 0.0511
vt 0.1856 0.8891
vt 0.0285 0.8891
vt 0.2367 0.0511
vt 0.2166 0.0511
vt 0.2166 0.8551
vt 0.2367 0.8551
vt 0.0285 0.0511
vt 0.0285 0.0511
vt 0.4372 0.9737
vt 0.2367 0.8735
vt 0.1856 0.8891
vt 0.1856 0.8891
vt 0.2166 0.0511
vt 0.2367 0.8551
vt 0.2166 0.8551
vn -0.0000 0.0000 -1.0000
vn 1.0000 0.0000 0.0000
vn 0.7071 0.0000 -0.7071
vn 0.0000 0.0000 1.0000
vn 0.7071 0.0000 0.7071
vn 0.6768 0.4183 -0.6057
vn 0.3655 0.7311 0.5761
vn 0.6768 0.4183 0.6057
vn 0.3655 0.7311 -0.5761
usemtl Locker
s 1
f 12/1/1 18/2/1 28/3/1
f 12/1/1 21/4/1 18/2/1
f 10/5/2 2/6/2 8/7/2
f 1/8/2 3/9/2 9/10/2
f 28/3/3 6/11/3 12/1/1
f 7/12/4 5/13/5 27/14/5
f 13/15/5 7/12/4 27/14/5
f 11/16/2 14/17/2 1/18/2
f 3/19/2 10/20/2 9/21/2
f 2/22/2 27/23/5 8/24/2
f 22/25/6 20/26/7 19/27/8
f 18/28/3 19/29/8 13/30/5
f 6/31/3 28/32/3 27/33/5
f 6/31/3 27/33/5 5/34/5
f 22/35/6 18/2/3 21/4/9
f 24/36/2 15/37/2 17/38/2
f 11/16/2 23/39/2 14/17/2
f 3/19/2 4/40/2 10/20/2
f 2/22/2 13/41/5 27/23/5
f 22/25/6 21/42/9 20/26/7
f 18/28/3 22/43/6 19/29/8
f 25/44/2 16/45/2 23/46/2
f 17/47/2 16/48/2 25/49/2
f 17/47/2 25/49/2 26/50/2
f 24/36/2 17/38/2 26/51/2
f 25/44/2 23/46/2 11/52/2
f 20/53/7 13/15/5 19/54/8
f 13/15/5 20/53/7 7/12/4
f 10/5/2 4/55/2 2/6/2
f 1/8/2 14/56/2 3/9/2
f 24/57/2 18/58/3 15/59/2
f 24/57/2 28/3/3 18/58/3
