# Blender v2.78 (sub 0) OBJ File: ''
# www.blender.org
mtllib Wash.mtl
o Wash
v 0.789151 2.096512 0.964971
v 0.666458 2.026181 0.964971
v 0.736789 1.903488 0.964971
v 0.859481 1.973819 0.964971
v 0.637929 2.237558 1.311191
v 0.528823 2.154689 1.276140
v 0.555999 2.071820 1.387469
v 0.665105 2.154689 1.422520
v 0.296199 2.551497 1.385181
v 0.210570 2.447233 1.342793
v 0.167307 2.428556 1.476133
v 0.252936 2.532820 1.518521
v -0.049827 2.857631 1.160584
v -0.113572 2.734249 1.133875
v -0.217090 2.768212 1.224045
v -0.153344 2.891594 1.250754
v -0.207355 2.968138 0.608560
v -0.263060 2.838256 0.603312
v -0.391572 2.892425 0.626773
v -0.335867 3.022307 0.632020
v -0.206729 2.963317 -0.784360
v -0.262042 2.835546 -0.759560
v -0.392198 2.889845 -0.770099
v -0.336885 3.017616 -0.794899
v -0.206729 2.771275 -1.264179
v -0.262042 2.683130 -1.168413
v -0.392198 2.720589 -1.209111
v -0.336885 2.808734 -1.304876
v -0.234386 2.224368 -1.366018
v -0.392198 2.224761 -1.356260
v -0.336885 2.219532 -1.486311
v -1.118783 1.072368 0.952437
v -1.118783 2.442575 0.707873
v -1.391192 0.828735 -0.412556
v -1.240092 2.198941 -0.657120
v -1.015314 1.070236 0.940494
v -1.015314 2.440440 0.695931
v -1.287724 0.826603 -0.424498
v -1.136623 2.196810 -0.669062
v -1.179437 0.950551 0.269940
v -1.105134 2.320758 0.025377
v -1.147735 1.513838 -0.534838
v -1.044266 1.511707 -0.546780
v -1.001665 2.318626 0.013434
v -1.000000 0.000000 1.000000
v -1.000000 2.804426 1.000000
v -1.000000 0.000000 -1.000000
v -1.000000 2.804426 -1.000000
v 1.000000 0.000000 1.000000
v 1.000000 2.804426 1.000000
v 1.000000 0.000000 -1.000000
v 1.000000 2.804426 -1.000000
v -1.000000 1.043063 -0.704144
v -1.000000 1.043063 0.704144
v -1.000000 2.451350 0.704144
v -1.000000 2.451351 -0.704144
v -0.502055 2.451350 0.000000
v -0.980011 1.593783 -0.946336
v 0.980011 1.210644 -1.053664
v 0.491796 2.804426 -1.000000
v 0.491796 2.804426 1.000000
v 0.774542 3.246838 -1.000000
v 1.000000 3.246838 -1.000000
v 1.000000 3.246838 1.000000
v 0.774542 3.246838 1.000000
v 0.770275 1.402213 0.923275
vt 0.1551 0.9393
vt 0.2254 0.9545
vt 0.1395 0.9527
vt 0.1617 0.9296
vt 0.2255 0.9434
vt 0.2264 0.9654
vt 0.1595 0.9842
vt 0.1439 0.9686
vt 0.2985 0.9545
vt 0.2267 0.9296
vt 0.2985 0.9448
vt 0.2983 0.9655
vt 0.2265 0.9842
vt 0.3772 0.9434
vt 0.3770 0.9296
vt 0.2987 0.9296
vt 0.3764 0.9842
vt 0.2981 0.9842
vt 0.3770 0.9661
vt 0.4702 0.9556
vt 0.3772 0.9550
vt 0.4701 0.9438
vt 0.4700 0.9674
vt 0.6872 0.9296
vt 0.4701 0.9296
vt 0.6863 0.9674
vt 0.6862 0.9559
vt 0.4695 0.9842
vt 0.7604 0.9455
vt 0.6865 0.9443
vt 0.7601 0.9296
vt 0.7602 0.9842
vt 0.6865 0.9842
vt 0.7605 0.9671
vt 0.8535 0.9567
vt 0.7606 0.9561
vt 0.8496 0.9296
vt 0.8459 0.9683
vt 0.4613 0.6575
vt 0.6153 0.8043
vt 0.4739 0.8053
vt 0.4538 0.8045
vt 0.4395 0.6598
vt 0.4755 0.8253
vt 0.6156 0.8253
vt 0.7675 0.5159
vt 0.7565 0.7919
vt 0.7469 0.5166
vt 0.7555 0.8129
vt 0.4566 0.5067
vt 0.4763 0.5021
vt 0.6117 0.5193
vt 0.7771 0.7911
vt 0.9849 0.4840
vt 0.9367 0.1967
vt 0.9849 0.0272
vt 0.6596 0.4854
vt 0.4210 0.4771
vt 0.6663 0.2865
vt 0.3463 0.2237
vt 0.0291 0.2516
vt 0.0223 0.0245
vt 0.3463 0.2237
vt 0.6596 0.4854
vt 0.6606 0.0263
vt 0.3390 0.9070
vt 0.0195 0.6687
vt 0.3390 0.6687
vt 0.7065 0.1959
vt 0.8206 0.4272
vt 0.9367 0.1967
vt 0.9367 0.4266
vt 0.7065 0.1959
vt 0.6606 0.0263
vt 0.7069 0.4278
vt 0.9367 0.4266
vt 0.7069 0.4278
vt 0.3411 0.0302
vt 0.3382 0.4772
vt 0.0195 0.4784
vt 0.0195 0.5489
vt 0.3390 0.5849
vt 0.3390 0.5489
vt 0.3750 0.5492
vt 0.3382 0.4772
vt 0.3750 0.5492
vt 0.4210 0.4771
vt 0.3411 0.0302
vt 0.8419 0.9842
vt 0.0195 0.9070
vt 0.0195 0.5849
vt 0.3390 0.5489
vn 0.4816 0.8643 -0.1450
vn 0.6538 -0.0605 0.7542
vn 0.8297 -0.2996 0.4709
vn -0.8972 0.0975 -0.4306
vn 0.5354 0.8111 -0.2353
vn -0.3004 -0.8221 0.4836
vn -0.0857 -0.9385 0.3345
vn 0.1791 0.3954 0.9009
vn -0.7203 -0.0996 -0.6865
vn 0.6676 0.6651 -0.3346
vn -0.6157 -0.5628 0.5515
vn 0.7898 0.5763 -0.2098
vn 0.1194 -0.8255 -0.5516
vn -0.2554 -0.4713 -0.8442
vn -0.8552 -0.3340 0.3963
vn -0.3989 0.9053 0.1458
vn -0.2455 0.7590 0.6030
vn 0.8946 0.4394 -0.0811
vn -0.9410 -0.3224 0.1028
vn 0.4051 -0.8997 0.1626
vn 0.3236 -0.9369 -0.1320
vn -0.9536 -0.2961 0.0532
vn -0.3472 0.9207 -0.1782
vn 0.8556 0.3442 -0.3865
vn 0.8974 0.4327 -0.0862
vn 0.4669 -0.6040 0.6459
vn -0.9843 -0.1211 0.1284
vn -0.1520 0.2062 -0.9666
vn -0.3206 0.6392 -0.6990
vn 0.9458 -0.2684 0.1826
vn -0.9010 -0.1979 0.3860
vn -0.7399 -0.0570 -0.6703
vn -0.6852 0.7228 -0.0899
vn -0.6997 0.4410 -0.5620
vn -0.0843 0.5524 -0.8293
vn -0.1164 -0.1642 -0.9795
vn 0.0000 0.9844 -0.1757
vn 0.1164 0.1745 0.9777
vn -0.5519 0.6685 0.4985
vn -0.6431 0.1614 0.7485
vn 0.0789 0.8426 0.5327
vn -0.1163 -0.1343 -0.9841
vn -0.8368 0.2069 -0.5069
vn -0.9850 0.1435 0.0956
vn -0.5722 0.5731 0.5866
vn -0.9969 0.0603 -0.0508
vn -0.6982 0.0167 0.7157
vn -0.5767 0.5632 -0.5918
vn -0.2763 0.4892 -0.8272
vn -0.6993 0.0051 -0.7148
vn 0.6986 0.0058 -0.7155
vn 0.6456 -0.0067 0.7637
vn 0.7050 0.1170 0.6995
vn -0.2706 0.4590 0.8462
vn -0.9931 0.1167 0.0000
vn -0.9975 0.0660 0.0257
vn -0.9887 0.0000 -0.1496
vn -0.7106 0.0061 -0.7036
vn -0.9903 -0.0062 0.1386
vn 0.7207 -0.0188 -0.6930
vn 0.7123 0.0072 -0.7018
vn 0.7057 -0.0527 0.7065
vn 0.5773 0.5773 0.5773
vn -0.3794 0.6927 -0.6133
vn 0.5773 0.5773 -0.5773
vn -0.3794 0.6927 0.6133
usemtl Wash
s 1
f 1/1/1 8/2/2 4/3/3
f 2/4/4 5/5/5 1/1/1
f 7/6/6 2/7/4 3/8/7
f 8/2/2 3/8/7 4/3/3
f 5/5/5 12/9/8 8/2/2
f 6/10/9 9/11/10 5/5/5
f 11/12/11 6/13/9 7/6/6
f 12/9/8 7/6/6 8/2/2
f 13/14/12 12/9/8 9/11/10
f 14/15/13 9/11/10 10/16/14
f 11/12/11 14/17/13 10/18/14
f 12/9/8 15/19/15 11/12/11
f 13/14/12 20/20/16 16/21/17
f 14/15/13 17/22/18 13/14/12
f 19/23/19 14/17/13 15/19/15
f 20/20/16 15/19/15 16/21/17
f 2/4/4 6/10/9 5/5/5
f 1/1/1 5/5/5 8/2/2
f 22/24/20 17/22/18 18/25/21
f 23/26/22 20/20/16 24/27/23
f 7/6/6 6/13/9 2/7/4
f 8/2/2 7/6/6 3/8/7
f 23/26/22 18/28/21 19/23/19
f 17/22/18 24/27/23 20/20/16
f 25/29/24 24/27/23 21/30/25
f 26/31/26 21/30/25 22/24/20
f 23/26/22 26/32/26 22/33/20
f 24/27/23 27/34/27 23/26/22
f 25/29/24 31/35/28 28/36/29
f 26/31/26 29/37/30 25/29/24
f 30/38/31 26/32/26 27/34/27
f 31/35/28 27/34/27 28/36/29
f 42/39/32 41/40/33 35/41/34
f 42/39/32 39/42/35 43/43/36
f 39/44/35 41/40/33 44/45/37
f 36/46/38 33/47/39 32/48/40
f 44/45/37 33/47/39 37/49/41
f 42/39/32 38/50/42 34/51/43
f 40/52/44 41/40/33 42/39/32
f 40/52/44 42/39/32 34/51/43
f 32/48/40 41/40/33 40/52/44
f 42/39/32 35/41/34 39/42/35
f 39/44/35 35/41/34 41/40/33
f 36/46/38 37/53/41 33/47/39
f 44/45/37 41/40/33 33/47/39
f 42/39/32 43/43/36 38/50/42
f 32/48/40 33/47/39 41/40/33
f 46/54/45 54/55/46 45/56/47
f 48/57/48 60/58/49 58/59/50
f 59/60/51 66/61/52 49/62/53
f 66/63/52 46/64/45 45/65/47
f 48/66/48 61/67/54 60/68/49
f 54/69/46 57/70/55 53/71/56
f 48/57/48 55/72/57 46/54/45
f 45/56/47 53/73/56 47/74/58
f 58/59/50 53/73/56 56/75/59
f 53/71/56 57/70/55 56/76/59
f 55/77/57 57/70/55 54/69/46
f 47/74/58 59/60/51 51/78/60
f 56/75/59 48/57/48 58/59/50
f 58/59/50 47/74/58 53/73/56
f 49/62/53 51/78/60 59/60/51
f 59/60/51 52/79/61 50/80/62
f 52/79/61 64/81/63 50/80/62
f 62/82/64 64/81/63 63/83/65
f 61/67/54 62/82/64 60/68/49
f 52/79/61 62/84/64 63/83/65
f 50/85/62 65/86/66 61/87/54
f 59/60/51 50/80/62 66/61/52
f 45/65/47 49/88/53 66/63/52
f 66/63/52 50/85/62 61/87/54
f 61/87/54 46/64/45 66/63/52
f 5/5/5 9/11/10 12/9/8
f 6/10/9 10/16/14 9/11/10
f 11/12/11 10/18/14 6/13/9
f 12/9/8 11/12/11 7/6/6
f 13/14/12 16/21/17 12/9/8
f 14/15/13 13/14/12 9/11/10
f 11/12/11 15/19/15 14/17/13
f 12/9/8 16/21/17 15/19/15
f 13/14/12 17/22/18 20/20/16
f 14/15/13 18/25/21 17/22/18
f 19/23/19 18/28/21 14/17/13
f 20/20/16 19/23/19 15/19/15
f 22/24/20 21/30/25 17/22/18
f 23/26/22 19/23/19 20/20/16
f 23/26/22 22/33/20 18/28/21
f 17/22/18 21/30/25 24/27/23
f 25/29/24 28/36/29 24/27/23
f 26/31/26 25/29/24 21/30/25
f 23/26/22 27/34/27 26/32/26
f 24/27/23 28/36/29 27/34/27
f 25/29/24 29/37/30 31/35/28
f 30/38/31 29/89/30 26/32/26
f 31/35/28 30/38/31 27/34/27
f 46/54/45 55/72/57 54/55/46
f 59/60/51 58/59/50 60/58/49
f 60/58/49 52/79/61 59/60/51
f 48/66/48 46/90/45 61/67/54
f 48/57/48 56/75/59 55/72/57
f 45/56/47 54/55/46 53/73/56
f 47/74/58 58/59/50 59/60/51
f 52/79/61 63/83/65 64/81/63
f 62/82/64 65/91/66 64/81/63
f 61/67/54 65/91/66 62/82/64
f 52/79/61 60/58/49 62/84/64
f 50/85/62 64/92/63 65/86/66
