# Blender v2.76 (sub 0) OBJ File: ''
# www.blender.org
mtllib Pole.mtl
o Pole
v 4.426262 21.460106 -5.517931
v 4.601202 21.516556 -5.162618
v 0.971176 -0.102071 0.059307
v 4.382143 21.629457 -4.847492
v 0.752117 0.010829 0.374435
v 3.988140 21.685907 -4.887679
v 0.358114 0.067279 0.334247
v 3.813198 21.629457 -5.242993
v 4.032259 21.516556 -5.558120
v 0.796236 -0.158522 -0.296006
v 0.402233 -0.102071 -0.336193
v 2.604525 20.605783 -1.964586
v 2.462685 19.761057 -1.760545
v 5.910870 17.983908 -6.720891
v 5.634680 19.486380 -6.323581
v 5.539968 19.209908 -6.187335
v 5.798838 19.076490 -6.559728
v 3.115791 20.784580 -2.700064
v 3.021080 20.508110 -2.563818
v 3.279949 20.374691 -2.936210
v 6.034460 17.994678 -6.323581
v 6.204445 17.907070 -6.568109
v 6.034460 14.762626 -5.954132
v 6.204445 14.675017 -6.198658
v 5.836292 11.051999 -4.898418
v 6.006277 10.964391 -5.142945
v 5.450539 4.764193 -4.206500
v 5.620523 4.676584 -4.451028
v 5.426609 -0.968482 -3.660816
v 5.596594 -1.056090 -3.905343
v 0.183174 0.010829 -0.021066
v 6.052710 18.828634 -6.924933
v 5.804665 19.398771 -6.568109
v 3.285776 20.696972 -2.944591
vt 0.773550 0.000000
vt 0.581402 0.000000
vt 0.581402 1.000000
vt 0.197106 0.000000
vt 0.197106 1.000000
vt 0.004961 0.000000
vt 0.004961 1.000000
vt 0.773550 1.000000
vt 0.808213 0.162691
vt 0.970326 0.162691
vt 0.970326 0.363482
vt 0.804459 0.897109
vt 0.834217 0.889521
vt 0.834191 0.918483
vt 0.809342 0.920668
vt 0.809330 0.934119
vt 0.808213 0.363482
vt 0.804447 0.910560
vn 0.547600 -0.282200 -0.787700
vn 0.984900 -0.141100 0.100400
vn 0.437300 0.141100 0.888100
vn -0.547600 0.282200 0.787700
vn -0.984900 0.141100 -0.100400
vn -0.437300 -0.141100 -0.888100
vn 0.821100 0.000000 0.570800
vn 0.832300 0.086900 0.547400
vn 0.836400 0.159000 0.524500
vn 0.835200 0.127000 0.535100
vn 0.832100 0.084800 0.548100
vn 0.832400 0.088000 0.547100
vn 0.830000 0.063800 0.554100
vn 0.829300 0.057900 0.555700
vn 0.825500 0.028600 0.563600
vn 0.826100 0.033000 0.562500
vn 0.828300 0.049700 0.558000
vn 0.834700 0.117900 0.538000
usemtl Pole
s 1
f 1/1/1 2/2/2 3/3/2
f 3/3/2 2/2/2 4/4/3
f 5/5/3 4/4/3 6/6/4
f 7/7/4 6/6/4 8/4/5
f 9/2/6 1/1/1 10/8/1
f 8/4/5 9/2/6 11/3/6
f 12/9/7 13/10/7 14/11/7
f 15/12/8 16/13/7 17/14/7
f 18/12/7 19/13/7 20/14/7
f 15/15/8 21/15/9 22/16/10
f 21/15/9 23/15/11 24/16/12
f 23/15/11 25/15/13 26/16/14
f 25/15/13 27/15/15 28/16/16
f 27/15/15 29/15/17 30/16/17
f 10/8/1 1/1/1 3/3/2
f 5/5/3 3/3/2 4/4/3
f 7/7/4 5/5/3 6/6/4
f 31/5/5 7/7/4 8/4/5
f 11/3/6 9/2/6 10/8/1
f 31/5/5 8/4/5 11/3/6
f 32/17/7 12/9/7 14/11/7
f 33/18/18 15/12/8 17/14/7
f 34/18/7 18/12/7 20/14/7
f 33/16/18 15/15/8 22/16/10
f 22/16/10 21/15/9 24/16/12
f 24/16/12 23/15/11 26/16/14
f 26/16/14 25/15/13 28/16/16
f 28/16/16 27/15/15 30/16/17
