# Blender v2.76 (sub 0) OBJ File: 'untitled.blend'
# www.blender.org
mtllib Part00.mtl
o Part00
v -0.071571 1.082954 0.254547
v -0.059468 1.027308 0.296520
v -0.020992 0.645905 0.577960
v -0.026732 0.742043 0.437318
v -0.017043 0.731218 0.490815
v -0.080808 1.030266 0.283932
v -0.098684 1.102786 0.285129
v -0.090360 1.064518 0.313930
v -0.087199 1.075930 0.248338
v -0.093332 1.115885 0.162221
v -0.105296 1.136062 0.245461
v -0.092674 1.099453 0.214838
v -0.111610 1.173101 -0.334558
v -0.048316 0.645209 -0.345017
v 0.063888 0.544024 -0.364872
v 0.048195 0.612348 0.585676
v 0.063888 0.537581 0.600264
v 0.008962 0.674237 -0.362944
v 0.024656 0.001145 0.553085
v 0.024656 0.022285 -0.372597
v -0.068856 1.064518 0.313930
v -0.084497 1.147446 -0.308854
v 0.004461 0.731218 0.490815
v 0.001811 0.743893 0.446371
v 0.001811 0.754987 -0.302893
v -0.077181 1.102786 0.285129
v -0.083792 1.136062 0.245461
v -0.108205 1.150075 0.192343
v -0.086701 1.150075 0.192343
v -0.090113 1.173101 -0.334558
v -0.042653 0.755520 -0.294406
v -0.081908 1.129048 0.158246
v -0.077048 1.109988 0.219275
v -0.106151 1.134409 -0.295277
v 0.048189 0.610712 -0.363885
v 0.063888 0.277297 -0.370637
v -0.020998 0.022285 -0.372597
v -0.048843 0.279735 -0.344050
v -0.037450 0.519721 0.581616
v 0.008962 0.682896 0.559735
v -0.013645 0.714923 0.547958
v 0.007859 0.714923 0.547958
v -0.038913 0.280598 0.574143
v 0.063888 0.262945 0.598676
v -0.008922 0.001145 0.553085
v -0.032269 0.728398 -0.362143
v -0.035386 0.742116 -0.331572
v 0.007859 0.728398 -0.362143
v 0.004742 0.742116 -0.331572
vt 0.055731 0.993747
vt 0.014422 0.951552
vt 0.009180 0.925648
vt 0.505384 0.724501
vt 0.488834 0.744282
vt 0.510007 0.768841
vt 0.528515 0.751823
vt 0.603534 0.788280
vt 0.560764 0.776909
vt 0.551957 0.796506
vt 0.338736 0.408231
vt 0.328960 0.358126
vt 0.975754 0.362443
vt 0.233031 0.547307
vt 0.357689 0.533485
vt 0.367925 0.981703
vt 0.122629 0.863641
vt 0.140704 0.782995
vt 0.071128 0.785828
vt 0.177324 0.679598
vt 0.178265 0.667485
vt 0.189810 0.666956
vt 0.202339 0.738251
vt 0.205197 0.823991
vt 0.148915 0.834025
vt 0.520849 0.711257
vt 0.532516 0.686320
vt 0.560645 0.723612
vt 0.402308 0.487893
vt 0.432093 0.496387
vt 0.926424 0.512779
vt 0.934218 0.503822
vt 0.929114 0.758095
vt 0.938213 0.766832
vt 0.625182 0.754502
vt 0.540952 0.688302
vt 0.564806 0.718904
vt 0.597999 0.808275
vt 0.958220 0.822388
vt 0.955949 0.801204
vt 0.996609 0.502866
vt 0.973138 0.503386
vt 0.973157 0.785719
vt 0.997409 0.789413
vt 0.009145 0.553349
vt 0.015787 0.538547
vt 0.056068 0.546839
vt 0.002655 0.571345
vt 0.975092 0.407135
vt 0.360577 -0.001371
vt 0.980931 0.012796
vt 0.979617 0.183694
vt 0.330024 0.174076
vt 0.364013 0.476973
vt 0.973925 0.486003
vt 0.953437 0.495196
vt 0.955438 0.784024
vt 0.232613 0.991899
vt 0.116829 0.995518
vt 0.393087 0.502743
vt 0.358288 0.492396
vt 0.540150 0.736902
vt 0.566734 0.759202
vt 0.602331 0.768593
vt 0.587256 0.734669
vt 0.622518 0.745681
vt 0.584283 0.741729
vt 0.139510 0.675066
vt 0.102559 0.667387
vt 0.081571 0.687249
vt 0.074658 0.707589
vt 0.101268 0.651102
vt 0.125065 0.650297
vt 0.092007 0.864676
vt 0.155487 0.707186
vt 0.192779 0.693037
vt 0.146878 0.735183
vt 0.174087 0.925221
vt 0.192116 0.924396
vt 0.991204 0.493404
vt 0.991630 0.493787
vt 0.368706 0.516736
vt 0.022312 0.979220
vt 0.446760 0.506977
vt 0.974462 0.449707
vt 0.356121 0.455510
vn -0.625000 0.258800 0.736400
vn -0.681100 0.539100 0.495400
vn -0.957200 0.200000 -0.208900
vn -0.484600 -0.556900 -0.674600
vn -0.733700 0.249600 0.632000
vn -0.758000 0.372900 0.535100
vn -0.388900 -0.706200 -0.591600
vn -0.206000 -0.964300 -0.166100
vn -0.377700 -0.830000 -0.410300
vn -0.757300 0.555900 0.342600
vn 0.633100 0.349500 0.690600
vn 0.634000 0.133000 0.761800
vn 0.663200 0.088300 -0.743200
vn -0.803600 -0.007600 -0.595100
vn -0.687500 -0.050200 -0.724400
vn -0.684500 -0.127700 0.717700
vn 0.644800 -0.025200 -0.763900
vn 0.608800 0.456600 0.648700
vn 0.608300 0.589800 0.531100
vn -0.541200 0.628700 0.558300
vn -0.761600 0.059900 0.645300
vn -0.784600 -0.075600 0.615300
vn 0.615800 -0.120400 0.778600
vn 0.624400 0.507500 0.593800
vn 0.877700 -0.095500 -0.469600
vn 0.918700 -0.174600 -0.354300
vn 0.741500 0.588200 0.322700
vn 0.928000 0.320700 -0.189300
vn -0.894100 0.353300 0.275300
vn 0.867200 0.435000 0.242500
vn -0.713400 -0.575800 0.399300
vn 0.981900 0.043900 0.184000
vn 0.971400 -0.228700 -0.063100
vn -0.807000 0.580900 0.105800
vn -0.625000 0.545500 -0.558400
vn -0.756400 0.297900 -0.582300
vn -0.490600 0.408800 -0.769500
vn -0.797900 -0.007500 -0.602600
vn 0.611000 0.273000 -0.743000
vn 0.674800 -0.170800 0.717900
vn 0.668400 -0.097200 -0.737400
vn 0.582800 0.412300 -0.700200
vn 0.798200 0.463100 -0.385300
vn 0.502500 0.640400 -0.580800
vn 0.607000 0.605800 0.514400
vn 0.576700 0.745100 0.334800
vn 0.600500 0.792800 0.103700
vn 0.949100 -0.219900 -0.225400
vn 0.471400 0.164900 -0.866400
usemtl Part00
s 1
f 3/1/1 5/2/2 4/3/3
f 6/4/4 8/5/5 7/6/6
f 7/6/6 9/7/7 6/4/4
f 10/8/8 12/9/9 11/10/10
f 16/11/11 17/12/12 15/13/13
f 38/14/14 37/15/15 45/16/16
f 37/17/15 38/18/14 36/19/17
f 40/20/18 42/21/19 41/22/20
f 39/23/21 43/24/22 44/25/23
f 12/9/9 9/7/7 7/6/6
f 7/6/6 11/10/10 12/9/9
f 21/26/24 2/27/25 1/28/26
f 2/27/25 21/26/24 23/29/27
f 24/30/28 2/27/25 23/29/27
f 31/31/29 25/32/30 34/33/31
f 34/33/31 25/32/30 22/34/32
f 34/33/31 22/34/32 32/35/33
f 6/36/4 9/37/7 1/28/26
f 1/28/26 2/27/25 6/36/4
f 11/10/10 28/38/34 10/8/8
f 13/39/35 34/40/31 10/8/8
f 10/8/8 28/38/34 13/39/35
f 47/41/36 31/42/29 34/43/31
f 34/43/31 13/44/35 47/41/36
f 47/45/36 46/46/37 14/47/38
f 14/47/38 31/48/29 47/45/36
f 15/13/13 35/49/39 16/11/11
f 19/50/40 20/51/41 36/52/17
f 36/52/17 44/53/23 19/50/40
f 44/53/23 36/52/17 15/13/13
f 15/13/13 17/12/12 44/53/23
f 23/29/27 42/54/19 48/55/42
f 24/30/28 23/29/27 48/55/42
f 24/30/28 48/55/42 49/56/43
f 25/32/30 24/30/28 49/56/43
f 22/34/32 25/32/30 49/56/43
f 22/34/32 49/56/43 30/57/44
f 38/14/14 43/58/22 39/59/21
f 23/29/27 21/26/24 8/4/5
f 8/4/5 5/60/2 23/29/27
f 42/54/19 23/29/27 5/60/2
f 5/60/2 41/61/20 42/54/19
f 21/26/24 26/62/45 7/7/6
f 7/7/6 8/4/5 21/26/24
f 26/62/45 27/63/46 11/9/10
f 11/9/10 7/7/6 26/62/45
f 27/63/46 29/64/47 28/8/34
f 28/8/34 11/9/10 27/63/46
f 29/64/47 30/57/44 13/40/35
f 13/40/35 28/8/34 29/64/47
f 12/65/9 10/66/8 32/35/33
f 32/35/33 33/67/48 12/65/9
f 14/68/38 18/69/49 35/70/39
f 35/70/39 15/71/13 14/68/38
f 48/72/42 18/69/49 14/68/38
f 14/68/38 46/73/37 48/72/42
f 36/19/17 20/74/41 37/17/15
f 16/75/11 3/76/1 39/23/21
f 39/23/21 17/77/12 16/75/11
f 3/76/1 16/75/11 40/20/18
f 3/76/1 40/20/18 41/22/20
f 19/78/40 44/25/23 43/24/22
f 43/24/22 45/79/16 19/78/40
f 44/25/23 17/77/12 39/23/21
f 46/80/37 47/42/36 49/56/43
f 49/56/43 48/55/42 46/81/37
f 30/57/44 49/56/43 47/42/36
f 47/42/36 13/43/35 30/57/44
f 3/1/1 4/3/3 31/48/29
f 31/48/29 14/47/38 39/59/21
f 15/71/13 36/19/17 38/18/14
f 38/18/14 14/68/38 15/71/13
f 6/4/4 4/60/3 5/82/2
f 5/82/2 8/5/5 6/4/4
f 3/1/1 41/83/20 5/2/2
f 2/27/25 24/30/28 4/84/3
f 4/84/3 6/36/4 2/27/25
f 18/85/49 48/55/42 42/54/19
f 42/54/19 40/86/18 18/85/49
f 35/49/39 18/85/49 40/86/18
f 40/86/18 16/11/11 35/49/39
f 1/28/26 26/62/45 21/26/24
f 32/35/33 29/64/47 27/63/46
f 27/63/46 33/67/48 32/35/33
f 32/35/33 22/34/32 30/57/44
f 30/57/44 29/64/47 32/35/33
f 32/35/33 10/66/8 34/33/31
f 25/32/30 31/31/29 4/84/3
f 26/62/45 1/28/26 33/67/48
f 33/67/48 27/63/46 26/62/45
f 1/28/26 9/37/7 12/65/9
f 12/65/9 33/67/48 1/28/26
f 43/58/22 38/14/14 45/16/16
f 14/47/38 38/14/14 39/59/21
f 3/1/1 31/48/29 39/59/21
f 24/30/28 25/32/30 4/84/3
