# Blender v2.76 (sub 0) OBJ File: ''
# www.blender.org
mtllib Part01.mtl
o Part01
v 7.557026 0.216506 2.125000
v 7.557026 0.216506 1.875000
v 7.557026 0.000000 1.750000
v 7.557026 -0.216506 1.875000
v 7.557026 -0.216506 2.125000
v 7.557026 -0.000000 2.250000
v 3.862251 0.216506 2.119164
v 3.937749 0.216506 1.880836
v 3.975499 0.000000 1.761673
v 3.937749 -0.216506 1.880836
v 3.862251 -0.216506 2.119164
v 3.824501 -0.000000 2.238328
v 3.070287 0.216506 1.564512
v 3.257166 0.216506 1.398451
v 3.350605 0.000000 1.315421
v 3.257166 -0.216506 1.398451
v 3.070287 -0.216506 1.564512
v 2.976847 -0.000000 1.647542
v 2.549712 0.216506 0.601748
v 2.736237 0.216506 0.435289
v 2.829499 0.000000 0.352060
v 2.736237 -0.216506 0.435289
v 2.549712 -0.216506 0.601748
v 2.456449 -0.000000 0.684977
v 1.862504 0.216506 0.119244
v 1.937496 0.216506 -0.119244
v 1.974991 0.000000 -0.238488
v 1.937496 -0.216506 -0.119244
v 1.862504 -0.216506 0.119244
v 1.825009 -0.000000 0.238487
v -3.118731 0.215695 0.125000
v -3.118731 0.215695 -0.125000
v -3.100000 0.000000 -0.250000
v -3.081269 -0.215695 -0.125000
v -3.081269 -0.215695 0.125000
v -3.100000 0.000000 0.250000
v -3.763081 0.076952 0.125000
v -3.763081 0.076952 -0.125000
v -3.698281 -0.129630 -0.250000
v -3.633481 -0.336211 -0.125000
v -3.633481 -0.336211 0.125000
v -3.698281 -0.129630 0.250000
v -4.424059 -0.163789 0.125000
v -4.424059 -0.163789 -0.125000
v -4.359259 -0.370370 -0.250000
v -4.294459 -0.576952 -0.125000
v -4.294459 -0.576952 0.125000
v -4.359259 -0.370370 0.250000
v -5.100000 -0.183494 0.125000
v -5.100000 -0.183494 -0.125000
v -5.100000 -0.400000 -0.250000
v -5.100000 -0.616506 -0.125000
v -5.100000 -0.616506 0.125000
v -5.100000 -0.400000 0.250000
v -2.500000 -0.162340 -0.900000
v 1.500000 -0.162339 -0.900000
v -2.500000 -0.380423 -0.416365
v 1.500000 -0.380423 -0.416365
v -2.500000 -0.380423 0.416365
v 1.500000 -0.380423 0.416365
v -2.500000 -0.162340 0.900000
v 1.500000 -0.162339 0.900000
v -2.500000 0.362339 -0.900000
v 1.500000 0.362340 -0.900000
v 1.500000 0.362340 0.900000
v -2.500000 0.362339 0.900000
v -2.500000 0.580422 0.416365
v 1.500000 0.580423 0.416365
v -2.500000 0.580422 -0.416365
v 1.500000 0.580423 -0.416365
vt 0.515545 0.995741
vt 0.515545 0.931147
vt 0.036151 0.931147
vt 0.036151 0.995741
vt 0.515545 0.866039
vt 0.036151 0.801064
vt 0.515545 0.801064
vt 0.036151 0.866462
vt 0.515545 0.866462
vt 0.515545 0.802507
vt 0.628546 0.995741
vt 0.628546 0.931147
vt 0.628546 0.866039
vt 0.628546 0.801064
vt 0.628546 0.866462
vt 0.628546 0.802507
vt 0.771378 0.995741
vt 0.771378 0.931147
vt 0.771378 0.866039
vt 0.771378 0.801064
vt 0.771378 0.866462
vt 0.771378 0.802507
vt 0.886280 0.995741
vt 0.881196 0.931147
vt 0.897102 0.931147
vt 0.902435 0.866039
vt 0.896817 0.801064
vt 0.887740 0.866462
vt 0.900130 0.802507
vt 0.273523 0.802507
vt 0.902435 0.802507
vt 0.902435 0.866928
vt 0.902435 0.930890
vt 0.273523 0.930890
vt 0.273523 0.866928
vt 0.902435 0.995224
vt 0.273523 0.995224
vt 0.273523 0.930095
vt 0.273523 0.865759
vt 0.902435 0.930095
vt 0.902435 0.801064
vt 0.273523 0.801064
vt 0.196589 0.995224
vt 0.196589 0.930890
vt 0.196589 0.930095
vt 0.196589 0.865759
vt 0.196589 0.801064
vt 0.196589 0.866928
vt 0.196589 0.802507
vt 0.103884 0.995224
vt 0.103884 0.930890
vt 0.103884 0.930095
vt 0.103884 0.865759
vt 0.103884 0.801064
vt 0.103884 0.866928
vt 0.103884 0.802507
vt 0.004615 0.995224
vt 0.004615 0.930890
vt 0.004615 0.930095
vt 0.004615 0.865759
vt 0.004615 0.801064
vt 0.004615 0.866928
vt 0.004615 0.802507
vt 0.777250 0.178627
vt 0.777250 0.434908
vt 0.161730 0.434908
vt 0.777250 0.015351
vt 0.161730 0.178628
vt 0.777250 0.598184
vt 0.161730 0.598184
vt 0.161730 0.015351
vt 0.777250 0.759659
vt 0.161730 0.759659
vt 0.128172 0.583751
vt 0.013876 0.434907
vt 0.925104 0.434908
vt 0.036151 0.866039
vt 0.036151 0.802507
vt 0.902435 0.865759
vt 0.047434 0.029784
vt 0.128172 0.029784
vt 0.047434 0.583751
vt 0.013876 0.178627
vt 0.891546 0.029784
vt 0.925104 0.178627
vt 0.891546 0.583752
vt 0.810808 0.583752
vt 0.810808 0.029784
vn -0.170300 0.824900 0.539100
vn -0.301200 0.000000 0.953600
vn -0.001600 0.000000 1.000000
vn 0.126900 0.907900 -0.399600
vn -0.000800 0.865800 0.500400
vn 0.303000 0.000000 -0.953000
vn -0.001600 0.865600 -0.500700
vn -0.001600 -0.865600 -0.500700
vn 0.126900 -0.907900 -0.399600
vn -0.000800 -0.865800 0.500400
vn -0.170300 -0.824900 0.539100
vn -0.411600 0.834300 0.366800
vn -0.746600 0.000000 0.665200
vn 0.331100 0.897100 -0.292600
vn 0.749800 0.000000 -0.661600
vn 0.331100 -0.897100 -0.292600
vn -0.411600 -0.834300 0.366800
vn -0.329900 0.897400 0.292900
vn -0.748300 0.000000 0.663300
vn 0.411100 0.834000 -0.367900
vn 0.745200 0.000000 -0.666800
vn 0.411100 -0.834000 -0.367900
vn -0.329900 -0.897400 0.292900
vn -0.126300 0.907600 0.400400
vn 0.168800 0.825100 -0.539200
vn 0.298900 0.000000 -0.954300
vn 0.168800 -0.825100 -0.539200
vn -0.126300 -0.907600 0.400400
vn 0.092300 -0.851800 -0.515600
vn -0.002900 0.033700 0.999400
vn 0.092700 -0.851700 0.515700
vn -0.091700 0.869000 0.486200
vn -0.092000 0.869000 -0.486000
vn -0.003600 0.033600 -0.999400
vn -0.241700 0.837200 0.490600
vn -0.005300 0.020800 0.999800
vn -0.241700 0.837200 -0.490600
vn -0.005300 0.020800 -0.999800
vn 0.239300 -0.826600 -0.509400
vn 0.239300 -0.826600 0.509400
vn -0.158500 0.837700 0.522600
vn 0.005400 -0.048800 0.998800
vn -0.158500 0.837700 -0.522600
vn 0.005400 -0.048800 -0.998800
vn 0.175700 -0.859700 -0.479600
vn 0.175700 -0.859700 0.479600
vn -0.025100 0.863400 0.503900
vn 0.002800 -0.011000 0.999900
vn -0.025100 0.863400 -0.503900
vn 0.002800 -0.011000 -0.999900
vn 0.040700 -0.869800 -0.491700
vn 0.040700 -0.869800 0.491700
vn 0.662700 -0.732100 -0.157400
vn 0.662700 -0.732100 0.157400
vn -0.662700 -0.732100 0.157400
vn 0.603000 -0.432900 -0.670100
vn -0.662700 -0.732100 -0.157400
vn 0.603000 -0.432900 0.670100
vn -0.603000 -0.432900 0.670100
vn 0.662700 0.732100 0.157400
vn 0.662700 0.732100 -0.157400
vn -0.662700 0.732100 -0.157400
vn -0.603000 0.432900 0.670100
vn 0.603000 0.432900 0.670100
vn -0.603000 0.432900 -0.670100
vn -0.603000 -0.432900 -0.670100
vn 0.603000 0.432900 -0.670100
vn -0.003200 0.000000 -1.000000
vn -0.662700 0.732100 0.157400
usemtl Part01
s 1
f 7/1/1 12/2/2 6/3/3
f 8/2/4 7/1/1 1/4/5
f 9/5/6 8/2/4 2/3/7
f 4/6/8 10/7/9 9/5/6
f 5/8/10 11/9/11 10/10/9
f 6/3/3 12/2/2 11/9/11
f 7/1/1 13/11/12 18/12/13
f 8/2/4 14/12/14 13/11/12
f 9/5/6 15/13/15 14/12/14
f 16/14/16 15/13/15 9/5/6
f 17/15/17 16/16/16 10/10/9
f 18/12/13 17/15/17 11/9/11
f 13/11/12 19/17/18 24/18/19
f 14/12/14 20/18/20 19/17/18
f 15/13/15 21/19/21 20/18/20
f 22/20/22 21/19/21 15/13/15
f 23/21/23 22/22/22 16/16/16
f 24/18/19 23/21/23 17/15/17
f 19/17/18 25/23/24 30/24/2
f 20/18/20 26/25/25 25/23/24
f 21/19/21 27/26/26 26/25/25
f 28/27/27 27/26/26 21/19/21
f 29/28/28 28/29/27 22/22/22
f 30/24/2 29/28/28 23/21/23
f 34/30/29 28/31/27 29/32/28
f 30/33/2 36/34/30 35/35/31
f 30/33/2 25/36/24 31/37/32
f 32/38/33 31/37/32 25/36/24
f 33/39/34 32/38/33 26/40/25
f 28/41/27 34/42/29 33/39/34
f 37/43/35 42/44/36 36/34/30
f 38/45/37 37/43/35 31/37/32
f 33/39/34 39/46/38 38/45/37
f 34/42/29 40/47/39 39/46/38
f 35/35/31 41/48/40 40/49/39
f 42/44/36 41/48/40 35/35/31
f 43/50/41 48/51/42 42/44/36
f 44/52/43 43/50/41 37/43/35
f 39/46/38 45/53/44 44/52/43
f 40/47/39 46/54/45 45/53/44
f 41/48/40 47/55/46 46/56/45
f 48/51/42 47/55/46 41/48/40
f 43/50/41 49/57/47 54/58/48
f 44/52/43 50/59/49 49/57/47
f 51/60/50 50/59/49 44/52/43
f 52/61/51 51/60/50 45/53/44
f 53/62/52 52/63/51 46/56/45
f 48/51/42 54/58/48 53/62/52
f 58/64/53 60/65/54 59/66/55
f 56/67/56 58/64/53 57/68/57
f 60/65/54 62/69/58 61/70/59
f 68/64/60 70/65/61 69/66/62
f 66/71/63 65/67/64 68/64/60
f 63/70/65 69/66/62 70/65/61
f 62/69/58 65/72/64 66/73/63
f 55/73/66 63/70/65 64/69/67
f 63/74/65 57/75/57 69/66/62
f 70/65/61 68/64/60 58/76/53
f 1/4/5 7/1/1 6/3/3
f 2/3/7 8/2/4 1/4/5
f 3/77/68 9/5/6 2/3/7
f 3/77/68 4/6/8 9/5/6
f 4/78/8 5/8/10 10/10/9
f 5/8/10 6/3/3 11/9/11
f 12/2/2 7/1/1 18/12/13
f 7/1/1 8/2/4 13/11/12
f 8/2/4 9/5/6 14/12/14
f 10/7/9 16/14/16 9/5/6
f 11/9/11 17/15/17 10/10/9
f 12/2/2 18/12/13 11/9/11
f 18/12/13 13/11/12 24/18/19
f 13/11/12 14/12/14 19/17/18
f 14/12/14 15/13/15 20/18/20
f 16/14/16 22/20/22 15/13/15
f 17/15/17 23/21/23 16/16/16
f 18/12/13 24/18/19 17/15/17
f 24/18/19 19/17/18 30/24/2
f 19/17/18 20/18/20 25/23/24
f 20/18/20 21/19/21 26/25/25
f 22/20/22 28/27/27 21/19/21
f 23/21/23 29/28/28 22/22/22
f 24/18/19 30/24/2 23/21/23
f 35/35/31 34/30/29 29/32/28
f 29/32/28 30/33/2 35/35/31
f 36/34/30 30/33/2 31/37/32
f 26/40/25 32/38/33 25/36/24
f 27/79/26 33/39/34 26/40/25
f 27/79/26 28/41/27 33/39/34
f 31/37/32 37/43/35 36/34/30
f 32/38/33 38/45/37 31/37/32
f 32/38/33 33/39/34 38/45/37
f 33/39/34 34/42/29 39/46/38
f 34/30/29 35/35/31 40/49/39
f 36/34/30 42/44/36 35/35/31
f 37/43/35 43/50/41 42/44/36
f 38/45/37 44/52/43 37/43/35
f 38/45/37 39/46/38 44/52/43
f 39/46/38 40/47/39 45/53/44
f 40/49/39 41/48/40 46/56/45
f 42/44/36 48/51/42 41/48/40
f 48/51/42 43/50/41 54/58/48
f 43/50/41 44/52/43 49/57/47
f 45/53/44 51/60/50 44/52/43
f 46/54/45 52/61/51 45/53/44
f 47/55/46 53/62/52 46/56/45
f 47/55/46 48/51/42 53/62/52
f 57/68/57 58/64/53 59/66/55
f 55/71/66 56/67/56 57/68/57
f 59/66/55 60/65/54 61/70/59
f 67/68/69 68/64/60 69/66/62
f 67/68/69 66/71/63 68/64/60
f 64/69/67 63/70/65 70/65/61
f 61/70/59 62/69/58 66/73/63
f 56/72/56 55/73/66 64/69/67
f 61/80/59 66/81/63 67/68/69
f 67/68/69 69/66/62 57/75/57
f 63/74/65 55/82/66 57/75/57
f 57/75/57 59/83/55 67/68/69
f 61/80/59 67/68/69 59/83/55
f 62/84/58 60/85/54 68/64/60
f 58/76/53 56/86/56 64/87/67
f 64/87/67 70/65/61 58/76/53
f 68/64/60 65/88/64 62/84/58
f 60/85/54 58/76/53 68/64/60
