# Blender v2.76 (sub 0) OBJ File: 'untitled.blend'
# www.blender.org
mtllib Refrigerator.mtl
o Refrigerator
v 1.000000 4.000000 -1.000000
v 1.000000 0.000000 -1.000000
v 1.000000 4.000000 1.000000
v 1.000000 0.000000 1.000000
v -1.000000 4.000000 -1.000000
v -1.000000 0.000000 -1.000000
v -1.000000 4.000000 1.000000
v -1.000000 0.000000 1.000000
v -1.000000 4.100000 0.960000
v 1.000000 4.100000 0.960000
v 1.000000 4.100000 -0.960000
v -1.000000 4.100000 -0.960000
v 1.000000 4.200000 0.864000
v -1.000000 4.200000 0.864000
v 1.000000 4.200000 -0.864000
v -1.000000 4.200000 -0.864000
v -1.000000 4.000000 -0.900000
v -1.000000 0.000000 -0.900000
v -1.000000 4.000000 0.900000
v -1.000000 0.000000 0.900000
v -1.000000 4.100000 0.842800
v -1.000000 4.100000 -0.842800
v -0.900000 4.000000 -0.900000
v -0.900000 0.000000 -0.900000
v -0.900000 4.000000 0.900000
v -0.900000 0.000000 0.900000
v -0.900000 4.100000 0.842800
v -0.900000 4.100000 -0.842800
v -0.800000 4.000000 -0.900000
v -0.800000 0.100000 -0.900000
v -0.800000 4.000000 0.900000
v -0.800000 0.100000 0.900000
v -0.800000 4.100000 0.842800
v -0.800000 4.100000 -0.842800
v 1.000000 4.000000 -0.900000
v 1.000000 0.100000 -0.900000
v 1.000000 4.000000 0.900000
v 1.000000 0.100000 0.900000
v 1.000000 4.100000 0.842800
v 1.000000 4.100000 -0.842800
v 1.000000 1.999199 -0.717019
v 1.000000 2.065804 -0.627220
v 1.000000 2.984006 -0.890667
v 1.000000 3.025991 -0.796527
v -0.800000 4.100000 0.300000
v -0.800000 3.500000 0.900000
v -0.800000 3.500000 0.300000
v -0.000000 3.500000 0.900000
v -0.000000 3.500000 0.300000
v -0.000000 4.100000 0.900000
v -0.000000 4.100000 0.300000
v -0.800000 0.123245 -0.691923
v -0.800000 1.023245 0.866923
v 1.000000 0.123245 -0.691923
v 1.000000 1.023245 0.866923
v -0.800000 0.079944 -0.666923
v -0.800000 0.979944 0.891923
v 1.000000 0.979944 0.891923
v 1.000000 0.079944 -0.666923
v -0.639224 3.302867 -0.756963
v -0.771320 3.019585 0.891605
v 0.992130 2.542154 -0.756963
v 0.860034 2.258873 0.891605
v -0.660034 3.258240 -0.765037
v -0.792130 2.974958 0.883531
v 0.839224 2.214246 0.883531
v 0.971320 2.497527 -0.765037
v 0.127933 0.106455 0.715934
v -0.346902 0.406455 0.317500
v 0.127933 0.406455 0.715934
v -0.154066 0.106455 0.087686
v 0.320769 0.106455 0.486120
v -0.154066 0.406455 0.087686
v 0.320769 0.406455 0.486120
v 0.273410 0.256455 0.838003
v 0.466246 0.256455 0.608190
v 0.075300 2.775661 0.185164
v -0.125008 3.281385 -0.237136
v 0.201488 3.043586 0.233044
v -0.029598 2.942961 -0.474551
v 0.296899 2.705162 -0.004371
v 0.096591 3.210886 -0.426672
v 0.423088 2.973088 0.043509
v 0.238424 2.836768 0.353155
v 0.460023 2.766270 0.163620
vt 0.042125 0.683870
vt 0.025684 0.683870
vt 0.025684 0.667430
vt 0.042124 0.667430
vt 0.042124 0.009814
vt 0.370932 0.009814
vt 0.370932 0.338490
vt 0.025684 0.700311
vt 0.025684 0.980792
vt 0.025684 0.703794
vt 0.042124 0.700311
vt 0.370932 0.683870
vt 0.370932 0.667430
vt 0.370932 0.984276
vt 0.042124 0.984276
vt 0.703467 0.686292
vt 0.408777 0.669383
vt 0.713139 0.669383
vt 0.370932 0.700311
vt 0.025684 0.009814
vt 0.009243 0.009814
vt 0.009243 0.667430
vt 0.009243 0.683870
vt 0.009243 0.980792
vt 0.009243 0.703794
vt 0.996039 0.009968
vt 0.719865 0.623687
vt 0.996039 0.623687
vt 0.713139 0.686293
vt 0.408777 0.686293
vt 0.713139 0.009932
vt 0.408777 0.009932
vt 0.713139 0.342330
vt 0.408777 0.980982
vt 0.713139 0.980982
vt 0.713139 0.695965
vt 0.387372 0.026254
vt 0.387372 0.667430
vt 0.387372 0.703794
vt 0.387372 0.980792
vt 0.387372 0.683870
vt 0.387372 0.507299
vt 0.713139 0.990654
vt 0.370932 0.336983
vt 0.387291 0.026172
vt 0.387372 0.349440
vt 0.370932 0.500396
vt 0.713139 0.504689
vt 0.822817 0.989113
vt 0.822817 0.913541
vt 0.722054 0.913541
vt 0.898389 0.913541
vt 0.898389 0.989113
vt 0.722054 0.989113
vt 0.991463 0.643811
vt 0.728220 0.643811
vt 0.728221 0.907053
vt 0.720908 0.643811
vt 0.991463 0.907053
vt 0.728221 0.907047
vt 0.728226 0.661656
vt 0.720926 0.907228
vt 0.720931 0.661837
vt 0.944998 0.973228
vt 0.944998 0.909353
vt 0.975913 0.909353
vt 0.929541 0.992797
vt 0.914084 0.973228
vt 0.914084 0.909353
vt 0.975913 0.973228
vt 0.975913 0.998166
vt 0.944998 0.998166
vt 0.418449 0.686292
vt 0.987263 0.639030
vt 0.719865 0.009968
vt 0.728641 0.639030
vt 0.408777 0.695965
vt 0.408777 0.990654
vt 0.387291 0.320624
vt 0.720908 0.907053
vt 0.991468 0.661662
vn -0.666500 0.404000 0.626500
vn -0.839100 -0.470500 -0.272900
vn -0.769700 -0.163900 -0.616900
vn -0.666900 0.140900 0.731700
vn -0.707100 0.000000 0.707100
vn 0.707100 0.000000 0.707100
vn 0.763400 -0.005400 -0.645900
vn 0.673200 0.103600 -0.732100
vn -0.681200 0.051700 -0.730200
vn -0.666500 0.404000 -0.626500
vn -0.839100 -0.470500 0.272900
vn -0.628600 0.715400 -0.304900
vn -0.628600 0.715400 0.304900
vn -0.656000 0.117700 -0.745500
vn 0.666500 0.404000 -0.626500
vn 0.666900 0.140900 0.731700
vn 0.666500 0.404000 0.626500
vn 0.628600 0.715400 -0.304900
vn 0.609700 -0.685600 0.397700
vn 0.653600 -0.194400 -0.731400
vn 0.642800 -0.170900 0.746700
vn 0.628600 0.715400 0.304900
vn -0.769700 -0.163900 0.616900
vn -0.707100 0.000000 -0.707100
vn -0.653600 -0.194400 0.731400
vn -0.609700 -0.685600 0.397700
vn -0.653600 -0.194400 -0.731400
vn -0.609700 -0.685600 -0.397700
vn 0.783300 -0.127700 0.608300
vn 0.839100 -0.470500 0.272900
vn 0.609700 -0.685600 -0.397700
vn 0.839100 -0.470500 -0.272900
vn 0.769700 -0.164000 -0.616900
vn 0.904500 0.301500 -0.301500
vn 0.563700 0.562600 0.604700
vn 0.646200 0.006900 0.763100
vn 0.656600 0.102700 -0.747200
vn 0.723400 0.103900 0.682500
vn 0.577300 0.577300 -0.577300
vn 0.920200 0.257000 0.295200
vn 0.691500 -0.108600 -0.714100
vn 0.577300 -0.577300 -0.577300
vn 0.707100 -0.707100 0.000000
vn 0.000000 -1.000000 0.000000
vn 0.707100 0.000000 -0.707100
vn 1.000000 0.000000 0.000000
vn 0.000000 -0.707100 -0.707100
vn 0.000000 0.866000 -0.500000
vn 0.707100 0.612400 -0.353500
vn 0.707100 -0.612400 0.353500
vn 0.000000 -0.866000 0.500000
vn 0.415200 0.890400 0.186300
vn 0.937100 0.323500 0.130700
vn 0.931600 0.338200 0.132800
vn 0.354600 -0.925800 -0.130700
vn 0.339800 -0.931100 -0.132800
vn -0.415200 -0.890400 -0.186300
vn 0.604500 0.725700 -0.328400
vn 0.454500 0.707100 -0.541700
vn 0.000000 1.000000 0.000000
vn 0.995300 0.000000 0.096300
vn 0.797100 -0.420700 -0.433000
vn 0.642800 0.000000 -0.766000
vn 0.766000 0.000000 0.642800
vn 0.251300 0.944600 0.210900
vn 0.570100 0.717800 0.399600
vn 0.910900 0.401000 -0.097400
vn 0.819700 0.465300 -0.333900
vn 0.621600 -0.701600 -0.348400
vn 0.738600 -0.235000 -0.631800
vn 0.852300 -0.449300 0.267700
vn 0.526700 -0.383600 0.758500
vn 0.000000 0.000000 -1.000000
vn 0.474800 -0.784700 0.398400
vn 0.420600 0.893100 0.159600
vn -0.003600 -0.938600 0.344900
usemtl Refrigerator
s 1
f 9/1/1 21/2/2 19/3/3
f 7/4/4 8/5/5 4/6/6
f 41/7/7 2/6/8 6/5/9
f 12/1/10 22/2/11 16/8/12
f 22/9/11 21/10/2 14/11/13
f 5/4/14 12/1/10 11/12/15
f 3/13/16 10/12/17 9/1/1
f 15/14/18 16/15/12 14/11/13
f 34/16/19 31/17/20 29/18/21
f 12/1/10 16/11/12 15/19/18
f 10/12/17 13/19/22 14/11/13
f 17/3/23 22/2/11 12/1/10
f 18/20/5 17/3/23 5/4/14
f 19/3/3 20/20/24 8/5/5
f 18/20/5 24/21/5 23/22/25
f 17/3/23 23/22/25 28/23/26
f 19/3/3 25/22/27 26/21/24
f 22/9/11 28/24/26 27/25/28
f 21/2/2 27/23/28 25/22/27
f 24/26/5 25/27/27 23/28/25
f 29/17/21 35/18/29 40/29/30
f 33/30/31 39/29/32 37/18/33
f 31/17/20 37/18/33 38/31/34
f 30/32/35 42/33/36 29/17/21
f 34/34/19 40/35/30 39/36/32
f 3/13/16 4/6/6 38/37/34
f 10/12/17 3/13/16 37/38/33
f 13/19/22 39/39/32 40/40/30
f 11/12/15 15/19/18 40/41/30
f 11/12/15 35/38/29 1/13/37
f 1/13/37 35/38/29 44/42/38
f 10/12/17 39/41/32 13/19/22
f 32/30/39 38/29/34 36/43/40
f 4/44/6 2/6/8 36/45/40
f 41/7/7 42/46/36 36/37/40
f 43/47/41 44/42/38 42/46/36
f 6/5/9 5/4/14 41/7/7
f 43/47/41 41/7/7 5/4/14
f 5/4/14 1/13/37 43/47/41
f 35/18/29 29/17/21 44/48/38
f 30/32/35 36/31/40 42/33/36
f 44/48/38 29/17/21 42/33/36
f 49/49/42 48/50/43 46/51/44
f 51/50/45 50/52/46 48/53/43
f 51/50/45 49/49/42 47/54/47
f 53/55/48 55/56/49 54/57/49
f 59/57/50 58/56/50 57/55/51
f 55/58/49 58/56/50 59/57/50
f 61/59/52 63/60/53 62/61/54
f 67/61/55 66/57/56 65/59/57
f 63/60/53 66/62/56 67/63/55
f 19/3/3 7/4/4 9/1/1
f 9/1/1 14/8/13 21/2/2
f 35/38/29 11/12/15 40/41/30
f 3/13/16 7/4/4 4/6/6
f 1/13/37 5/4/14 11/12/15
f 7/4/4 3/13/16 9/1/1
f 11/12/15 12/1/10 15/19/18
f 9/1/1 10/12/17 14/11/13
f 5/4/14 17/3/23 12/1/10
f 6/5/9 18/20/5 5/4/14
f 7/4/4 19/3/3 8/5/5
f 17/3/23 18/20/5 23/22/25
f 22/2/11 17/3/23 28/23/26
f 20/20/24 19/3/3 26/21/24
f 19/3/3 21/2/2 25/22/27
f 37/38/33 3/13/16 38/37/34
f 39/41/32 10/12/17 37/38/33
f 43/47/41 1/13/37 44/42/38
f 2/6/8 41/7/7 36/37/40
f 41/7/7 43/47/41 42/46/36
f 74/64/58 73/65/59 69/66/60
f 76/67/61 72/68/62 74/64/58
f 71/69/63 73/65/59 74/64/58
f 72/70/62 76/71/61 75/72/64
f 70/70/65 75/71/64 76/72/61
f 79/70/66 83/64/67 82/65/68
f 81/68/69 80/69/70 82/65/68
f 81/68/69 83/64/67 85/67/71
f 81/70/69 85/71/71 84/72/72
f 83/64/67 79/70/66 84/71/72
f 71/69/63 74/64/58 72/68/62
f 16/15/12 22/9/11 14/11/13
f 13/19/22 15/14/18 14/11/13
f 30/31/35 29/18/21 31/17/20
f 34/16/19 33/73/31 31/17/20
f 31/17/20 32/32/39 30/31/35
f 21/10/2 22/9/11 27/25/28
f 28/74/26 23/28/25 25/27/27
f 24/26/5 26/75/24 25/27/27
f 25/27/27 27/76/28 28/74/26
f 34/30/19 29/17/21 40/29/30
f 31/17/20 33/30/31 37/18/33
f 32/32/39 31/17/20 38/31/34
f 33/77/31 34/34/19 39/36/32
f 15/14/18 13/19/22 40/40/30
f 30/78/35 32/30/39 36/43/40
f 38/79/34 4/44/6 36/45/40
f 47/54/47 49/49/42 46/51/44
f 49/49/42 51/50/45 48/53/43
f 45/51/73 51/50/45 47/54/47
f 52/59/48 53/55/48 54/57/49
f 56/59/51 59/57/50 57/55/51
f 54/80/49 55/58/49 59/57/50
f 60/81/52 61/59/52 62/61/54
f 64/81/57 67/61/55 65/59/57
f 62/61/54 63/60/53 67/63/55
f 70/70/65 74/64/58 69/66/60
f 68/64/74 72/70/62 75/72/64
f 74/64/58 70/70/65 76/72/61
f 78/66/75 79/70/66 82/65/68
f 83/64/67 81/68/69 82/65/68
f 77/64/76 81/70/69 84/72/72
f 85/72/71 83/64/67 84/71/72
