# Blender v2.78 (sub 0) OBJ File: ''
# www.blender.org
mtllib Box.mtl
o Box0
v -1.000000 0.100000 1.000000
v -1.000000 1.500000 1.000000
v -1.000000 0.100000 -1.000000
v -0.588600 1.500000 -1.458132
v 1.000000 0.100000 1.000000
v 1.000000 1.500000 1.000000
v 1.000000 0.100000 -1.000000
v 1.423452 1.500000 -1.196734
v 0.425498 1.500000 -1.410232
v 1.268632 0.800000 -1.079820
v 1.120071 1.500000 -0.025176
v 1.000000 0.800000 1.000000
v 0.957421 0.800000 -0.025176
v -1.000000 0.861750 1.409690
v 1.000000 0.861750 1.409690
v -1.000000 1.500000 1.000000
v -1.364435 1.500000 -1.000000
vt 0.5039 0.8023
vt 0.5008 0.6260
vt 0.0307 0.6260
vt 0.9639 0.6260
vt 0.0307 0.4657
vt 0.0307 0.8023
vt 0.0307 0.4657
vt 0.9639 0.4657
vt 0.0307 0.4657
vt 0.0307 0.0510
vt 0.9639 0.0510
vt 0.9639 0.6260
vt 0.0307 0.9743
vt 0.9639 0.8023
vt 0.9639 0.4657
vt 0.9639 0.8023
vt 0.0307 0.8023
vt 0.5918 0.8023
vt 0.9639 0.6421
vt 0.9639 0.8023
vt 0.0307 0.8023
vt 0.9639 0.4657
vt 0.0307 0.8023
vt 0.9639 0.9743
vn -0.9739 0.1729 -0.1469
vn -0.9885 0.1267 -0.0827
vn -0.7034 0.0311 -0.7101
vn 0.5773 0.5773 -0.5773
vn 0.0000 -0.2815 -0.9596
vn -0.5867 0.5733 -0.5719
vn -0.5394 0.6948 0.4756
vn 0.5323 0.7633 0.3659
vn -0.8072 0.3279 0.4907
vn 0.0000 -0.5402 -0.8415
vn -0.4393 -0.2389 -0.8660
vn 0.9530 0.2481 -0.1737
vn 0.9926 0.0997 -0.0698
vn -0.0791 0.3459 0.9349
vn -0.8151 0.2662 0.5145
vn -0.0358 0.2988 0.9536
usemtl Box
s 1
f 11/1/1 13/2/2 12/3/3
f 12/4/3 1/5/4 2/6/5
f 12/3/3 13/2/2 5/7/6
f 7/8/7 3/9/8 1/10/4
f 7/8/7 1/10/4 5/11/6
f 10/12/9 13/2/2 11/1/1
f 14/13/10 2/6/5 6/14/11
f 3/15/8 17/16/12 16/17/13
f 9/18/14 10/19/9 8/20/15
f 11/1/1 12/3/3 6/21/11
f 1/5/4 12/4/3 5/22/6
f 12/4/3 2/6/5 6/14/11
f 7/8/7 5/7/6 13/2/2
f 7/8/7 13/2/2 10/12/9
f 10/12/9 11/1/1 8/20/15
f 3/9/8 7/8/7 4/23/16
f 14/13/10 6/14/11 15/24/10
f 3/15/8 16/17/13 1/5/4
f 4/23/16 10/19/9 9/18/14
f 10/19/9 4/23/16 7/8/7
