# Blender v2.76 (sub 0) OBJ File: ''
# www.blender.org
mtllib Electric02.mtl
o Electric02
v -1.190000 0.000000 3.838000
v -1.190000 16.020802 3.838000
v -1.190000 0.000000 -3.838000
v -1.190000 16.020802 -3.838000
v 0.980000 0.000000 3.838000
v 0.980000 16.020802 3.838000
v 0.980000 0.000000 -3.838000
v 0.980000 16.020802 -3.838000
v 0.980000 15.715801 -3.454201
v 0.980000 0.000000 -3.454201
v 0.980000 15.715801 3.454201
v 0.980000 0.000000 3.454201
v 0.680000 15.715801 -3.454201
v 0.680000 0.000000 -3.454201
v 0.680000 15.715801 3.454201
v 0.680000 0.000000 3.454201
v 0.680000 15.409764 -3.108781
v 0.680000 0.000000 -3.108781
v 0.680000 15.504812 3.215596
v 0.680000 0.000000 3.108781
v 0.980000 15.409764 -3.108781
v 0.980000 0.000000 -3.108781
v 0.980000 15.504812 3.215596
v 0.980000 0.000000 3.108781
v -1.407000 16.020802 4.098985
v -1.407000 16.020802 -4.098985
v 1.197000 16.020802 4.098985
v 1.197000 16.020802 -4.098985
v -1.407000 16.220802 4.098985
v -1.407000 16.220802 -4.098985
v 1.197000 16.220802 4.098985
v 1.197000 16.220802 -4.098985
v -1.312518 16.546680 3.801535
v -1.312518 16.546680 -3.801535
v 1.102518 16.546680 3.801535
v 1.102518 16.546680 -3.801535
v 1.170120 16.383739 4.014362
v -1.380121 16.383739 4.014362
v 1.170120 16.383739 -4.014362
v -1.380121 16.383739 -4.014362
vt 0.224921 0.804049
vt 0.224921 0.005709
vt 0.005882 0.005709
vt 0.005882 0.804049
vt 0.300416 0.007737
vt 0.316177 0.007785
vt 0.306765 0.777881
vt 0.263196 0.788841
vt 0.952146 0.788841
vt 0.990421 0.005709
vt 0.990421 0.804049
vt 0.263196 0.005709
vt 0.268081 0.005709
vt 0.229806 0.005709
vt 0.229806 0.788841
vt 0.224921 0.788841
vt 0.917699 0.773581
vt 0.286991 0.778320
vt 0.297644 0.005709
vt 0.291061 0.773136
vt 0.306823 0.773184
vt 0.016594 0.848125
vt 0.983406 0.848125
vt 0.983406 0.952198
vt 0.181224 0.815328
vt 0.021368 0.815328
vt 0.010967 0.806211
vt 0.792596 0.815328
vt 0.176201 0.806211
vt 0.954180 0.815328
vt 0.797762 0.806211
vt 0.200566 0.831368
vt 0.049930 0.831368
vt 0.032655 0.822641
vt 0.773147 0.831368
vt 0.187545 0.822641
vt 0.924680 0.831368
vt 0.786195 0.822641
vt 0.942982 0.822641
vt 0.291004 0.777833
vt 0.952146 0.005709
vt 0.268081 0.788841
vt 0.917699 0.005709
vt 0.016594 0.952198
vt 0.963397 0.806211
vn 0.707100 0.000000 -0.707100
vn 0.000000 0.000000 -1.000000
vn 0.000000 0.000000 1.000000
vn 0.707100 0.000000 0.707100
vn 0.000000 -0.006900 1.000000
vn 0.708600 -0.004900 0.705500
vn 0.576200 0.580200 0.575500
vn 0.904500 -0.301500 -0.301500
vn 0.904500 -0.301500 0.301500
vn 0.577300 -0.577300 -0.577300
vn 0.577300 -0.577300 0.577300
vn 0.578100 0.572600 -0.581300
vn 0.000000 0.710000 0.704200
vn 0.000000 0.701700 -0.712400
vn 0.000000 -0.707100 0.707100
vn 0.000000 -0.707100 -0.707100
vn 0.667900 0.210300 0.713900
vn 0.000000 0.225700 0.974200
vn 0.667900 0.210300 -0.713900
vn 0.000000 0.225700 -0.974200
vn 0.652700 0.687200 0.318800
vn 0.000000 0.794000 0.607900
vn 0.000000 0.620500 0.784100
vn 0.652700 0.687200 -0.318800
vn 0.618800 0.568400 0.542200
vn 0.000000 0.794000 -0.607900
vn 0.618800 0.568400 -0.542200
vn 0.000000 0.620500 -0.784100
usemtl Electric02
s 1
f 8/1/1 7/2/1 3/3/2
f 2/4/3 1/3/3 5/2/4
f 20/5/5 24/6/6 23/7/7
f 6/1/4 11/8/8 9/9/9
f 7/10/1 8/11/1 9/9/9
f 5/2/4 12/12/1 11/8/8
f 11/8/8 15/8/10 13/9/11
f 12/13/1 16/14/1 15/15/10
f 9/8/9 13/16/11 14/2/4
f 13/9/11 15/8/10 16/12/1
f 21/17/12 23/18/7 24/19/6
f 19/18/13 23/18/7 21/17/12
f 17/20/14 21/21/12 22/6/1
f 25/22/15 26/23/16 28/24/10
f 31/25/17 29/26/18 25/27/15
f 32/28/19 31/25/17 27/29/11
f 30/30/20 32/28/19 28/31/10
f 35/32/21 33/33/22 38/34/23
f 36/35/24 35/32/21 37/36/25
f 34/37/26 36/35/24 39/38/27
f 40/39/28 39/38/27 32/28/19
f 32/28/19 39/38/27 37/36/25
f 37/36/25 38/34/23 29/26/18
f 4/4/2 8/1/1 3/3/2
f 6/1/4 2/4/3 5/2/4
f 19/40/13 20/5/5 23/7/7
f 8/11/1 6/1/4 9/9/9
f 10/41/4 7/10/1 9/9/9
f 6/1/4 5/2/4 11/8/8
f 9/9/9 11/8/8 13/9/11
f 11/42/8 12/13/1 15/15/10
f 10/12/4 9/8/9 14/2/4
f 14/41/4 13/9/11 16/12/1
f 22/43/1 21/17/12 24/19/6
f 17/17/14 19/18/13 21/17/12
f 18/5/2 17/20/14 22/6/1
f 27/44/11 25/22/15 28/24/10
f 27/29/11 31/25/17 25/27/15
f 28/31/10 32/28/19 27/29/11
f 26/45/16 30/30/20 28/31/10
f 37/36/25 35/32/21 38/34/23
f 39/38/27 36/35/24 37/36/25
f 40/39/28 34/37/26 39/38/27
f 30/30/20 40/39/28 32/28/19
f 31/25/17 32/28/19 37/36/25
f 31/25/17 37/36/25 29/26/18
