# Blender v2.76 (sub 0) OBJ File: ''
# www.blender.org
mtllib Car0.mtl
o Car0
v 0.000000 6.307817 6.280674
v -1.283745 6.176421 8.889527
v 0.000000 6.670418 8.820428
v -1.255381 6.103083 10.136994
v -5.308418 3.296344 -17.808228
v -4.864073 4.228830 -17.936911
v 0.000000 1.578769 -17.037218
v 0.000000 5.224628 -17.676620
v 0.000000 4.694400 -17.948301
v -4.864073 4.228830 -17.936911
v -5.528187 1.635383 -17.293537
v -6.090198 0.965667 -12.293619
v -6.782995 2.121431 -11.498962
v -6.554695 2.435695 -17.222933
v -4.410431 3.505994 16.357395
v -4.492293 2.510347 16.448143
v -4.016708 3.018027 16.472435
v -4.207420 4.745801 14.964662
v 0.000000 4.925015 15.618959
v 0.000000 5.640600 13.462312
v -6.621231 2.555447 16.229267
v -4.492293 2.510347 16.448143
v -5.771780 3.372847 16.722979
v -4.219075 6.195501 5.078311
v -5.527519 6.098559 6.029542
v -6.626523 6.227078 -18.727013
v -6.158154 5.288165 -18.547279
v -6.495955 4.751437 -18.069218
v -4.999356 4.113934 -18.376045
v -5.876804 6.059300 3.301881
v -5.481047 5.135776 -17.662735
v -5.404999 4.793115 -18.366520
v -6.636247 4.432431 16.842411
v -4.410431 3.505994 16.357395
v -5.125099 3.478749 16.738939
v 0.000000 3.634465 17.038582
v -5.148499 3.575467 16.680107
v -6.411071 4.303929 16.703333
v -5.995317 5.034665 16.722412
v -4.535439 4.410001 16.851067
v -4.724078 4.303944 16.684681
v -6.026745 5.435376 17.221706
v -5.156218 5.033841 16.715492
v -6.149719 4.796252 -18.366596
v -6.324999 3.303233 -17.690290
v -6.798984 4.198539 -17.691711
v -6.565726 4.142032 -18.374702
v 0.000000 6.356214 5.080487
v -6.909259 3.163713 -6.843579
v -6.860106 2.151539 -6.388650
v -6.909998 2.344727 8.646314
v 0.000000 6.515719 10.479761
v -6.547647 0.578860 8.129246
v -6.195343 3.448787 -18.380615
v -5.429836 3.420141 -18.381233
v -5.857997 5.442362 -16.088776
v 0.000000 0.806065 16.136528
v 0.000000 1.228325 16.533384
v -4.183060 0.889294 16.017059
v -3.724818 1.247083 16.156805
v -4.591063 5.786108 9.909608
v -6.871235 3.969964 10.980648
v 0.000000 4.694400 -17.948301
v -6.733814 3.247742 14.952800
v -6.732810 5.076848 -4.797209
v -5.481047 5.135776 -17.662735
v -5.857997 5.442362 -16.088776
v -5.112774 6.077201 -6.163939
v -4.208653 6.152875 -6.335433
v 0.000000 6.082712 10.840295
v -4.425652 5.349348 13.126405
v -4.207420 4.745801 14.964662
v -6.846397 3.940035 13.676332
v -5.057175 5.406701 17.213114
v -4.425652 5.349348 13.126405
v -6.306640 0.790236 15.424667
v 0.000000 6.159933 -6.539692
v -5.788490 3.506051 16.681662
v -6.052804 0.581482 -6.314707
v 0.000000 2.190084 3.236169
v -5.851433 5.928717 -4.917647
v -4.499983 2.048512 3.429067
v 0.000000 2.062981 -5.238961
v -4.480546 1.979235 -5.415246
v -6.733814 3.247742 14.952800
v -6.846397 3.940035 13.676332
v -3.936718 0.936786 11.968334
v -6.871235 3.969964 10.980648
v -6.909998 2.344727 8.646314
v -6.547647 0.578860 8.129246
v -6.306640 0.790236 15.424667
v -6.052804 0.581482 -6.314707
v -6.860106 2.151539 -6.388650
v -2.942346 0.921937 -9.123985
v -6.782995 2.121431 -11.498962
v -6.090198 0.965667 -12.293619
v 1.283745 6.176421 8.889527
v 1.255381 6.103083 10.136994
v 5.308418 3.296344 -17.808228
v 4.864073 4.228830 -17.936911
v 4.864073 4.228830 -17.936911
v 5.528187 1.635383 -17.293537
v 6.090198 0.965667 -12.293619
v 6.554695 2.435695 -17.222933
v 6.782995 2.121431 -11.498962
v 4.410431 3.505994 16.357395
v 4.016708 3.018027 16.472435
v 4.492293 2.510347 16.448143
v 4.207420 4.745801 14.964662
v 6.621231 2.555447 16.229267
v 5.771780 3.372847 16.722979
v 4.492293 2.510347 16.448143
v 5.527519 6.098559 6.029542
v 4.219075 6.195501 5.078311
v 6.626523 6.227078 -18.727013
v 6.495955 4.751437 -18.069218
v 6.158154 5.288165 -18.547279
v 4.999356 4.113934 -18.376045
v 5.876804 6.059300 3.301881
v 5.404999 4.793115 -18.366520
v 5.481047 5.135776 -17.662735
v 6.636247 4.432431 16.842411
v 5.125099 3.478749 16.738939
v 4.410431 3.505994 16.357395
v 5.148499 3.575467 16.680107
v 5.995317 5.034665 16.722412
v 6.411071 4.303929 16.703333
v 4.724078 4.303944 16.684681
v 4.535439 4.410001 16.851067
v 6.026745 5.435376 17.221706
v 5.156218 5.033841 16.715492
v 6.149719 4.796252 -18.366596
v 6.324999 3.303233 -17.690290
v 6.565726 4.142032 -18.374702
v 6.798984 4.198539 -17.691711
v 6.909259 3.163713 -6.843579
v 6.909998 2.344727 8.646314
v 6.860106 2.151539 -6.388650
v 6.547647 0.578860 8.129246
v 6.195343 3.448787 -18.380615
v 5.429836 3.420141 -18.381233
v 5.857997 5.442362 -16.088776
v 4.183060 0.889294 16.017059
v 3.724818 1.247083 16.156805
v 4.591063 5.786108 9.909608
v 6.871235 3.969964 10.980648
v 6.733814 3.247742 14.952800
v 6.732810 5.076848 -4.797209
v 5.481047 5.135776 -17.662735
v 5.857997 5.442362 -16.088776
v 5.112774 6.077201 -6.163939
v 4.208653 6.152875 -6.335433
v 4.425652 5.349348 13.126405
v 4.207420 4.745801 14.964662
v 6.846397 3.940035 13.676332
v 5.057175 5.406701 17.213114
v 4.425652 5.349348 13.126405
v 6.306640 0.790236 15.424667
v 5.788490 3.506051 16.681662
v 6.052804 0.581482 -6.314707
v 5.851433 5.928717 -4.917647
v 4.499983 2.048512 3.429067
v 4.480546 1.979235 -5.415246
v 6.733814 3.247742 14.952800
v 3.936718 0.936786 11.968334
v 6.846397 3.940035 13.676332
v 6.871235 3.969964 10.980648
v 6.909998 2.344727 8.646314
v 6.547647 0.578860 8.129246
v 6.306640 0.790236 15.424667
v 6.052804 0.581482 -6.314707
v 2.942346 0.921937 -9.123985
v 6.860106 2.151539 -6.388650
v 6.782995 2.121431 -11.498962
v 6.090198 0.965667 -12.293619
vt 0.304957 0.794763
vt 0.232013 0.701833
vt 0.227764 0.796438
vt 0.197458 0.703687
vt 0.383704 0.575614
vt 0.396308 0.642332
vt 0.534277 0.452725
vt 0.534277 0.713579
vt 0.534278 0.675642
vt 0.377470 0.456776
vt 0.816570 0.042414
vt 0.794786 0.122331
vt 0.951695 0.144062
vt 0.063644 0.488738
vt 0.055746 0.486969
vt 0.054401 0.511853
vt 0.082600 0.496227
vt 0.061708 0.788073
vt 0.110200 0.791438
vt 0.613458 0.530277
vt 0.555098 0.527159
vt 0.590172 0.586796
vt 0.340407 0.490839
vt 0.314286 0.397331
vt 0.346317 0.785301
vt 0.359602 0.718125
vt 0.350020 0.679724
vt 0.392471 0.634111
vt 0.389058 0.394617
vt 0.378808 0.707223
vt 0.380965 0.682705
vt 0.613869 0.660062
vt 0.552854 0.596003
vt 0.572445 0.594118
vt 0.044531 0.782418
vt 0.573086 0.600808
vt 0.607697 0.651178
vt 0.596300 0.701704
vt 0.556281 0.658510
vt 0.561452 0.651178
vt 0.597161 0.729412
vt 0.573298 0.701646
vt 0.359841 0.682930
vt 0.964506 0.204047
vt 0.964545 0.265954
vt 0.972207 0.262917
vt 0.338807 0.794992
vt 0.667170 0.194399
vt 0.654700 0.124412
vt 0.242553 0.137771
vt 0.182017 0.795663
vt 0.256727 0.015669
vt 0.348041 0.636122
vt 0.358547 0.586521
vt 0.380260 0.584473
vt 0.979004 0.442477
vt 0.913495 0.449219
vt 0.952737 0.484228
vt 0.431896 0.409315
vt 0.431970 0.438514
vt 0.546621 0.415071
vt 0.534060 0.439811
vt 0.208073 0.465718
vt 0.992925 0.406217
vt 0.178563 0.250149
vt 0.034685 0.152340
vt 0.017878 0.282125
vt 0.069677 0.200210
vt 0.611074 0.326684
vt 0.974893 0.304184
vt 0.942471 0.853921
vt 0.646717 0.442270
vt 0.649462 0.505378
vt 0.177745 0.793620
vt 0.124055 0.479039
vt 0.036624 0.474743
vt 0.104668 0.248078
vt 0.348354 0.514037
vt 0.354869 0.576109
vt 0.007480 0.351476
vt 0.008241 0.419906
vt 0.056741 0.030286
vt 0.604834 0.408220
vt 0.646157 0.797749
vt 0.590630 0.596008
vt 0.570583 0.727427
vt 0.972369 0.214984
vt 0.652672 0.015851
vt 0.398373 0.757580
vt 0.346272 0.821160
vt 0.375424 0.960477
vt 0.614376 0.385587
vt 0.543894 0.742743
vt 0.431209 0.742743
vt 0.430397 0.889416
vt 0.061002 0.803334
vt 0.174692 0.806283
vt 0.176456 0.957960
vt 0.576116 0.752419
vt 0.551632 0.886999
vt 0.609233 0.941186
vt 0.563843 0.744605
vt 0.151488 0.040419
vt 0.729682 0.039392
vt 0.953630 0.088723
vt 0.057820 0.955596
vt 0.630363 0.802444
vn 0.000000 0.999900 0.010400
vn -0.196600 0.980100 0.028400
vn -0.000000 0.999500 -0.033100
vn -0.178400 0.974300 0.137800
vn 0.172000 -0.564100 -0.807600
vn 0.702400 -0.014300 -0.711600
vn 0.000000 -0.272600 -0.962100
vn -0.000000 0.820100 -0.572200
vn 0.000000 0.456000 -0.890000
vn -0.009300 0.295200 -0.955400
vn -0.332100 -0.543500 -0.770900
vn -0.849500 -0.522200 -0.075700
vn -0.997500 -0.046400 -0.053500
vn -0.823000 -0.301100 -0.481600
vn -0.154600 0.444300 0.882400
vn -0.159700 0.102600 0.981800
vn -0.157000 0.104800 0.982000
vn -0.110500 0.869600 0.481300
vn 0.000000 0.857600 0.514400
vn 0.000000 0.969500 0.244900
vn -0.731300 -0.325900 0.599100
vn -0.014700 -0.306700 0.951700
vn -0.051100 -0.125600 0.990800
vn 0.106100 0.902000 -0.418500
vn -0.216900 0.975400 0.039800
vn -0.227900 0.646800 -0.727800
vn 0.224800 0.145100 -0.963500
vn -0.910900 0.124800 -0.393300
vn 0.949000 -0.059800 -0.309500
vn -0.042300 0.966500 -0.253100
vn 0.508500 0.842700 -0.177200
vn 0.690700 0.578000 -0.434500
vn -0.602000 0.128200 0.788100
vn 0.710100 -0.102000 0.696600
vn 0.043400 0.028700 0.998600
vn 0.000000 0.704300 0.709900
vn -0.375000 0.401500 0.835500
vn 0.591100 0.198400 0.781900
vn 0.372400 -0.680300 0.631300
vn 0.487000 0.002300 0.873400
vn -0.685900 0.104100 0.720200
vn -0.361400 0.365600 0.857800
vn -0.374500 -0.680000 0.630300
vn -0.441700 -0.158700 -0.883000
vn -0.696000 -0.576900 -0.427500
vn -0.988700 -0.013800 -0.149000
vn -0.917300 -0.083600 -0.389400
vn 0.000000 0.852700 -0.522400
vn -0.999800 0.018000 -0.008100
vn -0.983100 -0.182600 -0.014300
vn -0.998500 -0.053900 0.000500
vn 0.000000 0.995700 0.092800
vn -0.975900 -0.218100 -0.002600
vn -0.495400 -0.827100 -0.265600
vn 0.425500 -0.861700 -0.276300
vn 0.730000 0.681600 -0.049400
vn 0.000000 -0.684800 0.728700
vn -0.000000 -0.664200 0.747500
vn -0.230600 -0.101600 0.967700
vn -0.149600 -0.252900 0.955900
vn -0.002300 0.995800 0.091700
vn -0.969200 0.246200 0.010000
vn 0.000000 -0.280700 -0.959800
vn -0.996600 -0.062300 0.054100
vn -0.905400 0.424500 0.008600
vn -0.015000 0.841500 -0.540000
vn -0.003500 0.992300 -0.123500
vn 0.122500 0.905500 0.406200
vn 0.015400 0.824800 0.565300
vn 0.000000 0.986200 0.165800
vn -0.087100 0.970000 0.226900
vn 0.849700 0.507800 0.141800
vn -0.966300 0.256400 0.024200
vn 0.305700 0.360600 0.881200
vn 0.613200 0.785500 0.083700
vn -0.464400 -0.378900 0.800500
vn -0.000000 0.838000 0.545700
vn 0.264700 0.315800 0.911100
vn -0.888300 -0.458200 -0.030500
vn 0.000000 0.833900 -0.551900
vn 0.136600 0.970200 0.200100
vn 0.472100 0.736800 -0.484000
vn 0.000000 0.803100 0.595900
vn 0.461000 0.711500 0.530300
vn -0.799000 -0.445700 -0.403700
vn -0.750600 -0.644600 -0.145100
vn -0.836600 -0.546600 0.037600
vn -0.736000 -0.643800 0.209600
vn -0.754600 -0.435800 0.490600
vn -0.769300 -0.319800 0.553000
vn -0.794800 -0.244800 -0.555300
vn -0.607700 -0.346100 -0.714800
vn -0.522200 -0.746600 -0.412300
vn -0.456800 -0.888300 -0.047700
vn -0.447600 -0.843100 0.298100
vn -0.529600 -0.672700 0.516700
vn 0.196600 0.980100 0.028400
vn 0.178400 0.974300 0.137800
vn -0.172000 -0.564100 -0.807600
vn -0.702400 -0.014300 -0.711600
vn 0.009300 0.295200 -0.955400
vn 0.332100 -0.543500 -0.770900
vn 0.849500 -0.522200 -0.075700
vn 0.823000 -0.301100 -0.481600
vn 0.997500 -0.046400 -0.053500
vn 0.154600 0.444300 0.882400
vn 0.157000 0.104800 0.982000
vn 0.159700 0.102600 0.981800
vn 0.110500 0.869600 0.481300
vn 0.731300 -0.325900 0.599100
vn 0.051100 -0.125600 0.990800
vn 0.014700 -0.306700 0.951700
vn 0.216900 0.975400 0.039800
vn -0.106100 0.902000 -0.418500
vn 0.227900 0.646800 -0.727800
vn 0.910900 0.124800 -0.393300
vn -0.224800 0.145100 -0.963500
vn -0.949000 -0.059800 -0.309500
vn 0.042300 0.966500 -0.253100
vn -0.690700 0.578000 -0.434500
vn -0.508500 0.842700 -0.177200
vn 0.602000 0.128200 0.788100
vn -0.043400 0.028700 0.998600
vn -0.710100 -0.102000 0.696600
vn 0.375000 0.401500 0.835500
vn -0.372400 -0.680300 0.631300
vn -0.591100 0.198400 0.781900
vn 0.685900 0.104100 0.720200
vn -0.487000 0.002300 0.873400
vn 0.361400 0.365600 0.857800
vn 0.374500 -0.680000 0.630300
vn 0.441700 -0.158700 -0.883000
vn 0.696000 -0.576900 -0.427500
vn 0.917300 -0.083600 -0.389400
vn 0.988700 -0.013800 -0.149000
vn 0.999800 0.018000 -0.008100
vn 0.998500 -0.053900 0.000500
vn 0.983100 -0.182600 -0.014300
vn 0.975900 -0.218100 -0.002600
vn 0.495400 -0.827100 -0.265600
vn -0.425500 -0.861700 -0.276300
vn -0.730000 0.681600 -0.049400
vn 0.230600 -0.101600 0.967700
vn 0.149600 -0.252900 0.955900
vn 0.002300 0.995800 0.091700
vn 0.969200 0.246200 0.010000
vn 0.996600 -0.062300 0.054100
vn 0.905400 0.424500 0.008600
vn 0.015000 0.841500 -0.540000
vn 0.003500 0.992300 -0.123500
vn -0.122500 0.905500 0.406200
vn -0.015400 0.824800 0.565300
vn 0.087100 0.970000 0.226900
vn -0.849700 0.507800 0.141800
vn 0.966300 0.256400 0.024200
vn -0.305700 0.360600 0.881200
vn -0.613200 0.785500 0.083700
vn 0.464400 -0.378900 0.800500
vn -0.264700 0.315800 0.911100
vn 0.888300 -0.458200 -0.030500
vn -0.136600 0.970200 0.200100
vn -0.472100 0.736800 -0.484000
vn -0.461000 0.711500 0.530300
vn 0.799000 -0.445700 -0.403700
vn 0.836600 -0.546600 0.037600
vn 0.750600 -0.644600 -0.145100
vn 0.736000 -0.643800 0.209600
vn 0.754600 -0.435800 0.490600
vn 0.769300 -0.319800 0.553000
vn 0.794800 -0.244800 -0.555300
vn 0.607700 -0.346100 -0.714800
vn 0.456800 -0.888300 -0.047700
vn 0.522200 -0.746600 -0.412300
vn 0.447600 -0.843100 0.298100
vn 0.529600 -0.672700 0.516700
usemtl Car0
s 1
f 1/1/1 2/2/2 3/3/3
f 3/3/3 2/2/2 4/4/4
f 5/5/5 6/6/6 7/7/7
f 8/8/8 9/9/9 10/6/10
f 5/5/5 7/7/7 11/10/11
f 12/11/12 13/12/13 14/13/14
f 15/14/15 16/15/16 17/16/17
f 18/17/18 19/18/19 20/19/20
f 21/20/21 22/21/22 23/22/23
f 2/2/2 24/23/24 25/24/25
f 26/25/26 27/26/27 28/27/28
f 29/28/29 6/6/6 5/5/5
f 25/24/25 24/23/24 30/29/30
f 27/26/27 31/30/31 32/31/32
f 21/20/21 23/22/23 33/32/33
f 22/21/22 34/33/34 35/34/35
f 15/14/15 17/16/17 36/35/36
f 23/22/23 35/34/35 37/36/37
f 33/32/33 38/37/38 39/38/39
f 38/37/38 33/32/33 23/22/23
f 35/34/35 40/39/40 41/40/41
f 42/41/42 39/38/39 43/42/43
f 43/42/43 41/40/41 40/39/40
f 44/43/44 28/27/28 27/26/27
f 32/31/32 44/43/44 27/26/27
f 45/44/45 46/45/46 47/46/47
f 1/1/1 24/23/24 2/2/2
f 1/1/1 48/47/48 24/23/24
f 49/48/49 50/49/50 51/50/51
f 52/51/52 3/3/3 4/4/4
f 53/52/53 51/50/51 50/49/50
f 44/43/44 47/53/47 28/27/28
f 54/54/54 55/55/55 5/5/5
f 46/45/46 45/44/45 49/48/49
f 27/56/27 56/57/56 31/58/31
f 57/59/57 58/60/58 59/61/59
f 60/62/60 59/61/59 58/60/58
f 2/2/2 61/63/61 4/4/4
f 34/33/34 40/39/40 35/34/35
f 35/34/35 23/22/23 22/21/22
f 27/56/27 26/64/26 56/57/56
f 13/12/13 49/48/49 45/44/45
f 50/49/50 49/48/49 13/12/13
f 51/50/51 62/65/62 49/48/49
f 6/6/6 29/28/29 32/31/32
f 6/6/6 63/9/63 7/7/7
f 21/66/21 33/67/33 64/68/64
f 65/69/65 26/64/26 28/70/28
f 66/58/66 67/57/67 8/71/8
f 68/72/68 69/73/69 67/57/67
f 66/30/66 8/8/8 10/6/10
f 70/74/70 4/4/4 61/63/61
f 70/74/70 61/63/61 71/75/71
f 19/18/19 18/17/18 15/14/15
f 72/17/72 40/76/40 34/14/34
f 33/67/33 73/77/73 64/68/64
f 49/48/49 65/69/65 46/45/46
f 46/45/46 28/70/28 47/46/47
f 65/69/65 28/70/28 46/45/46
f 13/12/13 45/44/45 14/13/14
f 14/78/14 45/79/45 5/5/5
f 11/10/11 14/78/14 5/5/5
f 61/63/61 25/24/25 42/80/42
f 42/80/42 74/81/74 61/63/61
f 2/2/2 25/24/25 61/63/61
f 75/75/75 74/81/74 72/17/72
f 75/75/75 61/63/61 74/81/74
f 40/76/40 72/17/72 74/81/74
f 64/68/64 76/82/76 21/66/21
f 59/61/59 60/62/60 76/83/76
f 22/21/22 21/20/21 76/83/76
f 60/62/60 22/21/22 76/83/76
f 77/84/77 67/57/67 69/73/69
f 67/57/67 77/84/77 8/71/8
f 25/24/25 30/29/30 42/80/42
f 65/69/65 49/48/49 62/65/62
f 71/75/71 18/17/18 20/19/20
f 55/55/55 29/28/29 5/5/5
f 78/85/78 23/22/23 37/36/37
f 42/41/42 33/32/33 39/38/39
f 78/85/78 38/37/38 23/22/23
f 37/36/37 35/34/35 41/40/41
f 74/86/74 42/41/42 43/42/43
f 74/86/74 43/42/43 40/39/40
f 54/87/54 45/44/45 47/46/47
f 79/88/79 53/52/53 50/49/50
f 45/79/45 54/54/54 5/5/5
f 31/30/31 6/6/6 32/31/32
f 20/19/20 70/74/70 71/75/71
f 36/35/36 19/18/19 15/14/15
f 30/29/30 65/69/65 42/80/42
f 33/67/33 42/80/42 65/69/65
f 62/65/62 73/77/73 65/69/65
f 33/67/33 65/69/65 73/77/73
f 24/89/24 48/90/48 80/91/80
f 56/57/56 26/64/26 81/92/81
f 65/69/65 81/92/81 26/64/26
f 68/72/68 56/57/56 81/92/81
f 81/92/81 65/69/65 30/29/30
f 81/93/81 30/94/30 82/95/82
f 80/96/80 83/97/83 84/98/84
f 69/99/69 84/100/84 83/101/83
f 84/100/84 69/99/69 68/102/68
f 30/94/30 24/89/24 82/95/82
f 68/102/68 81/93/81 84/100/84
f 85/68/85 86/77/86 87/103/87
f 86/77/86 88/65/88 87/103/87
f 88/65/88 89/50/89 87/103/87
f 89/50/89 90/52/90 87/103/87
f 91/82/91 85/68/85 87/103/87
f 92/88/92 93/49/93 94/104/94
f 95/12/95 96/11/96 94/104/94
f 93/49/93 95/12/95 94/104/94
f 11/105/11 12/11/12 14/13/14
f 82/95/82 24/89/24 80/91/80
f 84/100/84 81/93/81 82/95/82
f 82/106/82 80/96/80 84/98/84
f 77/107/77 69/99/69 83/101/83
f 1/1/1 3/3/3 97/2/97
f 3/3/3 98/4/98 97/2/97
f 99/5/99 7/7/7 100/6/100
f 8/8/8 101/6/101 9/9/9
f 99/5/99 102/10/102 7/7/7
f 103/11/103 104/13/104 105/12/105
f 106/14/106 107/16/107 108/15/108
f 109/17/109 20/19/20 19/18/19
f 110/20/110 111/22/111 112/21/112
f 97/2/97 113/24/113 114/23/114
f 115/25/115 116/27/116 117/26/117
f 118/28/118 99/5/99 100/6/100
f 113/24/113 119/29/119 114/23/114
f 117/26/117 120/31/120 121/30/121
f 110/20/110 122/32/122 111/22/111
f 112/21/112 123/34/123 124/33/124
f 106/14/106 36/35/36 107/16/107
f 111/22/111 125/36/125 123/34/123
f 122/32/122 126/38/126 127/37/127
f 127/37/127 111/22/111 122/32/122
f 123/34/123 128/40/128 129/39/129
f 130/41/130 131/42/131 126/38/126
f 131/42/131 129/39/129 128/40/128
f 132/43/132 117/26/117 116/27/116
f 120/31/120 117/26/117 132/43/132
f 133/44/133 134/46/134 135/45/135
f 1/1/1 97/2/97 114/23/114
f 1/1/1 114/23/114 48/47/48
f 136/48/136 137/50/137 138/49/138
f 52/51/52 98/4/98 3/3/3
f 139/52/139 138/49/138 137/50/137
f 132/43/132 116/27/116 134/53/134
f 140/54/140 99/5/99 141/55/141
f 135/45/135 136/48/136 133/44/133
f 117/56/117 121/58/121 142/57/142
f 57/59/57 143/61/143 58/60/58
f 144/62/144 58/60/58 143/61/143
f 97/2/97 98/4/98 145/63/145
f 124/33/124 123/34/123 129/39/129
f 123/34/123 112/21/112 111/22/111
f 117/56/117 142/57/142 115/64/115
f 105/12/105 133/44/133 136/48/136
f 138/49/138 105/12/105 136/48/136
f 137/50/137 136/48/136 146/65/146
f 100/6/100 120/31/120 118/28/118
f 100/6/100 7/7/7 63/9/63
f 110/66/110 147/68/147 122/67/122
f 148/69/148 116/70/116 115/64/115
f 149/58/149 8/71/8 150/57/150
f 151/72/151 150/57/150 152/73/152
f 149/30/149 101/6/101 8/8/8
f 70/74/70 145/63/145 98/4/98
f 70/74/70 153/75/153 145/63/145
f 19/18/19 106/14/106 109/17/109
f 154/17/154 124/14/124 129/76/129
f 122/67/122 147/68/147 155/77/155
f 136/48/136 135/45/135 148/69/148
f 135/45/135 134/46/134 116/70/116
f 148/69/148 135/45/135 116/70/116
f 105/12/105 104/13/104 133/44/133
f 104/78/104 99/5/99 133/79/133
f 102/10/102 99/5/99 104/78/104
f 145/63/145 130/80/130 113/24/113
f 130/80/130 145/63/145 156/81/156
f 97/2/97 145/63/145 113/24/113
f 157/75/157 154/17/154 156/81/156
f 157/75/157 156/81/156 145/63/145
f 129/76/129 156/81/156 154/17/154
f 147/68/147 110/66/110 158/82/158
f 143/61/143 158/83/158 144/62/144
f 112/21/112 158/83/158 110/20/110
f 144/62/144 158/83/158 112/21/112
f 77/84/77 152/73/152 150/57/150
f 150/57/150 8/71/8 77/84/77
f 113/24/113 130/80/130 119/29/119
f 148/69/148 146/65/146 136/48/136
f 153/75/153 20/19/20 109/17/109
f 141/55/141 99/5/99 118/28/118
f 159/85/159 125/36/125 111/22/111
f 130/41/130 126/38/126 122/32/122
f 159/85/159 111/22/111 127/37/127
f 125/36/125 128/40/128 123/34/123
f 156/86/156 131/42/131 130/41/130
f 156/86/156 129/39/129 131/42/131
f 140/87/140 134/46/134 133/44/133
f 160/88/160 138/49/138 139/52/139
f 133/79/133 99/5/99 140/54/140
f 121/30/121 120/31/120 100/6/100
f 20/19/20 153/75/153 70/74/70
f 36/35/36 106/14/106 19/18/19
f 119/29/119 130/80/130 148/69/148
f 122/67/122 148/69/148 130/80/130
f 146/65/146 148/69/148 155/77/155
f 122/67/122 155/77/155 148/69/148
f 114/89/114 80/91/80 48/90/48
f 142/57/142 161/92/161 115/64/115
f 148/69/148 115/64/115 161/92/161
f 151/72/151 161/92/161 142/57/142
f 161/92/161 119/29/119 148/69/148
f 161/93/161 162/95/162 119/94/119
f 80/96/80 163/98/163 83/97/83
f 152/99/152 83/101/83 163/100/163
f 163/100/163 151/102/151 152/99/152
f 119/94/119 162/95/162 114/89/114
f 151/102/151 163/100/163 161/93/161
f 164/68/164 165/103/165 166/77/166
f 166/77/166 165/103/165 167/65/167
f 167/65/167 165/103/165 168/50/168
f 168/50/168 165/103/165 169/52/169
f 170/82/170 165/103/165 164/68/164
f 171/88/171 172/104/172 173/49/173
f 174/12/174 172/104/172 175/11/175
f 173/49/173 172/104/172 174/12/174
f 102/105/102 104/13/104 103/11/103
f 162/95/162 80/91/80 114/89/114
f 163/100/163 162/95/162 161/93/161
f 162/106/162 163/98/163 80/96/80
f 77/107/77 83/101/83 152/99/152
