# Blender v2.78 (sub 0) OBJ File: ''
# www.blender.org
mtllib WoodenPile.mtl
o WoodenPile.001
v -1.000000 0.000000 -5.000000
v -1.000000 0.338470 -5.000000
v -1.000000 0.000000 -5.545166
v -1.000000 0.338470 -5.545166
v 0.195110 0.338470 -4.999998
v 0.195110 0.000000 -5.545163
v 0.195110 0.338470 -5.545163
v 0.195110 0.000000 -5.000000
v 0.195110 0.685887 -5.000000
v 0.195110 0.000000 -5.945166
v 0.195110 0.685887 -5.945166
v 1.000000 0.000000 -5.000000
v 1.000000 0.685887 -5.000000
v 1.000000 0.000000 -5.945166
v 1.000000 0.685887 -5.945166
v -0.206740 0.856420 -5.000000
v -0.206740 1.000000 -5.000000
v -0.206740 0.856420 -5.501549
v -0.206740 1.000000 -5.501549
v 0.194601 0.856420 -5.000000
v 0.194601 1.000000 -5.000000
v 0.194601 0.856420 -5.501549
v 0.194601 1.000000 -5.501549
v -1.000000 0.000000 5.000000
v -1.000000 1.000000 5.000000
v -1.000000 0.000000 -5.000000
v -1.000000 1.000000 -5.000000
v 1.000000 0.000000 5.000000
v 1.000000 1.000000 5.000000
v 1.000000 0.000000 -5.000000
v 1.000000 1.000000 -5.000000
v -1.000000 0.000000 5.000000
v -1.000000 0.338470 5.000000
v -1.000000 0.000000 5.545166
v -1.000000 0.338470 5.545166
v 0.195110 0.338470 4.999998
v 0.195110 0.000000 5.545163
v 0.195110 0.338470 5.545163
v 0.195110 0.000000 5.000000
v 0.195110 0.685887 5.000000
v 0.195110 0.000000 5.945166
v 0.195110 0.685887 5.945166
v 1.000000 0.000000 5.000000
v 1.000000 0.685887 5.000000
v 1.000000 0.000000 5.945166
v 1.000000 0.685887 5.945166
v -0.206740 0.856420 5.000000
v -0.206740 1.000000 5.000000
v -0.206740 0.856420 5.501549
v -0.206740 1.000000 5.501549
v 0.194601 0.856420 5.000000
v 0.194601 1.000000 5.000000
v 0.194601 0.856420 5.501549
v 0.194601 1.000000 5.501549
v -1.000000 0.000000 5.000000
v -1.000000 1.000000 5.000000
v 1.000000 0.000000 5.000000
v 1.000000 1.000000 5.000000
v 0.254649 1.000000 5.317496
v 0.254649 1.144935 5.317496
v -0.666602 1.000000 -5.212447
v -0.666602 1.144935 -5.212447
v 0.654463 1.000000 5.282517
v 0.654463 1.144935 5.282517
v -0.266788 1.000000 -5.247426
v -0.266788 1.144935 -5.247426
vt 0.7120 0.8417
vt 0.7661 0.8810
vt 0.7661 0.8417
vt 0.8509 0.0309
vt 0.7972 0.2000
vt 0.7972 0.0309
vt 0.3544 0.8363
vt 0.0162 0.7977
vt 0.3544 0.7977
vt 0.6564 0.8417
vt 0.7661 0.9098
vt 0.7661 0.8417
vt 0.9061 0.2000
vt 0.7972 0.3132
vt 0.7972 0.2000
vt 0.6564 0.9098
vt 0.7661 0.8417
vt 0.7661 0.9098
vt 0.3544 0.8646
vt 0.5822 0.7977
vt 0.5822 0.8646
vt 0.6061 0.8417
vt 0.6291 0.8779
vt 0.6291 0.8417
vt 0.9560 0.1432
vt 0.9332 0.2000
vt 0.9332 0.1432
vt 0.6061 0.8779
vt 0.6291 0.8417
vt 0.6291 0.8779
vt 0.2407 0.8332
vt 0.3542 0.7977
vt 0.3542 0.8332
vt 0.6061 0.1209
vt 0.7661 0.8417
vt 0.7661 0.1209
vt 0.9560 0.0309
vt 0.7972 0.3139
vt 0.7972 0.0309
vt 0.6061 0.8417
vt 0.7661 0.1209
vt 0.7661 0.8417
vt 0.0162 0.7977
vt 0.5822 0.0902
vt 0.5822 0.7977
vt 0.7661 0.0816
vt 0.7120 0.1209
vt 0.7661 0.1209
vt 0.7972 0.2024
vt 0.8509 0.0309
vt 0.7972 0.0309
vt 0.3544 0.0516
vt 0.0162 0.0902
vt 0.0162 0.0516
vt 0.7661 0.0527
vt 0.6564 0.1209
vt 0.7661 0.1209
vt 0.7972 0.3132
vt 0.9061 0.2024
vt 0.7972 0.2024
vt 0.7661 0.1209
vt 0.6564 0.0527
vt 0.7661 0.0527
vt 0.5822 0.0902
vt 0.3544 0.0233
vt 0.5822 0.0233
vt 0.6291 0.0847
vt 0.6061 0.1209
vt 0.6291 0.1209
vt 0.9332 0.2023
vt 0.9560 0.1455
vt 0.9332 0.1455
vt 0.6291 0.1209
vt 0.6061 0.0847
vt 0.6291 0.0847
vt 0.3542 0.0902
vt 0.2407 0.0547
vt 0.3542 0.0547
vt 0.7972 0.3139
vt 0.9560 0.0309
vt 0.7972 0.0309
vt 0.6082 0.0245
vt 0.6349 0.8777
vt 0.6349 0.0245
vt 0.8801 0.1449
vt 0.8544 0.2017
vt 0.8544 0.1449
vt 0.6082 0.8777
vt 0.6349 0.0245
vt 0.6349 0.8777
vt 0.2441 0.9643
vt 0.3577 0.0870
vt 0.3577 0.9643
vt 0.8553 0.1449
vt 0.8245 0.0879
vt 0.8553 0.0879
vt 0.7120 0.8810
vt 0.8509 0.2000
vt 0.0162 0.8363
vt 0.6564 0.9098
vt 0.9061 0.3132
vt 0.6564 0.8417
vt 0.3544 0.7977
vt 0.6061 0.8779
vt 0.9560 0.2000
vt 0.6061 0.8417
vt 0.2407 0.7977
vt 0.6061 0.8417
vt 0.9560 0.3139
vt 0.6061 0.1209
vt 0.0162 0.0902
vt 0.7120 0.0816
vt 0.8509 0.2024
vt 0.3544 0.0902
vt 0.6564 0.0527
vt 0.9061 0.3132
vt 0.6564 0.1209
vt 0.3544 0.0902
vt 0.6061 0.0847
vt 0.9560 0.2023
vt 0.6061 0.1209
vt 0.2407 0.0902
vt 0.9560 0.3139
vt 0.6082 0.8777
vt 0.8801 0.2017
vt 0.6082 0.0245
vt 0.2441 0.0870
vt 0.8245 0.1449
vn -1.0000 0.0000 0.0000
vn 0.0000 0.0000 -1.0000
vn 0.0000 1.0000 0.0000
vn 1.0000 0.0000 0.0000
vn 0.0000 0.0000 1.0000
vn -0.9962 0.0000 0.0872
vn -0.0872 0.0000 -0.9962
vn 0.9962 0.0000 -0.0872
vn 0.0872 0.0000 0.9962
usemtl WoodenPile
s 1
f 2/1/1 3/2/1 1/3/1
f 4/4/2 6/5/2 3/6/2
f 7/7/3 2/8/3 5/9/3
f 9/10/1 10/11/1 8/12/1
f 11/13/2 14/14/2 10/15/2
f 15/16/4 12/17/4 14/18/4
f 11/19/3 13/20/3 15/21/3
f 17/22/1 18/23/1 16/24/1
f 19/25/2 22/26/2 18/27/2
f 23/28/4 20/29/4 22/30/4
f 19/31/3 21/32/3 23/33/3
f 25/34/1 26/35/1 24/36/1
f 27/37/2 30/38/2 26/39/2
f 31/40/4 28/41/4 30/42/4
f 27/43/3 29/44/3 31/45/3
f 34/46/1 33/47/1 32/48/1
f 37/49/5 35/50/5 34/51/5
f 38/52/3 33/53/3 35/54/3
f 41/55/1 40/56/1 39/57/1
f 45/58/5 42/59/5 41/60/5
f 43/61/4 46/62/4 45/63/4
f 44/64/3 42/65/3 46/66/3
f 49/67/1 48/68/1 47/69/1
f 53/70/5 50/71/5 49/72/5
f 51/73/4 54/74/4 53/75/4
f 52/76/3 50/77/3 54/78/3
f 57/79/5 56/80/5 55/81/5
f 60/82/6 61/83/6 59/84/6
f 62/85/7 65/86/7 61/87/7
f 66/88/8 63/89/8 65/90/8
f 62/91/3 64/92/3 66/93/3
f 63/94/9 60/95/9 59/96/9
f 2/1/1 4/97/1 3/2/1
f 4/4/2 7/98/2 6/5/2
f 7/7/3 4/99/3 2/8/3
f 9/10/1 11/100/1 10/11/1
f 11/13/2 15/101/2 14/14/2
f 15/16/4 13/102/4 12/17/4
f 11/19/3 9/103/3 13/20/3
f 17/22/1 19/104/1 18/23/1
f 19/25/2 23/105/2 22/26/2
f 23/28/4 21/106/4 20/29/4
f 19/31/3 17/107/3 21/32/3
f 25/34/1 27/108/1 26/35/1
f 27/37/2 31/109/2 30/38/2
f 31/40/4 29/110/4 28/41/4
f 27/43/3 25/111/3 29/44/3
f 34/46/1 35/112/1 33/47/1
f 37/49/5 38/113/5 35/50/5
f 38/52/3 36/114/3 33/53/3
f 41/55/1 42/115/1 40/56/1
f 45/58/5 46/116/5 42/59/5
f 43/61/4 44/117/4 46/62/4
f 44/64/3 40/118/3 42/65/3
f 49/67/1 50/119/1 48/68/1
f 53/70/5 54/120/5 50/71/5
f 51/73/4 52/121/4 54/74/4
f 52/76/3 48/122/3 50/77/3
f 57/79/5 58/123/5 56/80/5
f 60/82/6 62/124/6 61/83/6
f 62/85/7 66/125/7 65/86/7
f 66/88/8 64/126/8 63/89/8
f 62/91/3 60/127/3 64/92/3
f 63/94/9 64/128/9 60/95/9
