# Blender v2.78 (sub 0) OBJ File: ''
# www.blender.org
mtllib Bench.mtl
o Bench
v 4.940665 1.077937 2.272669
v 4.914883 1.151761 2.335001
v 4.931643 1.334080 1.965569
v 4.905859 1.407903 2.027901
v -0.012602 0.304915 1.251317
v -0.038433 0.381389 1.310185
v -0.008090 0.062129 1.568697
v -0.033922 0.138603 1.627565
v -3.945471 1.568861 1.784315
v -3.916123 1.664431 1.786571
v -3.910633 1.567568 1.385837
v -3.881285 1.663138 1.388093
v -5.095888 1.500000 1.348496
v -5.095888 1.600000 1.348496
v -5.103602 1.500000 0.548532
v -5.103602 1.600000 0.548532
v 5.103547 1.378172 1.240460
v 5.103631 1.477792 1.249175
v 5.095862 1.447897 0.443541
v 5.095945 1.547516 0.452256
v -5.100000 1.500000 -1.600000
v -5.100000 1.600000 -1.600000
v -5.100000 1.500000 -2.000000
v -5.100000 1.600000 -2.000000
v 5.100000 1.639639 -1.598269
v 5.100000 1.739259 -1.589554
v 5.100000 1.674502 -1.996747
v 5.100000 1.774121 -1.988032
v -5.100000 1.500000 -0.600000
v -5.100000 1.600000 -0.600000
v -5.100000 1.500000 -1.400000
v -5.100000 1.600000 -1.400000
v 5.100000 1.552484 -0.602074
v 5.100000 1.652103 -0.593359
v 5.100000 1.622208 -1.399030
v 5.100000 1.721828 -1.390315
v -5.100000 1.500000 0.400000
v -5.100000 1.600000 0.400000
v -5.100000 1.500000 -0.400000
v -5.100000 1.600000 -0.400000
v 5.100000 1.465328 0.394120
v 5.100000 1.564947 0.402836
v 5.100000 1.535053 -0.402836
v 5.100000 1.634672 -0.394120
v 0.924547 -0.000030 1.808412
v 0.953459 0.095373 1.815004
v 0.884660 -0.015398 2.205738
v 0.913571 0.080004 2.212331
v 0.000000 1.287364 -1.399515
v 0.000000 1.387174 -1.395158
v 0.000000 1.252502 -0.601037
v 0.000000 1.352311 -0.596679
v 0.771605 1.549909 -2.166701
v 0.771605 1.649718 -2.162344
v 0.771605 1.532477 -1.767463
v 0.771605 1.632287 -1.763105
v 4.000000 0.100000 -0.300000
v 4.000000 1.333835 -0.286657
v 4.259808 0.100000 -0.150000
v 4.259808 1.320761 -0.137227
v 4.259808 0.100000 0.150000
v 4.259808 1.294615 0.161631
v 4.000000 0.100000 0.300000
v 4.000000 1.281541 0.311060
v 3.740192 0.100000 0.150000
v 3.740192 1.294615 0.161631
v 3.740192 0.100000 -0.150000
v 3.740192 1.320761 -0.137227
v 4.000000 0.100000 -0.468000
v 4.405300 0.100000 -0.234000
v 4.405300 0.100000 0.234000
v 4.000000 0.100000 0.468000
v 3.594700 0.100000 0.234000
v 3.594700 0.100000 -0.234000
v 4.000000 0.000000 -0.468000
v 4.405300 0.000000 -0.234000
v 4.405300 0.000000 0.234000
v 4.000000 0.000000 0.468000
v 3.594700 0.000000 0.234000
v 3.594700 0.000000 -0.234000
v 4.259808 0.792458 1.996468
v 3.740192 0.792458 1.996468
v 3.740192 0.973719 2.080991
v 4.259808 0.973719 2.080991
v 4.259808 1.486852 -2.129617
v 3.740192 1.486852 -2.129617
v 3.740192 1.686091 -2.112186
v 4.259808 1.686091 -2.112186
v 3.740192 1.399033 1.168903
v 4.259808 1.217771 1.084380
v 4.259808 1.399033 1.168903
v 3.740192 1.217771 1.084380
v -4.000000 0.100000 -0.300000
v -4.000000 1.300000 -0.300000
v -3.740192 0.100000 -0.150000
v -3.740192 1.300000 -0.150000
v -3.740192 0.100000 0.150000
v -3.740192 1.300000 0.150000
v -4.000000 0.100000 0.300000
v -4.000000 1.300000 0.300000
v -4.259808 0.100000 0.150000
v -4.259808 1.300000 0.150000
v -4.259808 0.100000 -0.150000
v -4.259808 1.300000 -0.150000
v -4.000000 0.100000 -0.468000
v -3.594700 0.100000 -0.234000
v -3.594700 0.100000 0.234000
v -4.000000 0.100000 0.468000
v -4.405300 0.100000 0.234000
v -4.405300 0.100000 -0.234000
v -4.000000 0.000000 -0.468000
v -3.594700 0.000000 -0.234000
v -3.594700 0.000000 0.234000
v -4.000000 0.000000 0.468000
v -4.405300 0.000000 0.234000
v -4.405300 0.000000 -0.234000
v -3.740192 1.300000 2.150000
v -4.259808 1.300000 2.150000
v -4.259808 1.500000 2.150000
v -3.740192 1.500000 2.150000
v -3.740192 1.300000 -2.150000
v -4.259808 1.300000 -2.150000
v -4.259808 1.500000 -2.150000
v -3.740192 1.500000 -2.150000
vt 0.5035 0.4252
vt 0.9862 0.3656
vt 0.9862 0.4252
vt 0.9956 0.3656
vt 0.9862 0.1251
vt 0.9956 0.1251
vt 0.5035 0.1251
vt 0.5035 0.0724
vt 0.9862 0.0724
vt 0.0082 0.1251
vt 0.0178 0.3656
vt 0.0082 0.3656
vt 0.5035 0.1251
vt 0.0178 0.0724
vt 0.5035 0.0724
vt 0.5035 0.3656
vt 0.0178 0.1251
vt 0.0178 0.1251
vt 0.0082 0.3656
vt 0.0082 0.1251
vt 0.0178 0.4252
vt 0.9862 0.3656
vt 0.9862 0.4252
vt 0.9956 0.1251
vt 0.9956 0.3656
vt 0.9862 0.1251
vt 0.0178 0.0724
vt 0.9862 0.0724
vt 0.9860 0.1251
vt 0.9956 0.3656
vt 0.9956 0.1251
vt 0.4337 0.3656
vt 0.0176 0.4252
vt 0.4337 0.4252
vt 0.0176 0.3656
vt 0.0082 0.1251
vt 0.0082 0.3656
vt 0.4337 0.0724
vt 0.9860 0.0724
vt 0.9860 0.3656
vt 0.4337 0.1251
vt 0.0178 0.1251
vt 0.0082 0.3656
vt 0.0082 0.1251
vt 0.5035 0.3656
vt 0.9862 0.4252
vt 0.5035 0.4252
vt 0.9862 0.3656
vt 0.9956 0.1251
vt 0.9956 0.3656
vt 0.5035 0.1251
vt 0.0178 0.0724
vt 0.5035 0.0724
vt 0.9860 0.1251
vt 0.9956 0.3656
vt 0.9956 0.1251
vt 0.9860 0.3656
vt 0.0176 0.4252
vt 0.9860 0.4252
vt 0.0176 0.3656
vt 0.0082 0.1251
vt 0.0082 0.3656
vt 0.0176 0.1251
vt 0.9860 0.0724
vt 0.0176 0.0724
vt 0.0178 0.4252
vt 0.5035 0.4252
vt 0.9862 0.1251
vt 0.9862 0.0724
vt 0.0178 0.4252
vt 0.0176 0.1251
vt 0.0176 0.0724
vt 0.9860 0.4252
vt 0.6280 0.8504
vt 0.5905 0.9856
vt 0.5853 0.9491
vt 0.5853 0.5543
vt 0.6280 0.6530
vt 0.5421 0.6530
vt 0.5421 0.8514
vt 0.5315 0.6530
vt 0.6333 0.6165
vt 0.5372 0.8869
vt 0.5797 0.5171
vt 0.6386 0.8514
vt 0.4996 0.6302
vt 0.1412 0.8594
vt 0.1412 0.6302
vt 0.1412 0.5455
vt 0.1412 0.9479
vt 0.0312 0.8594
vt 0.0080 0.6302
vt 0.0312 0.6302
vt 0.5224 0.8594
vt 0.4996 0.8594
vt 0.4996 0.9479
vt 0.0312 0.5455
vt 0.7599 0.5234
vt 0.7314 0.9819
vt 0.7315 0.5234
vt 0.7030 0.9819
vt 0.7031 0.5234
vt 0.6747 0.5234
vt 0.6747 0.9819
vt 0.6464 0.5234
vt 0.8164 0.9819
vt 0.7883 0.5234
vt 0.8166 0.5234
vt 0.7597 0.9819
vt 0.6746 0.9819
vt 0.6464 0.5234
vt 0.6746 0.5234
vt 0.8158 0.9819
vt 0.7875 0.5234
vt 0.8158 0.5234
vt 0.7875 0.9819
vt 0.7593 0.5234
vt 0.7593 0.9819
vt 0.7311 0.5234
vt 0.7311 0.9819
vt 0.7028 0.5234
vt 0.7028 0.9819
vt 0.6280 0.8504
vt 0.5905 0.9856
vt 0.5853 0.9491
vt 0.5853 0.5543
vt 0.6280 0.6530
vt 0.5421 0.6530
vt 0.5421 0.8514
vt 0.5315 0.6530
vt 0.6333 0.6165
vt 0.5372 0.8869
vt 0.5797 0.5171
vt 0.6386 0.8514
vt 0.4996 0.6302
vt 0.0312 0.8594
vt 0.0312 0.6302
vt 0.4996 0.5455
vt 0.0312 0.5455
vt 0.0312 0.9479
vt 0.4996 0.8594
vt 0.4996 0.9479
vt 0.0080 0.6302
vt 0.5224 0.8594
vt 0.5035 0.3656
vt 0.0178 0.3656
vt 0.0178 0.3656
vt 0.6333 0.8869
vt 0.5315 0.8514
vt 0.5903 0.5171
vt 0.5797 0.9873
vt 0.5372 0.6165
vt 0.6386 0.6530
vt 0.4996 0.5455
vt 0.0312 0.9479
vt 0.0080 0.8594
vt 0.5224 0.6302
vt 0.6464 0.9819
vt 0.7880 0.9819
vt 0.6464 0.9819
vt 0.6333 0.8869
vt 0.5315 0.8514
vt 0.5903 0.5171
vt 0.5797 0.9873
vt 0.5372 0.6165
vt 0.6385 0.6530
vt 0.0080 0.8594
vt 0.5224 0.6302
vn -0.0110 0.6080 -0.7938
vn 0.4014 0.9159 -0.0010
vn 0.6702 0.6013 -0.4350
vn 0.4275 0.1752 0.8869
vn 0.7025 -0.2997 0.6455
vn -0.1665 0.1180 0.9789
vn 0.0110 -0.6080 0.7938
vn -0.7314 0.2089 0.6491
vn -0.3253 0.7229 -0.6095
vn -0.6083 0.2053 -0.7667
vn 0.1443 0.6406 0.7542
vn -0.0994 -0.0386 0.9943
vn 0.2855 0.6953 -0.6596
vn -0.4256 0.7266 0.5394
vn -0.5702 0.5790 0.5827
vn -0.7127 0.0004 -0.7015
vn -0.6975 -0.0004 0.7165
vn 0.5752 0.6218 -0.5314
vn 0.7014 0.0615 -0.7101
vn 0.7165 -0.0614 0.6948
vn 0.5864 0.5210 0.6202
vn -0.5712 0.5741 0.5866
vn -0.7189 0.0000 -0.6951
vn -0.6982 0.0000 0.7158
vn -0.0092 0.7276 -0.6859
vn 0.7135 0.0606 -0.6980
vn 0.0046 0.0434 -0.9990
vn 0.5793 0.6352 -0.5107
vn 0.6870 -0.0629 0.7239
vn -0.0046 -0.0434 0.9990
vn -0.5862 0.5771 -0.5686
vn -0.0171 0.6805 0.7325
vn -0.5661 0.5905 0.5751
vn -0.6974 0.0004 -0.7166
vn -0.6965 -0.0004 0.7175
vn -0.0043 0.7259 -0.6878
vn 0.6908 0.0626 -0.7203
vn -0.0004 0.0436 -0.9990
vn 0.5586 0.6452 -0.5212
vn 0.6957 -0.0622 0.7156
vn -0.0032 0.6620 0.7494
vn 0.0004 -0.0436 0.9990
vn -0.5782 0.5763 0.5775
vn -0.7080 0.0000 -0.7062
vn -0.7064 -0.0004 0.7078
vn -0.5783 0.5763 -0.5774
vn 0.7064 0.0613 -0.7051
vn 0.5782 0.6245 -0.5251
vn 0.7080 -0.0615 0.7035
vn 0.5783 0.5238 0.6254
vn 0.0994 0.0386 -0.9943
vn 0.5611 0.5456 0.6224
vn 0.5600 0.5306 0.6362
vn 0.0000 0.6100 -0.7924
vn -0.8660 0.0000 -0.5000
vn -0.6862 0.6100 -0.3962
vn 0.6862 0.6100 0.3962
vn 0.6862 0.6100 -0.3962
vn 0.0000 0.6100 0.7924
vn -0.6862 0.6100 0.3962
vn 0.0000 0.0000 1.0000
vn 0.8660 0.0000 -0.5000
vn -0.8660 0.0000 0.5000
vn 0.8660 0.0000 0.5000
vn 0.0000 0.0000 -1.0000
vn 0.5773 0.6254 -0.5248
vn -0.6700 0.7170 0.1921
vn 0.6700 0.7170 0.1921
vn 1.0000 0.0000 0.0000
vn -1.0000 0.0000 0.0000
vn -0.5773 0.2792 0.7672
vn 0.7071 -0.2988 0.6408
vn 0.5773 0.2792 0.7672
vn -0.7063 0.0617 -0.7053
vn -0.5773 0.6254 -0.5248
vn 0.8646 0.0052 -0.5025
vn 0.8761 -0.0047 0.4821
vn 0.8673 -0.0047 0.4977
vn 0.0000 -0.0097 0.9999
vn 0.0000 -0.0093 0.9999
vn -0.8673 -0.0047 0.4977
vn -0.8761 -0.0047 0.4821
vn -0.8646 0.0052 -0.5025
vn -0.8548 0.0056 -0.5189
vn 0.0000 0.0105 -0.9999
vn 0.8548 0.0056 -0.5189
vn 0.5773 0.5773 -0.5773
vn -0.5773 0.5773 0.5773
vn 0.5773 0.5773 0.5773
vn 0.7071 0.0000 -0.7071
vn 0.7071 0.0000 0.7071
vn -0.7071 0.0000 0.7071
vn -0.5773 0.5773 -0.5773
vn -0.7071 0.0000 -0.7071
vn -0.1819 0.9734 -0.1393
vn -0.5815 0.5789 -0.5716
vn -0.5660 0.5903 -0.5755
vn 0.7063 0.0617 -0.7053
vn -0.7071 -0.2988 0.6408
vn 0.0000 0.0108 -0.9999
usemtl Bench
s 1
f 5/1/1 4/2/2 3/3/3
f 3/4/3 2/5/4 1/6/5
f 4/2/2 8/7/6 2/5/4
f 2/5/4 7/8/7 1/9/5
f 9/10/8 12/11/9 11/12/10
f 48/13/11 9/14/8 47/15/12
f 46/16/13 10/17/14 48/13/11
f 14/18/15 15/19/16 13/20/17
f 15/21/16 20/22/18 19/23/19
f 20/22/18 17/24/20 19/25/19
f 18/26/21 13/27/17 17/28/20
f 20/22/18 14/18/15 18/26/21
f 22/29/22 23/30/23 21/31/24
f 54/32/25 27/33/26 53/34/27
f 28/35/28 25/36/29 27/37/26
f 55/38/30 22/29/22 21/39/24
f 24/40/31 56/41/32 54/32/25
f 30/42/33 31/43/34 29/44/35
f 50/45/36 35/46/37 49/47/38
f 36/48/39 33/49/40 35/50/37
f 52/51/41 29/52/35 51/53/42
f 50/45/36 30/42/33 52/51/41
f 38/54/43 39/55/44 37/56/45
f 40/57/46 43/58/47 39/59/44
f 44/60/48 41/61/49 43/62/47
f 42/63/50 37/64/45 41/65/49
f 44/60/48 38/54/43 42/63/50
f 11/66/10 46/16/13 45/67/51
f 50/45/36 34/68/52 36/48/39
f 33/69/40 52/51/41 51/53/42
f 31/70/34 50/45/36 49/47/38
f 28/35/28 56/41/32 26/71/53
f 25/72/29 56/41/32 55/38/30
f 24/40/31 53/34/27 23/73/23
f 69/74/54 80/75/55 74/76/56
f 71/77/57 70/78/58 72/79/59
f 73/80/60 78/81/61 72/79/59
f 71/77/57 76/82/62 70/78/58
f 74/76/56 79/83/63 73/80/60
f 72/79/59 77/84/64 71/77/57
f 70/78/58 75/85/65 69/74/54
f 88/86/66 89/87/67 91/88/68
f 90/89/69 88/86/66 91/88/68
f 92/90/70 83/91/71 89/87/67
f 83/91/71 81/92/72 84/93/73
f 88/86/66 86/94/74 87/95/75
f 70/78/58 69/74/54 72/79/59
f 69/74/54 74/76/56 72/79/59
f 72/79/59 74/76/56 73/80/60
f 92/90/70 87/95/75 86/96/74
f 90/89/69 84/93/73 81/97/72
f 91/88/68 83/91/71 84/93/73
f 59/98/76 62/99/77 61/100/78
f 61/100/78 64/101/79 63/102/80
f 64/101/79 65/103/81 63/102/80
f 66/104/82 67/105/83 65/103/81
f 68/106/84 57/107/85 67/108/83
f 57/107/85 60/109/86 59/98/76
f 94/110/65 95/111/62 93/112/65
f 96/113/62 97/114/64 95/115/62
f 98/116/64 99/117/61 97/114/64
f 100/118/61 101/119/63 99/117/61
f 102/120/63 103/121/55 101/119/63
f 104/122/55 93/112/65 103/121/55
f 105/123/54 116/124/55 110/125/56
f 107/126/57 106/127/58 108/128/59
f 109/129/60 114/130/61 108/128/59
f 107/126/57 112/131/62 106/127/58
f 110/125/56 115/132/63 109/129/60
f 108/128/59 113/133/64 107/126/57
f 106/127/58 111/134/65 105/123/54
f 124/135/87 119/136/88 120/137/89
f 121/138/90 120/137/89 117/139/91
f 118/140/92 123/141/93 122/142/94
f 119/136/88 117/143/91 120/137/89
f 124/135/87 122/144/94 123/141/93
f 106/127/58 105/123/54 108/128/59
f 105/123/54 110/125/56 108/128/59
f 108/128/59 110/125/56 109/129/60
f 5/1/1 6/145/95 4/2/2
f 3/4/3 4/2/2 2/5/4
f 4/2/2 6/145/95 8/7/6
f 2/5/4 8/7/6 7/8/7
f 9/10/8 10/17/14 12/11/9
f 48/13/11 10/17/14 9/14/8
f 46/16/13 12/11/9 10/17/14
f 14/18/15 16/146/96 15/19/16
f 15/21/16 16/146/96 20/22/18
f 20/22/18 18/26/21 17/24/20
f 18/26/21 14/18/15 13/27/17
f 20/22/18 16/146/96 14/18/15
f 22/29/22 24/40/31 23/30/23
f 54/32/25 28/35/28 27/33/26
f 28/35/28 26/71/53 25/36/29
f 55/38/30 56/41/32 22/29/22
f 24/40/31 22/29/22 56/41/32
f 30/42/33 32/147/97 31/43/34
f 50/45/36 36/48/39 35/46/37
f 36/48/39 34/68/52 33/49/40
f 52/51/41 30/42/33 29/52/35
f 50/45/36 32/147/97 30/42/33
f 38/54/43 40/57/46 39/55/44
f 40/57/46 44/60/48 43/58/47
f 44/60/48 42/63/50 41/61/49
f 42/63/50 38/54/43 37/64/45
f 44/60/48 40/57/46 38/54/43
f 11/66/10 12/11/9 46/16/13
f 50/45/36 52/51/41 34/68/52
f 33/69/40 34/68/52 52/51/41
f 31/70/34 32/147/97 50/45/36
f 28/35/28 54/32/25 56/41/32
f 25/72/29 26/71/53 56/41/32
f 24/40/31 54/32/25 53/34/27
f 69/74/54 75/148/65 80/75/55
f 73/80/60 79/149/63 78/81/61
f 71/77/57 77/150/64 76/82/62
f 74/76/56 80/151/55 79/83/63
f 72/79/59 78/152/61 77/84/64
f 70/78/58 76/153/62 75/85/65
f 88/86/66 87/95/75 89/87/67
f 90/89/69 85/154/98 88/86/66
f 92/90/70 82/155/99 83/91/71
f 83/91/71 82/156/99 81/92/72
f 88/86/66 85/157/98 86/94/74
f 92/90/70 89/87/67 87/95/75
f 90/89/69 91/88/68 84/93/73
f 91/88/68 89/87/67 83/91/71
f 59/98/76 60/109/86 62/99/77
f 61/100/78 62/99/77 64/101/79
f 64/101/79 66/104/82 65/103/81
f 66/104/82 68/158/84 67/105/83
f 68/106/84 58/159/100 57/107/85
f 57/107/85 58/159/100 60/109/86
f 94/110/65 96/160/62 95/111/62
f 96/113/62 98/116/64 97/114/64
f 98/116/64 100/118/61 99/117/61
f 100/118/61 102/120/63 101/119/63
f 102/120/63 104/122/55 103/121/55
f 104/122/55 94/110/65 93/112/65
f 105/123/54 111/161/65 116/124/55
f 109/129/60 115/162/63 114/130/61
f 107/126/57 113/163/64 112/131/62
f 110/125/56 116/164/55 115/132/63
f 108/128/59 114/165/61 113/133/64
f 106/127/58 112/166/62 111/134/65
f 124/135/87 123/141/93 119/136/88
f 121/138/90 124/135/87 120/137/89
f 118/140/92 119/136/88 123/141/93
f 119/136/88 118/167/92 117/143/91
f 124/135/87 121/168/90 122/144/94
