# Blender v2.78 (sub 0) OBJ File: ''
# www.blender.org
mtllib Chair.mtl
o Chair
v 0.160000 4.400001 1.300000
v 0.210000 5.200001 1.300000
v 0.280000 4.400001 1.300000
v 0.330000 5.200001 1.300000
v -2.150001 2.770000 1.300000
v -2.150001 2.870000 1.300000
v -0.250000 2.770000 1.300000
v -0.250000 2.870000 1.300000
v 0.100000 2.400000 1.360000
v -0.050000 2.400000 1.273398
v 0.033013 2.650000 1.360000
v -0.096891 2.575000 1.446603
v -0.096891 2.575000 1.273398
v -0.150000 2.833013 1.360000
v -0.225000 2.703109 1.446603
v -0.225000 2.703109 1.273398
v -0.400000 2.900000 1.360000
v -0.400000 2.750000 1.446603
v -0.400000 2.750000 1.273398
v 0.300000 -0.000000 1.360000
v 0.150000 -0.000000 1.446603
v 0.150000 -0.000000 1.273398
v -2.450877 2.650000 1.360000
v -2.320973 2.575000 1.446603
v -2.320973 2.575000 1.273398
v -2.267864 2.833013 1.360000
v -2.192864 2.703109 1.446603
v -2.192864 2.703109 1.273398
v -2.017864 2.900000 1.360000
v -2.017864 2.750000 1.446603
v -2.017864 2.750000 1.273398
v -2.817864 -0.000000 1.360000
v -2.667864 -0.000000 1.446603
v -2.667864 -0.000000 1.273398
v -0.050000 2.400000 1.446603
v 0.380939 5.441732 1.360000
v 0.230939 5.441732 1.446603
v 0.230939 5.441732 1.273398
v 0.160000 4.400001 -1.300000
v 0.210000 5.200001 -1.300000
v 0.360000 4.400001 -0.000000
v 0.410000 5.200001 -0.000000
v 0.280000 4.400001 -1.300000
v 0.330000 5.200001 -1.300000
v 0.480000 4.400001 -0.000000
v 0.530000 5.200001 -0.000000
v -2.150001 2.770000 -1.300000
v -2.150001 2.870000 -1.300000
v -2.150001 2.650405 0.000000
v -2.150001 2.750405 0.000000
v -0.250000 2.770000 -1.300000
v -0.250000 2.870000 -1.300000
v -0.250000 2.770000 0.000000
v -0.250000 2.870000 0.000000
v -0.050000 2.400000 -1.446603
v 0.033013 2.650000 -1.360000
v -0.096891 2.575000 -1.446603
v -0.096891 2.575000 -1.273398
v -0.150000 2.833013 -1.360000
v -0.225000 2.703109 -1.446603
v -0.225000 2.703109 -1.273398
v -0.400000 2.900000 -1.360000
v -0.400000 2.750000 -1.446603
v -0.400000 2.750000 -1.273398
v 0.300000 -0.000000 -1.360000
v 0.100000 2.400000 -1.360000
v 0.150000 -0.000000 -1.446603
v 0.150000 -0.000000 -1.273398
v -0.050000 2.400000 -1.273398
v -2.450877 2.650000 -1.360000
v -2.320973 2.575000 -1.446603
v -2.320973 2.575000 -1.273397
v -2.267864 2.833013 -1.360000
v -2.192864 2.703109 -1.446603
v -2.192864 2.703109 -1.273398
v -2.017864 2.900000 -1.360000
v -2.017864 2.750000 -1.446603
v -2.017864 2.750000 -1.273398
v -2.817864 -0.000000 -1.360000
v -2.667864 -0.000000 -1.446602
v -2.667864 -0.000000 -1.273397
v 0.380939 5.441732 -1.360000
v 0.230939 5.441732 -1.446603
v 0.230939 5.441732 -1.273398
vt 0.0380 0.7652
vt 0.5270 0.9520
vt 0.0380 0.9520
vt 0.5270 0.5322
vt 0.0380 0.7190
vt 0.0380 0.5322
vt 0.0001 0.7190
vt 0.0001 0.5322
vt 0.5270 0.7652
vt 0.5270 0.7190
vt 0.0015 0.0406
vt 0.0372 0.5227
vt 0.0001 0.5260
vt 0.7450 0.5207
vt 0.7822 0.0373
vt 0.7822 0.5207
vt 0.7450 0.0373
vt 0.0385 0.0001
vt 0.7450 0.0001
vt 0.0385 0.0373
vt 0.9541 0.6075
vt 0.9733 0.6324
vt 0.9541 0.6324
vt 0.9733 0.6075
vt 0.9939 0.6324
vt 0.9323 0.6324
vt 0.9733 0.5860
vt 0.9939 0.6075
vt 0.9323 0.5860
vt 0.9323 0.6075
vt 0.9541 0.5860
vt 0.9733 0.5629
vt 0.9939 0.5860
vt 0.9541 0.5629
vt 0.9732 0.9163
vt 0.9541 0.6324
vt 0.9732 0.6324
vt 0.9541 0.9163
vt 0.9323 0.6324
vt 0.9936 0.6324
vt 0.9541 0.3243
vt 0.9733 0.3471
vt 0.9541 0.3471
vt 0.9733 0.3243
vt 0.9939 0.3471
vt 0.9323 0.3471
vt 0.9323 0.3243
vt 0.9541 0.3723
vt 0.9733 0.3723
vt 0.9323 0.3723
vt 0.9541 0.0087
vt 0.9733 0.0087
vt 0.9939 0.0087
vt 0.9939 0.3243
vt 0.9323 0.5629
vt 0.9939 0.3723
vt 0.9939 0.5629
vt 0.9732 0.6324
vt 0.9541 0.9943
vt 0.9541 0.6324
vt 0.9936 0.9943
vt 0.9936 0.6324
vt 0.9323 0.9943
vt 0.0380 0.7652
vt 0.0380 0.9520
vt 0.0380 0.7190
vt 0.0380 0.5322
vt 0.0001 0.7190
vt 0.0015 0.0406
vt 0.0385 0.0373
vt 0.7822 0.0373
vt 0.0385 0.0001
vt 0.7450 0.0373
vt 0.7450 0.0001
vt 0.9733 0.6324
vt 0.9541 0.6075
vt 0.9541 0.6324
vt 0.9939 0.6324
vt 0.9733 0.6075
vt 0.9323 0.6324
vt 0.9323 0.6075
vt 0.9733 0.5860
vt 0.9541 0.5860
vt 0.9939 0.6075
vt 0.9323 0.5860
vt 0.9733 0.5629
vt 0.9541 0.5629
vt 0.9939 0.5860
vt 0.9323 0.5629
vt 0.9541 0.6324
vt 0.9732 0.9163
vt 0.9732 0.6324
vt 0.9323 0.6324
vt 0.9541 0.9163
vt 0.9936 0.6324
vt 0.9936 0.9163
vt 0.9541 0.3243
vt 0.9733 0.3471
vt 0.9733 0.3243
vt 0.9939 0.3471
vt 0.9939 0.3243
vt 0.9323 0.3471
vt 0.9323 0.3243
vt 0.9541 0.3723
vt 0.9541 0.3471
vt 0.9733 0.3723
vt 0.9323 0.3723
vt 0.9541 0.0087
vt 0.9939 0.0087
vt 0.9939 0.3723
vt 0.9939 0.5629
vt 0.9541 0.9943
vt 0.9732 0.6324
vt 0.9541 0.6324
vt 0.9936 0.9943
vt 0.9936 0.6324
vt 0.9323 0.9943
vt 0.9323 0.9163
vt 0.9936 0.9163
vt 0.9323 0.0087
vt 0.9732 0.9943
vt 0.0001 0.5322
vt 0.9323 0.9163
vt 0.9733 0.0087
vt 0.9323 0.0087
vt 0.9732 0.9943
vn -0.6037 0.5869 0.5396
vn -0.9980 0.0623 0.0000
vn -0.7703 0.0481 0.6359
vn 0.9980 -0.0623 0.0000
vn 0.5467 0.5702 0.6131
vn 0.6352 -0.0397 0.7713
vn -0.6460 0.7633 0.0000
vn 0.7588 0.6513 0.0000
vn -0.7269 0.0000 0.6868
vn -0.7494 0.6621 0.0000
vn -1.0000 0.0000 0.0000
vn 0.6986 0.7154 0.0000
vn 0.7071 0.0000 0.7071
vn 1.0000 0.0000 0.0000
vn 0.5773 0.5773 0.5773
vn -0.5810 0.5915 0.5591
vn 0.8660 0.5000 0.0000
vn -0.4803 -0.0340 0.8764
vn 0.9973 0.0737 0.0000
vn -0.3260 -0.1882 0.9264
vn -0.4803 -0.0340 -0.8764
vn -0.1882 -0.3260 0.9264
vn -0.3260 -0.1882 -0.9264
vn -0.1882 -0.3260 -0.9264
vn 0.5000 0.8660 0.0000
vn -0.0519 -0.4369 0.8980
vn 0.1221 0.9925 0.0000
vn -0.4637 -0.0386 0.8851
vn 0.9965 0.0830 0.0000
vn -0.4637 -0.0386 -0.8851
vn -0.8915 0.4530 0.0000
vn 0.1882 -0.3260 0.9264
vn -0.5000 0.8660 0.0000
vn 0.3029 -0.1578 0.9399
vn 0.1882 -0.3260 -0.9264
vn 0.3029 -0.1578 -0.9399
vn -0.1221 0.9925 0.0000
vn 0.0519 -0.4369 0.8980
vn 0.0519 -0.4369 -0.8980
vn -0.9910 0.1337 0.0000
vn 0.4398 -0.0592 0.8961
vn 0.4398 -0.0592 -0.8961
vn -0.0519 -0.4369 -0.8980
vn -0.4596 0.0424 0.8871
vn -0.4596 0.0424 -0.8871
vn -0.6037 0.5869 -0.5396
vn -0.7703 0.0481 -0.6359
vn 0.5467 0.5702 -0.6131
vn 0.6352 -0.0397 -0.7713
vn -0.7269 0.0000 -0.6868
vn -0.5810 0.5915 -0.5591
vn 0.7071 0.0000 -0.7071
vn 0.5773 0.5773 -0.5773
vn 0.9958 -0.0920 0.0000
usemtl Chair
s 1
f 2/1/1 41/2/2 1/3/3
f 45/4/4 4/5/5 3/6/6
f 3/6/6 2/7/1 1/8/3
f 42/9/7 4/5/5 46/10/8
f 5/11/9 50/12/10 49/13/11
f 54/14/12 7/15/13 53/16/14
f 8/17/15 5/18/9 7/19/13
f 54/14/12 6/20/16 8/17/15
f 54/14/12 50/12/10 6/20/16
f 11/21/17 35/22/18 9/23/19
f 12/24/20 10/25/21 35/22/18
f 10/26/21 11/21/17 9/23/19
f 11/21/17 15/27/22 12/24/20
f 15/27/22 13/28/23 12/24/20
f 16/29/24 11/21/17 13/30/23
f 14/31/25 18/32/26 15/27/22
f 18/32/26 16/33/24 15/27/22
f 16/29/24 17/34/27 14/31/25
f 9/35/19 21/36/28 20/37/29
f 35/38/18 22/39/30 21/36/28
f 22/40/30 9/35/19 20/37/29
f 23/41/31 27/42/32 26/43/33
f 24/44/34 28/45/35 27/42/32
f 23/41/31 28/46/35 25/47/36
f 27/42/32 29/48/37 26/43/33
f 28/45/35 30/49/38 27/42/32
f 26/43/33 31/50/39 28/46/35
f 24/44/34 32/51/40 33/52/41
f 25/47/36 32/51/40 23/41/31
f 24/44/34 34/53/42 25/54/36
f 17/34/27 30/49/38 18/32/26
f 31/50/39 17/34/27 19/55/43
f 18/32/26 31/56/39 19/57/43
f 9/58/19 37/59/44 35/60/18
f 38/61/45 9/58/19 10/62/21
f 35/60/18 38/63/45 10/26/21
f 41/2/2 40/64/46 39/65/47
f 45/4/4 44/66/48 46/10/8
f 43/67/49 40/68/46 44/66/48
f 44/66/48 42/9/7 46/10/8
f 47/69/50 50/12/10 48/70/51
f 51/71/52 54/14/12 53/16/14
f 47/72/50 52/73/53 51/74/52
f 54/14/12 52/73/53 48/70/51
f 54/14/12 48/70/51 50/12/10
f 55/75/21 56/76/17 66/77/19
f 69/78/18 57/79/23 55/75/21
f 69/80/18 56/76/17 58/81/20
f 56/76/17 60/82/24 59/83/25
f 58/84/20 60/82/24 57/79/23
f 58/81/20 59/83/25 61/85/22
f 59/83/25 63/86/43 62/87/27
f 61/88/22 63/86/43 60/82/24
f 61/85/22 62/87/27 64/89/26
f 67/90/30 66/91/19 65/92/29
f 68/93/28 55/94/21 67/90/30
f 68/95/28 66/91/19 69/96/18
f 70/97/31 74/98/35 71/99/36
f 71/99/36 75/100/32 72/101/34
f 75/102/32 70/97/31 72/103/34
f 76/104/37 74/98/35 73/105/33
f 77/106/39 75/100/32 74/98/35
f 78/107/38 73/105/33 75/102/32
f 71/99/36 79/108/40 70/97/31
f 79/108/40 72/103/34 70/97/31
f 81/109/41 71/99/36 72/101/34
f 77/106/39 62/87/27 63/86/43
f 62/87/27 78/107/38 64/89/26
f 78/110/38 63/86/43 64/111/26
f 83/112/45 66/113/19 55/114/21
f 66/113/19 84/115/44 69/116/18
f 84/117/44 55/114/21 69/80/18
f 2/1/1 42/9/7 41/2/2
f 45/4/4 46/10/8 4/5/5
f 3/6/6 4/5/5 2/7/1
f 42/9/7 2/1/1 4/5/5
f 5/11/9 6/20/16 50/12/10
f 54/14/12 8/17/15 7/15/13
f 8/17/15 6/20/16 5/18/9
f 11/21/17 12/24/20 35/22/18
f 12/24/20 13/28/23 10/25/21
f 10/26/21 13/30/23 11/21/17
f 11/21/17 14/31/25 15/27/22
f 15/27/22 16/33/24 13/28/23
f 16/29/24 14/31/25 11/21/17
f 14/31/25 17/34/27 18/32/26
f 18/32/26 19/57/43 16/33/24
f 16/29/24 19/55/43 17/34/27
f 9/35/19 35/38/18 21/36/28
f 35/38/18 10/118/21 22/39/30
f 22/40/30 10/119/21 9/35/19
f 23/41/31 24/44/34 27/42/32
f 24/44/34 25/54/36 28/45/35
f 23/41/31 26/43/33 28/46/35
f 27/42/32 30/49/38 29/48/37
f 28/45/35 31/56/39 30/49/38
f 26/43/33 29/48/37 31/50/39
f 24/44/34 23/41/31 32/51/40
f 25/47/36 34/120/42 32/51/40
f 24/44/34 33/52/41 34/53/42
f 17/34/27 29/48/37 30/49/38
f 31/50/39 29/48/37 17/34/27
f 18/32/26 30/49/38 31/56/39
f 9/58/19 36/121/54 37/59/44
f 38/61/45 36/121/54 9/58/19
f 35/60/18 37/59/44 38/63/45
f 41/2/2 42/9/7 40/64/46
f 45/4/4 43/67/49 44/66/48
f 43/67/49 39/122/47 40/68/46
f 44/66/48 40/64/46 42/9/7
f 47/69/50 49/13/11 50/12/10
f 51/71/52 52/73/53 54/14/12
f 47/72/50 48/70/51 52/73/53
f 55/75/21 57/79/23 56/76/17
f 69/78/18 58/84/20 57/79/23
f 69/80/18 66/77/19 56/76/17
f 56/76/17 57/79/23 60/82/24
f 58/84/20 61/88/22 60/82/24
f 58/81/20 56/76/17 59/83/25
f 59/83/25 60/82/24 63/86/43
f 61/88/22 64/111/26 63/86/43
f 61/85/22 59/83/25 62/87/27
f 67/90/30 55/94/21 66/91/19
f 68/93/28 69/123/18 55/94/21
f 68/95/28 65/92/29 66/91/19
f 70/97/31 73/105/33 74/98/35
f 71/99/36 74/98/35 75/100/32
f 75/102/32 73/105/33 70/97/31
f 76/104/37 77/106/39 74/98/35
f 77/106/39 78/110/38 75/100/32
f 78/107/38 76/104/37 73/105/33
f 71/99/36 80/124/42 79/108/40
f 79/108/40 81/125/41 72/103/34
f 81/109/41 80/124/42 71/99/36
f 77/106/39 76/104/37 62/87/27
f 62/87/27 76/104/37 78/107/38
f 78/110/38 77/106/39 63/86/43
f 83/112/45 82/126/54 66/113/19
f 66/113/19 82/126/54 84/115/44
f 84/117/44 83/112/45 55/114/21
