# Blender v2.78 (sub 0) OBJ File: 'untitled.blend'
# www.blender.org
mtllib Tank.mtl
o Tank
v 1.500000 -0.030854 -0.748290
v 1.500000 3.643116 0.857659
v 1.707040 -0.030854 -0.748290
v 1.707040 3.643116 0.857659
v 1.500000 -0.073116 -0.657659
v 1.500000 3.600854 0.948290
v 1.707040 -0.073116 -0.657659
v 1.707040 3.600854 0.948290
v 1.290439 -0.030854 0.748290
v 1.290439 3.643116 -0.857659
v 1.500000 -0.030854 0.748290
v 1.500000 3.643116 -0.857659
v 1.290439 -0.073116 0.657659
v 1.290439 3.600854 -0.948290
v 1.500000 -0.073116 0.657659
v 1.500000 3.600854 -0.948290
v -1.282559 3.630443 -0.948290
v -1.582721 -0.030421 0.657659
v -1.084081 3.595581 -0.938060
v -1.384243 -0.065284 0.667889
v -1.278875 3.672545 -0.857659
v -1.579037 0.011680 0.748290
v -1.080398 3.637682 -0.847430
v -1.380559 -0.023182 0.758520
v -1.858706 3.560719 0.948290
v -1.558544 -0.100146 -0.657659
v -1.620770 3.595581 0.948290
v -1.320609 -0.065284 -0.657659
v -1.862389 3.602820 0.857659
v -1.562228 -0.058045 -0.748290
v -1.624454 3.637682 0.857659
v -1.324292 -0.023182 -0.748290
v 1.536095 2.613906 -0.817755
v 1.363886 2.613906 0.849941
v 1.524903 2.983794 -0.817755
v 1.352694 2.983794 0.849941
v 1.635122 2.613906 -0.803838
v 1.462913 2.613906 0.863858
v 1.623930 2.983794 -0.803838
v 1.451721 2.983794 0.863858
v -1.311482 2.676498 -0.817755
v -1.493002 2.696445 0.849941
v -1.328654 2.974976 -0.817755
v -1.510174 2.994923 0.849941
v -1.410132 2.667867 -0.803838
v -1.591652 2.687814 0.863858
v -1.427304 2.966346 -0.803838
v -1.608824 2.986292 0.863858
v -1.735679 1.794925 0.063327
v 1.725356 1.770746 0.046910
v -1.735679 2.017348 0.063327
v 1.725356 1.993170 0.046910
v -1.721762 1.794925 -0.035700
v 1.739273 1.770746 -0.052117
v -1.721762 2.017348 -0.035700
v 1.739273 1.993170 -0.052117
v -2.893829 0.000000 0.000000
v -2.893829 3.400000 0.000000
v -2.956329 0.000000 0.108253
v -2.956329 3.400000 0.108253
v -3.081329 0.000000 0.108253
v -3.081329 3.400000 0.108253
v -3.143829 0.000000 0.000000
v -3.143829 3.400000 0.000000
v -3.081329 0.000000 -0.108253
v -3.081329 3.400000 -0.108253
v -2.956329 0.000000 -0.108253
v -2.956329 3.400000 -0.108253
v -2.318829 4.025000 0.000000
v -2.318829 3.962500 0.108253
v -2.318829 3.837500 0.108253
v -2.518829 3.837500 0.108253
v -2.318829 3.775000 0.000000
v -2.518829 3.775000 -0.000000
v -2.318829 3.837500 -0.108253
v -2.518829 3.837500 -0.108253
v -2.318829 3.962500 -0.108253
v -2.518829 4.025000 0.000000
v -2.518829 3.962500 -0.108253
v -2.518829 3.962500 0.108253
v -2.960771 3.841942 0.000000
v -2.916577 3.797747 -0.108253
v -2.828188 3.709359 -0.108253
v -2.783994 3.665165 0.000000
v -2.828188 3.709359 0.108253
v -2.916577 3.797747 0.108253
v 2.000000 3.500000 -0.866025
v 2.000000 4.500000 -0.866025
v 2.125000 3.133975 -0.433013
v 2.216506 3.500000 -0.750000
v 2.250000 4.000000 -0.866025
v 2.216506 4.500000 -0.750000
v 2.125000 4.866025 -0.433013
v 2.250000 3.133975 -0.000000
v 2.433013 3.500000 -0.000000
v 2.433013 4.500000 -0.000000
v 2.250000 4.866025 -0.000000
v 2.125000 3.133975 0.433012
v 2.216506 3.500000 0.750000
v 2.250000 4.000000 0.866025
v 2.216506 4.500000 0.750000
v 2.125000 4.866025 0.433012
v 2.000000 3.133975 0.500000
v 2.000000 3.500000 0.866025
v 2.000000 4.000000 1.000000
v 2.000000 4.866025 0.500000
v 2.000000 5.000000 -0.000000
v 2.000000 3.000000 -0.000000
v 2.000000 4.500000 0.866025
v 2.000000 4.866025 -0.500000
v 2.000000 4.000000 -1.000000
v 2.000000 3.133975 -0.500000
v -2.000000 3.000000 -0.000000
v -2.000000 5.000000 -0.000000
v -2.000000 4.866025 0.500000
v -2.000000 4.500000 0.866025
v -2.000000 4.000000 1.000000
v -2.000000 3.500000 0.866025
v -2.000000 3.133975 0.500000
v -2.125000 4.866025 0.433012
v -2.216506 4.500000 0.750000
v -2.250000 4.000000 0.866025
v -2.216506 3.500000 0.750000
v -2.125000 3.133975 0.433012
v -2.250000 4.866025 -0.000000
v -2.433013 4.500000 -0.000000
v -2.433013 3.500000 -0.000000
v -2.250000 3.133975 -0.000000
v -2.125000 4.866025 -0.433013
v -2.216506 4.500000 -0.750000
v -2.250000 4.000000 -0.866025
v -2.216506 3.500000 -0.750000
v -2.125000 3.133975 -0.433013
v -2.000000 4.866025 -0.500000
v -2.000000 4.500000 -0.866025
v -2.000000 4.000000 -1.000000
v -2.000000 3.500000 -0.866025
v -2.000000 3.133975 -0.500000
v -1.565690 1.220359 -0.185391
v -0.483528 0.034982 -0.673618
v -1.790566 1.040850 -0.266577
v -0.708405 -0.144527 -0.754804
v -1.545694 1.243306 -0.280647
v -0.463534 0.057929 -0.768874
v -1.770571 1.063796 -0.361833
v -0.688410 -0.121580 -0.850060
vt 0.0355 0.1263
vt 0.9876 0.1994
vt 0.9843 0.1263
vt 0.0355 0.2126
vt 0.9882 0.2126
vt 0.0355 0.0340
vt 0.9849 0.1111
vt 0.9882 0.0340
vt 0.0355 0.1111
vt 0.9876 0.1994
vt 0.0355 0.1263
vt 0.9843 0.1263
vt 0.0355 0.2126
vt 0.0355 0.1994
vt 0.9849 0.1111
vt 0.0355 0.0340
vt 0.9882 0.0340
vt 0.0355 0.1111
vt 0.0355 0.1111
vt 0.9843 0.1263
vt 0.9849 0.1111
vt 0.9882 0.0340
vt 0.9876 0.1994
vt 0.0355 0.2126
vt 0.9882 0.2126
vt 0.0355 0.1263
vt 0.9843 0.1263
vt 0.0355 0.1111
vt 0.9849 0.1111
vt 0.0355 0.0340
vt 0.9882 0.0340
vt 0.9876 0.1994
vt 0.0355 0.2126
vt 0.0355 0.1994
vt 0.0355 0.1263
vt 0.4231 0.1994
vt 0.7105 0.1263
vt 0.7107 0.1994
vt 0.4229 0.1263
vt 0.7099 0.1111
vt 0.4224 0.0340
vt 0.7101 0.0340
vt 0.7101 0.2126
vt 0.4053 0.0340
vt 0.4222 0.1111
vt 0.4051 0.1111
vt 0.7272 0.0340
vt 0.7270 0.1111
vt 0.7099 0.1111
vt 0.4224 0.0340
vt 0.7101 0.0340
vt 0.7105 0.1263
vt 0.4222 0.1111
vt 0.4231 0.1994
vt 0.4229 0.1263
vt 0.7107 0.1994
vt 0.4224 0.2126
vt 0.4051 0.1111
vt 0.4053 0.0340
vt 0.7270 0.1111
vt 0.0355 0.0340
vt 0.9053 0.1111
vt 0.0355 0.1111
vt 0.0355 0.1263
vt 0.9089 0.1263
vt 0.0355 0.1994
vt 0.9057 0.2126
vt 0.0355 0.2126
vt 0.9309 0.0340
vt 0.9057 0.0340
vt 0.0098 0.1111
vt 0.7758 0.2603
vt -0.0033 0.2871
vt -0.0032 0.2603
vt 0.7716 0.2893
vt -0.0034 0.3069
vt 0.7644 0.3080
vt -0.0035 0.3279
vt 0.7616 0.3273
vt -0.0035 0.3496
vt 0.7650 0.3474
vt -0.0034 0.3706
vt 0.7727 0.3676
vt -0.0033 0.3897
vt 0.9473 0.3261
vt 0.9955 0.3013
vt 0.9964 0.3274
vt 0.9436 0.3052
vt 0.9891 0.2758
vt 0.9346 0.2839
vt 0.9812 0.2603
vt 0.9264 0.3897
vt 0.9840 0.3737
vt 0.9763 0.3897
vt 0.9345 0.3652
vt 0.9915 0.3518
vt 0.9438 0.3460
vt 0.8536 0.3434
vt 0.8526 0.3897
vt 0.7778 0.3897
vt 0.8505 0.2603
vt 0.8515 0.3094
vt 0.8527 0.3264
vt 0.8529 0.3616
vt 0.9263 0.2603
vt 0.8516 0.2909
vt 0.9113 0.6521
vt 0.9137 0.7289
vt 1.0015 0.6134
vt 0.9116 0.8067
vt 1.0022 0.8414
vt 0.9077 0.5703
vt 0.9597 0.9343
vt 0.9078 0.8907
vt 0.9002 0.9871
vt 0.9118 0.6534
vt 0.9590 0.5267
vt 1.0016 0.6180
vt 0.9141 0.7308
vt 1.0026 0.8458
vt 0.9118 0.8078
vt 0.9084 0.8904
vt 0.9584 0.9322
vt 0.8992 0.4753
vt 0.9079 0.5704
vt 0.8693 0.7307
vt 0.8722 0.8104
vt 0.1337 0.8118
vt 0.0922 0.7337
vt 0.1365 0.7319
vt 0.1238 0.8959
vt 0.1066 0.9871
vt 0.0981 0.8922
vt 0.1065 0.4753
vt 0.1236 0.5687
vt 0.0981 0.5721
vt 0.0943 0.6560
vt 0.1336 0.6523
vt 0.0946 0.8104
vt 0.0910 0.7318
vt 0.1327 0.6533
vt 0.0933 0.6548
vt 0.0972 0.8923
vt 0.1323 0.8130
vt 0.0933 0.8093
vt 0.1226 0.5681
vt 0.0966 0.5720
vt 0.1354 0.7336
vt 0.1224 0.8956
vt 0.1049 0.4753
vt 0.8827 0.5671
vt 0.8728 0.6497
vt 0.8698 0.7290
vt 0.8724 0.8092
vt 0.8825 0.8944
vt 0.8823 0.8941
vt 0.8722 0.6507
vt 0.8821 0.5666
vt 0.9570 0.5283
vt 0.0045 0.8491
vt 0.0490 0.9342
vt 0.0460 0.9361
vt 0.0033 0.8447
vt 0.0024 0.6167
vt 0.0467 0.5302
vt 0.0038 0.6213
vt 0.0462 0.5285
vt 0.6881 0.1111
vt 0.9755 0.0340
vt 0.6879 0.0340
vt 0.6874 0.1263
vt 0.9757 0.1111
vt 0.9749 0.1994
vt 0.9751 0.1263
vt 0.6872 0.1994
vt 0.9755 0.2126
vt 0.6709 0.1111
vt 0.0355 0.1994
vt 0.9882 0.2126
vt 0.0355 0.0340
vt 0.0355 0.1994
vt 0.9882 0.2126
vt 0.4224 0.2126
vt 0.7101 0.2126
vt 0.7272 0.0340
vt 0.9093 0.1994
vt 0.9305 0.1111
vt 0.0098 0.0340
vt 0.6879 0.2126
vt 0.6707 0.0340
vn -0.7016 0.2854 -0.6529
vn 0.7125 0.2810 -0.6429
vn -0.7125 0.2810 -0.6429
vn 0.7125 -0.2810 0.6429
vn 0.7016 -0.2854 0.6529
vn -0.7016 -0.2854 0.6529
vn -0.7125 -0.2810 0.6429
vn 0.7125 0.2810 0.6429
vn -0.7016 0.2854 0.6529
vn -0.7125 0.2810 0.6429
vn 0.7125 -0.2810 -0.6429
vn 0.7016 0.2854 0.6529
vn -0.7016 -0.2854 -0.6529
vn 0.7016 -0.2854 -0.6529
vn -0.7125 -0.2810 -0.6429
vn 0.6664 -0.3446 -0.6611
vn 0.7538 0.2111 0.6222
vn 0.7032 -0.3332 -0.6281
vn -0.6971 -0.2393 -0.6758
vn -0.6664 0.3446 0.6611
vn -0.7538 -0.2112 -0.6222
vn 0.6971 0.2393 0.6758
vn 0.6634 0.3455 -0.6637
vn 0.7544 -0.2108 0.6215
vn 0.7200 -0.2284 0.6553
vn -0.6634 -0.3455 0.6637
vn -0.6798 -0.3406 0.6495
vn -0.7544 0.2108 -0.6215
vn -0.7200 0.2284 -0.6553
vn 0.6798 0.3406 -0.6495
vn -0.6327 -0.5881 0.5038
vn -0.5141 0.5684 -0.6424
vn -0.4940 -0.5822 -0.6457
vn -0.6509 0.5704 0.5010
vn 0.6327 0.5881 -0.5038
vn 0.5141 -0.5684 0.6424
vn 0.6509 -0.5704 -0.5010
vn 0.4940 0.5822 0.6457
vn 0.5343 0.6003 -0.5950
vn 0.6213 -0.5398 0.5679
vn 0.6109 -0.5278 -0.5901
vn -0.6213 0.5398 -0.5679
vn 0.5330 0.6398 0.5537
vn -0.5344 -0.6003 0.5950
vn -0.6109 0.5278 0.5901
vn -0.5330 -0.6398 -0.5537
vn -0.6204 -0.5680 0.5407
vn 0.5353 0.5830 0.6112
vn -0.6170 0.5722 0.5402
vn -0.5314 0.5876 -0.6101
vn 0.6204 0.5680 -0.5407
vn -0.5353 -0.5830 -0.6112
vn 0.5314 -0.5876 0.6101
vn 0.6170 -0.5722 -0.5402
vn 0.9781 -0.2081 0.0000
vn 0.5000 0.0000 0.8660
vn 1.0000 0.0000 0.0000
vn 0.4456 -0.0835 0.8913
vn -0.5000 0.0000 0.8660
vn -0.5361 0.1141 0.8364
vn -1.0000 0.0000 0.0000
vn -0.9829 0.1841 0.0000
vn -0.5000 0.0000 -0.8660
vn -0.5361 0.1141 -0.8364
vn 0.5000 0.0000 -0.8660
vn 0.4456 -0.0835 -0.8913
vn -0.1841 0.9829 0.0000
vn 0.0000 0.5000 0.8660
vn 0.0000 1.0000 0.0000
vn -0.1141 0.5361 0.8364
vn 0.0000 -0.5000 0.8660
vn 0.0835 -0.4456 0.8913
vn 0.0000 -1.0000 0.0000
vn 0.2081 -0.9781 0.0000
vn 0.0000 -0.5000 -0.8660
vn 0.0835 -0.4456 -0.8913
vn 0.0000 0.5000 -0.8660
vn -0.1141 0.5361 -0.8364
vn -0.4116 0.4116 -0.8131
vn 0.7071 -0.7071 0.0000
vn -0.4116 0.4116 0.8131
vn -0.7071 0.7071 0.0000
vn 0.2794 -0.2794 -0.9186
vn 0.2794 -0.2794 0.9186
vn 0.7087 -0.3934 -0.5856
vn 0.7656 0.0000 -0.6432
vn 0.9703 -0.2416 0.0000
vn 0.7087 0.3934 -0.5856
vn 0.9703 0.2416 0.0000
vn 0.5365 -0.7574 -0.3720
vn 0.7413 0.6712 0.0000
vn 0.5365 0.7574 -0.3720
vn 0.2067 0.9784 0.0000
vn 0.7087 -0.3934 0.5856
vn 0.7413 -0.6712 0.0000
vn 0.7656 0.0000 0.6432
vn 0.7087 0.3934 0.5856
vn 0.5365 0.7574 0.3720
vn 0.2067 -0.9784 0.0000
vn 0.5365 -0.7574 0.3720
vn 0.2345 0.0000 -0.9721
vn 0.2120 0.4747 -0.8542
vn -0.2120 0.4747 0.8542
vn -0.7656 0.0000 0.6432
vn -0.2345 0.0000 0.9721
vn -0.1410 0.8415 0.5215
vn -0.2067 0.9784 0.0000
vn -0.5365 0.7574 0.3720
vn -0.2067 -0.9784 0.0000
vn -0.1410 -0.8415 0.5215
vn -0.5365 -0.7574 0.3720
vn -0.7087 -0.3934 0.5856
vn -0.2120 -0.4747 0.8542
vn -0.7087 0.3934 0.5856
vn -0.7656 0.0000 -0.6432
vn -0.2120 -0.4747 -0.8542
vn -0.7087 -0.3934 -0.5856
vn -0.5365 0.7574 -0.3720
vn -0.2120 0.4747 -0.8542
vn -0.7087 0.3934 -0.5856
vn -0.1410 -0.8415 -0.5215
vn -0.5365 -0.7574 -0.3720
vn -0.2345 0.0000 -0.9721
vn -0.1410 0.8415 -0.5215
vn 0.1410 -0.8415 0.5215
vn 0.2120 -0.4747 0.8542
vn 0.2345 0.0000 0.9721
vn 0.2120 0.4747 0.8542
vn 0.1410 0.8415 0.5215
vn 0.1410 0.8415 -0.5215
vn 0.2120 -0.4747 -0.8542
vn 0.1410 -0.8415 -0.5215
vn -0.9703 0.2416 0.0000
vn -0.7413 0.6712 0.0000
vn -0.9703 -0.2416 0.0000
vn -0.7413 -0.6712 0.0000
vn -0.8661 -0.0848 0.4925
vn 0.5535 0.1695 0.8154
vn -0.0135 0.5868 0.8096
vn -0.7514 0.2588 -0.6069
vn -0.6016 -0.7044 0.3767
vn 0.5105 0.6818 -0.5240
vn -0.4739 -0.0711 -0.8777
vn 0.1457 0.9520 -0.2691
vn 0.7016 0.2854 -0.6529
vn -0.7032 0.3332 0.6281
usemtl Tank
s 1
f 2/1/1 3/2/2 1/3/3
f 3/2/2 8/4/4 7/5/5
f 8/6/4 5/7/6 7/8/5
f 6/9/7 1/3/3 5/7/6
f 11/10/8 10/11/9 9/12/10
f 11/10/8 16/13/11 12/14/12
f 13/15/13 16/16/11 15/17/14
f 9/12/10 14/18/15 13/15/13
f 19/19/16 24/20/17 20/21/18
f 18/22/19 19/19/16 20/21/18
f 22/23/20 17/24/21 18/25/19
f 23/26/22 22/23/20 24/20/17
f 32/27/23 27/28/24 28/29/25
f 28/29/25 25/30/26 26/31/27
f 30/32/28 25/33/26 29/34/29
f 32/27/23 29/34/29 31/35/30
f 34/36/31 35/37/32 33/38/33
f 36/39/34 39/40/35 35/37/32
f 39/40/35 38/41/36 37/42/37
f 37/43/37 34/36/31 33/38/33
f 34/44/31 40/45/38 36/46/34
f 39/40/35 33/47/33 35/48/32
f 43/49/39 42/50/40 41/51/41
f 47/52/42 44/53/43 43/49/39
f 47/52/42 46/54/44 48/55/45
f 45/56/46 42/57/40 46/54/44
f 42/50/40 48/58/45 46/59/44
f 41/51/41 47/60/42 43/49/39
f 49/61/47 52/62/48 51/63/49
f 52/62/48 55/64/50 51/63/49
f 56/65/51 53/66/52 55/64/50
f 53/66/52 50/67/53 49/68/47
f 54/69/54 52/62/48 50/70/53
f 55/71/50 49/61/47 51/63/49
f 58/72/55 59/73/56 57/74/57
f 60/75/58 61/76/59 59/73/56
f 62/77/60 63/78/61 61/76/59
f 64/79/62 65/80/63 63/78/61
f 66/81/64 67/82/65 65/80/63
f 68/83/66 57/84/57 67/82/65
f 78/85/67 70/86/68 69/87/69
f 80/88/70 71/89/71 70/86/68
f 72/90/72 73/91/73 71/89/71
f 74/92/74 75/93/75 73/94/73
f 76/95/76 77/96/77 75/93/75
f 79/97/78 69/87/69 77/96/77
f 64/79/62 82/98/79 66/81/64
f 82/98/79 68/83/66 66/81/64
f 68/83/66 84/99/80 58/100/55
f 84/101/80 60/75/58 58/72/55
f 60/75/58 86/102/81 62/77/60
f 86/102/81 64/79/62 62/77/60
f 81/103/82 79/97/78 82/98/79
f 79/97/78 83/104/83 82/98/79
f 76/95/76 84/99/80 83/104/83
f 74/105/74 85/106/84 84/101/80
f 72/90/72 86/102/81 85/106/84
f 80/88/70 81/103/82 86/102/81
f 90/107/85 91/108/86 95/109/87
f 92/110/88 96/111/89 91/108/86
f 95/109/87 89/112/90 90/107/85
f 97/113/91 92/110/88 93/114/92
f 97/113/91 93/114/92 107/115/93
f 99/116/94 94/117/95 95/118/87
f 100/119/96 96/120/89 101/121/97
f 96/120/89 100/119/96 95/118/87
f 102/122/98 96/120/89 97/123/91
f 108/124/99 94/117/95 98/125/100
f 99/116/94 98/125/100 94/117/95
f 100/119/96 99/116/94 95/118/87
f 96/111/89 95/109/87 91/108/86
f 92/110/88 111/126/101 88/127/102
f 116/128/103 122/129/104 117/130/105
f 115/131/106 114/132/107 120/133/108
f 113/134/109 119/135/110 124/136/111
f 117/130/105 123/137/112 118/138/113
f 115/131/106 121/139/114 116/128/103
f 118/138/113 124/136/111 119/135/110
f 131/140/115 137/141/116 132/142/117
f 129/143/118 135/144/119 130/145/120
f 132/142/117 138/146/121 133/147/122
f 130/145/120 136/148/123 131/140/115
f 129/143/118 114/132/107 134/149/124
f 113/150/109 133/147/122 138/146/121
f 103/151/125 113/134/109 108/124/99
f 104/152/126 119/135/110 103/151/125
f 105/153/127 118/138/113 104/152/126
f 109/154/128 117/130/105 105/153/127
f 106/155/129 116/128/103 109/154/128
f 107/115/93 115/131/106 106/155/129
f 134/149/124 107/115/93 110/156/130
f 135/144/119 110/156/130 88/127/102
f 136/148/123 88/127/102 111/126/101
f 137/141/116 111/126/101 87/157/131
f 138/146/121 87/157/131 112/158/132
f 113/150/109 112/158/132 108/124/99
f 90/107/85 112/158/132 87/157/131
f 93/114/92 88/127/102 110/156/130
f 91/108/86 87/157/131 111/126/101
f 108/124/99 89/112/90 94/159/95
f 95/109/87 94/159/95 89/112/90
f 97/113/91 96/111/89 92/110/88
f 102/122/98 97/123/91 107/115/93
f 102/122/98 101/121/97 96/120/89
f 104/152/126 98/125/100 99/116/94
f 106/155/129 101/121/97 102/122/98
f 105/153/127 99/116/94 100/119/96
f 109/154/128 100/119/96 101/121/97
f 108/124/99 112/158/132 89/112/90
f 93/114/92 110/156/130 107/115/93
f 92/110/88 91/108/86 111/126/101
f 90/107/85 89/112/90 112/158/132
f 93/114/92 92/110/88 88/127/102
f 91/108/86 90/107/85 87/157/131
f 104/152/126 103/151/125 98/125/100
f 106/155/129 109/154/128 101/121/97
f 105/153/127 104/152/126 99/116/94
f 108/124/99 98/125/100 103/151/125
f 106/155/129 102/122/98 107/115/93
f 109/154/128 105/153/127 100/119/96
f 116/128/103 121/139/114 122/129/104
f 117/130/105 122/129/104 123/137/112
f 115/131/106 120/133/108 121/139/114
f 118/138/113 123/137/112 124/136/111
f 120/133/108 126/160/133 121/139/114
f 120/133/108 114/132/107 125/161/134
f 125/162/134 130/145/120 126/163/133
f 127/164/135 133/147/122 128/165/136
f 113/150/109 128/165/136 133/147/122
f 131/140/115 136/148/123 137/141/116
f 129/143/118 134/149/124 135/144/119
f 132/142/117 137/141/116 138/146/121
f 130/145/120 135/144/119 136/148/123
f 103/151/125 119/135/110 113/134/109
f 104/152/126 118/138/113 119/135/110
f 105/153/127 117/130/105 118/138/113
f 109/154/128 116/128/103 117/130/105
f 106/155/129 115/131/106 116/128/103
f 107/115/93 114/132/107 115/131/106
f 134/149/124 114/132/107 107/115/93
f 135/144/119 134/149/124 110/156/130
f 136/148/123 135/144/119 88/127/102
f 137/141/116 136/148/123 111/126/101
f 138/146/121 137/141/116 87/157/131
f 113/150/109 138/146/121 112/158/132
f 126/163/133 131/140/115 127/164/135
f 122/129/104 127/166/135 123/137/112
f 123/137/112 128/167/136 124/136/111
f 113/134/109 124/136/111 128/167/136
f 120/133/108 125/161/134 126/160/133
f 126/160/133 127/166/135 122/129/104
f 122/129/104 121/139/114 126/160/133
f 123/137/112 127/166/135 128/167/136
f 125/162/134 114/132/107 129/143/118
f 125/162/134 129/143/118 130/145/120
f 127/164/135 132/142/117 133/147/122
f 130/145/120 131/140/115 126/163/133
f 132/142/117 127/164/135 131/140/115
f 141/168/137 140/169/138 139/170/139
f 145/171/140 142/172/141 141/168/137
f 145/171/140 144/173/142 146/174/143
f 143/175/144 140/176/138 144/173/142
f 139/170/139 145/177/140 141/168/137
f 2/1/1 4/178/145 3/2/2
f 3/2/2 4/178/145 8/4/4
f 8/6/4 6/9/7 5/7/6
f 6/9/7 2/1/1 1/3/3
f 11/10/8 12/14/12 10/11/9
f 11/10/8 15/179/14 16/13/11
f 13/15/13 14/18/15 16/16/11
f 9/12/10 10/11/9 14/18/15
f 19/19/16 23/26/22 24/20/17
f 18/22/19 17/180/21 19/19/16
f 22/23/20 21/181/146 17/24/21
f 23/26/22 21/181/146 22/23/20
f 32/27/23 31/35/30 27/28/24
f 28/29/25 27/28/24 25/30/26
f 30/32/28 26/182/27 25/33/26
f 32/27/23 30/32/28 29/34/29
f 34/36/31 36/39/34 35/37/32
f 36/39/34 40/45/38 39/40/35
f 39/40/35 40/45/38 38/41/36
f 37/43/37 38/183/36 34/36/31
f 34/44/31 38/41/36 40/45/38
f 39/40/35 37/42/37 33/47/33
f 43/49/39 44/53/43 42/50/40
f 47/52/42 48/55/45 44/53/43
f 47/52/42 45/56/46 46/54/44
f 45/56/46 41/184/41 42/57/40
f 42/50/40 44/53/43 48/58/45
f 41/51/41 45/185/46 47/60/42
f 49/61/47 50/70/53 52/62/48
f 52/62/48 56/65/51 55/64/50
f 56/65/51 54/186/54 53/66/52
f 53/66/52 54/186/54 50/67/53
f 54/69/54 56/187/51 52/62/48
f 55/71/50 53/188/52 49/61/47
f 58/72/55 60/75/58 59/73/56
f 60/75/58 62/77/60 61/76/59
f 62/77/60 64/79/62 63/78/61
f 64/79/62 66/81/64 65/80/63
f 66/81/64 68/83/66 67/82/65
f 68/83/66 58/100/55 57/84/57
f 78/85/67 80/88/70 70/86/68
f 80/88/70 72/90/72 71/89/71
f 72/90/72 74/105/74 73/91/73
f 74/92/74 76/95/76 75/93/75
f 76/95/76 79/97/78 77/96/77
f 79/97/78 78/85/67 69/87/69
f 64/79/62 81/103/82 82/98/79
f 82/98/79 83/104/83 68/83/66
f 68/83/66 83/104/83 84/99/80
f 84/101/80 85/106/84 60/75/58
f 60/75/58 85/106/84 86/102/81
f 86/102/81 81/103/82 64/79/62
f 81/103/82 78/85/67 79/97/78
f 79/97/78 76/95/76 83/104/83
f 76/95/76 74/92/74 84/99/80
f 74/105/74 72/90/72 85/106/84
f 72/90/72 80/88/70 86/102/81
f 80/88/70 78/85/67 81/103/82
f 141/168/137 142/172/141 140/169/138
f 145/171/140 146/174/143 142/172/141
f 145/171/140 143/175/144 144/173/142
f 143/175/144 139/189/139 140/176/138
f 139/170/139 143/190/144 145/177/140
